<svg height="480pt" viewBox="-52 0 480 480" width="480pt" xmlns="http://www.w3.org/2000/svg" xmlns:xlink="http://www.w3.org/1999/xlink"><linearGradient id="a"><stop offset="0" stop-color="#fff200"/><stop offset="1" stop-color="#cd118c"/></linearGradient><linearGradient id="b" gradientUnits="userSpaceOnUse" x1="-23.52" x2="336.48" xlink:href="#a" y1="431.552" y2="-40.448"/><linearGradient id="c" gradientUnits="userSpaceOnUse" x1="-31.24" x2="328.76" xlink:href="#a" y1="425.664" y2="-46.336"/><linearGradient id="d" gradientUnits="userSpaceOnUse" x1="-41.096" x2="318.904" xlink:href="#a" y1="418.144" y2="-53.856"/><linearGradient id="e" gradientUnits="userSpaceOnUse" x1="-.632" x2="359.368" xlink:href="#a" y1="449.008" y2="-22.992"/><linearGradient id="f" gradientUnits="userSpaceOnUse" x1="17.84" x2="377.84" xlink:href="#a" y1="463.096" y2="-8.904"/><linearGradient id="g" gradientUnits="userSpaceOnUse" x1="3.184" x2="363.184" xlink:href="#a" y1="451.92" y2="-20.08"/><linearGradient id="h" gradientUnits="userSpaceOnUse" x1="52.376" x2="412.376" xlink:href="#a" y1="489.44" y2="17.44"/><linearGradient id="i" gradientUnits="userSpaceOnUse" x1="118.184" x2="478.184" xlink:href="#a" y1="539.632" y2="67.632"/><path d="m296 72h-176v112h176zm-16 96h-144v-80h144zm0 0" fill="url(#b)"/><path d="m152 104h112v16h-112zm0 0" fill="url(#c)"/><path d="m152 136h32v16h-32zm0 0" fill="url(#d)"/><path d="m200 136h64v16h-64zm0 0" fill="url(#e)"/><path d="m376 16v-16h-376v480h376v-440h-16v-24zm-360 448v-408h24v408zm344 0h-304v-408h304zm-344-424v-24h328v24zm0 0" fill="url(#f)"/><path d="m88 352v-48h48v48h16v-72c0-22.089844-17.910156-40-40-40s-40 17.910156-40 40v72zm24-96c13.253906 0 24 10.746094 24 24v8h-48v-8c0-13.253906 10.746094-24 24-24zm0 0" fill="url(#g)"/><path d="m248 272c0-17.671875-14.328125-32-32-32h-48v112h48c13.34375.058594 25.3125-8.203125 29.984375-20.703125 4.675781-12.496094 1.066406-26.585937-9.039063-35.296875 6.992188-6.015625 11.027344-14.773438 11.054688-24zm-16 48c0 8.835938-7.164062 16-16 16h-32v-32h32c8.835938 0 16 7.164062 16 16zm-48-32v-32h32c8.835938 0 16 7.164062 16 16s-7.164062 16-16 16zm0 0" fill="url(#h)"/><path d="m264 280v32c0 22.089844 17.910156 40 40 40s40-17.910156 40-40h-16c0 13.253906-10.746094 24-24 24s-24-10.746094-24-24v-32c0-13.253906 10.746094-24 24-24s24 10.746094 24 24h16c0-22.089844-17.910156-40-40-40s-40 17.910156-40 40zm0 0" fill="url(#i)"/></svg>