<svg version="1.1" id="Capa_1" xmlns="http://www.w3.org/2000/svg" x="0px" y="0px"
	 viewBox="0 0 512 582" style="enable-background:new 0 0 512 582;" xml:space="preserve">
<style type="text/css">
	.st0{fill:#97F5FF;}
	.st1{fill:#7BCCC6;}
	.st2{fill:#FFFFFF;}
	.st3{fill:#BD7CB5;}
	.st4{fill:#AC71A5;}
	.st5{fill:#FFC709;}
</style>
<g id="Background">
	<rect x="1.7" y="-1" class="st0" width="511.6" height="584.8"/>
</g>
<g>
	<path class="st1" d="M461.2,345h-65.1c7.1-15,12.5-35.2,12.7-62.6c0.4-41.2-18.6-69.3-34.8-85.6c-13.4-13.6-30.3-24.4-46.8-30.7
		l35.3-68.9c3.5-7,3.3-15.2-0.8-21.8c-4.1-6.7-11.3-10.6-19-10.6H238.9c-8.1,0-15.7,4.5-19.6,11.7c-2.1,3.8-51.6,94.7-75.8,140.4
		c-12.9,24.3-17.6,57.1-12.7,89.9c2.1,14,5.6,27,10.5,38.3H101c-10.1,0-18.9,6.7-21.5,16.4c-2.9,10.6-12.7,46.7-15.5,64.8
		c-0.5,3.4-0.3,6.7,0.7,10c-14.7-0.3-23.4-0.4-23.5-0.4c-7.2,0-13.9,3.4-18.1,9.3c-4.3,5.9-5.4,13.6-2.9,20.5l7.7,21.8l-17.8,22.7
		c-5.2,6.7-6.2,15.9-2.4,23.5c3.8,7.6,11.5,12.5,20.1,12.5H365c10.8,0,19.9-7.6,21.9-18.1l11.5-60.2c1-5.5,0-11.2-2.9-15.9h53.3
		c7.1,0,13.8-3.4,18-9.1c4.2-5.6,5.5-13,3.4-19.8l-6.4-21.1l15.5-21.8c4.9-6.8,5.5-15.7,1.7-23.2C477.2,349.6,469.6,345,461.2,345z"
		/>
	<path class="st2" d="M487.3,324.1h-65.1c7.1-15,12.5-35.2,12.7-62.6c0.4-41.2-18.6-69.3-34.8-85.6c-13.4-13.6-30.3-24.4-46.8-30.7
		l35.3-68.9c3.5-7,3.3-15.2-0.8-21.8c-4.1-6.7-11.3-10.6-19-10.6H265c-8.1,0-15.7,4.5-19.6,11.7c-2.1,3.8-51.6,94.7-75.8,140.4
		c-12.9,24.3-17.6,57.1-12.7,89.9c2.1,14,5.6,27,10.5,38.3h-40.3c-10.1,0-18.9,6.7-21.5,16.4c-2.9,10.6-12.7,46.7-15.5,64.8
		c-0.5,3.4-0.3,6.7,0.7,10c-14.7-0.3-23.4-0.4-23.5-0.4c-7.2,0-13.9,3.4-18.1,9.3c-4.3,5.9-5.4,13.6-2.9,20.5l7.7,21.8l-17.7,22.8
		c-5.2,6.7-6.2,15.9-2.4,23.5c3.8,7.6,11.5,12.5,20.1,12.5h337.2c10.8,0,19.9-7.6,21.9-18.1l11.5-60.2c1-5.5,0-11.2-2.9-15.9h53.3
		c7.1,0,13.8-3.4,18-9.1c4.2-5.6,5.5-13,3.4-19.8l-6.4-21.1l15.5-21.8c4.9-6.8,5.5-15.7,1.7-23.2
		C503.3,328.8,495.6,324.1,487.3,324.1z M302.2,264.4c0,6.3-3.9,11-7.3,11c-3.5,0-7.3-4.7-7.3-11c0-6.3,3.9-11,7.3-11
		C298.4,253.4,302.2,258.1,302.2,264.4z"/>
	<g>
		<path class="st3" d="M487.3,346.4H127c-2.2,8.3-12.3,45.1-15,62.5h363.1l-9.3-30.6c-0.3-0.7-0.1-1.4,0.3-2L487.3,346.4z"/>
		<path class="st4" d="M323.4,413.3h-200c20.2,6.7,56.7,18.8,64.2,21.4l204.4,3.4C371.6,430.7,332.5,416.4,323.4,413.3z"/>
		<path class="st3" d="M78.6,469.4c0.3,0.8,0.1,1.6-0.4,2.1L53.8,503H391l11.5-60.2L67,437.2L78.6,469.4z"/>
		<path class="st5" d="M368.8,66.1H265c-6,11-52.6,96.7-75.7,140.3c-23.2,43.7-10,114,16.9,135.4h171.9c3.5-1.7,33.9-17.8,34.5-80.6
			c0.4-33.6-15.2-56.3-28.2-69.5c-19.7-19.8-45.4-30.2-60.6-30.2c-0.8,0-1.6-0.4-2-1c-0.4-0.7-0.4-1.6-0.1-2.2L368.8,66.1z
			 M324.5,264.4c0,18.4-13.4,33.3-29.7,33.3c-16.4,0-29.7-15-29.7-33.3s13.4-33.3,29.7-33.3C311.2,231.1,324.5,246,324.5,264.4z"/>
	</g>
	<g>
		<path class="st2" d="M173.7,356.3H187c3.6,0,6.2,0.3,7.7,1s2.7,1.8,3.7,3.5s1.5,3.6,1.5,5.7c0,2-0.4,3.7-1.3,5.3s-2,2.7-3.4,3.5
			c2,0.7,3.5,1.9,4.6,3.6s1.7,3.8,1.7,6.2c0,3-0.7,5.5-2.1,7.5c-1.4,2-3.1,3.3-5,3.8c-1.3,0.3-4.5,0.5-9.4,0.5h-11.3V356.3z
			 M180.4,363.1v9.4h4.4c2.7,0,4.3,0,4.9-0.1c1.1-0.2,2-0.7,2.7-1.5c0.6-0.8,1-1.9,1-3.2c0-1.2-0.3-2.2-0.8-2.9
			c-0.5-0.7-1.2-1.2-1.9-1.4s-2.9-0.3-6.4-0.3H180.4z M180.4,379.2v10.8h6.2c2.7,0,4.5-0.1,5.3-0.4c0.8-0.3,1.4-0.8,2-1.7
			c0.5-0.8,0.8-1.9,0.8-3.2c0-1.3-0.3-2.4-0.8-3.3s-1.3-1.4-2.2-1.8c-0.9-0.3-2.8-0.5-5.7-0.5H180.4z"/>
		<path class="st2" d="M228.6,382l6.5,2.5c-1,4.5-2.7,7.9-5.1,10c-2.4,2.1-5.3,3.1-8.7,3.1c-4.3,0-7.9-1.7-10.6-5
			c-3.1-3.9-4.7-9.1-4.7-15.6c0-6.9,1.6-12.3,4.7-16.3c2.7-3.4,6.4-5.1,11-5.1c3.7,0,6.9,1.3,9.4,3.8c1.8,1.8,3.1,4.5,3.9,8.1
			l-6.6,1.9c-0.4-2.2-1.3-3.9-2.5-5.1s-2.8-1.8-4.5-1.8c-2.5,0-4.5,1.1-6,3.2c-1.6,2.1-2.3,5.7-2.3,10.6c0,5.1,0.8,8.8,2.3,10.9
			c1.5,2.2,3.5,3.2,5.9,3.2c1.8,0,3.3-0.7,4.6-2.1C227.1,387.2,228,385,228.6,382z"/>
		<path class="st2" d="M240.9,396.9v-40.6h24.7v6.9h-18v9h16.7v6.8h-16.7v11h18.6v6.9H240.9z"/>
		<path class="st2" d="M294.5,379.9H293v-6.2c4.7,0.2,7-1.8,7-6.2c0-1.6-0.5-2.9-1.4-3.8c-0.9-0.9-2.2-1.4-3.7-1.4
			c-2.7,0-4.5,1.7-5.3,5.1l-6.6-1.9c1.3-6.6,5.3-9.9,12-9.9c3.6,0,6.5,1,8.6,2.9s3.3,4.5,3.3,7.6c0,3.9-1.8,7-5.5,9.3
			c4.4,1.9,6.6,5.3,6.6,10.2c0,3.7-1.1,6.6-3.4,8.8c-2.2,2.1-5.4,3.2-9.5,3.2c-3.5,0-6.2-0.7-8.2-2.1c-2-1.4-3.5-4-4.6-8l6.2-2.5
			c0.6,2.3,1.4,3.9,2.4,4.7s2.3,1.2,4,1.2c1.9,0,3.4-0.5,4.5-1.5s1.7-2.3,1.7-4c0-1.7-0.6-3.1-1.8-4.1S296.6,379.9,294.5,379.9z"/>
		<path class="st2" d="M313.9,396.9v-40.6h6.7v16h13.2v-16h6.7v40.6h-6.7v-17.8h-13.2v17.8H313.9z"/>
		<path class="st2" d="M377.6,396.9h-7.3l-2.9-9.2H354l-2.8,9.2h-7.1l13-40.6h7.1L377.6,396.9z M365.2,380.9l-4.6-15.1l-4.5,15.1
			H365.2z"/>
		<path class="st2" d="M387.8,380.1v16.8h-6.7v-40.6h6.7v16.9h5.4c0.5-5.7,2.1-10,4.7-13.1c2.7-3,6.1-4.5,10.5-4.5
			c4.7,0,8.4,1.8,11.1,5.5c2.7,3.7,4,8.8,4,15.4s-1.3,11.7-4,15.4c-2.7,3.7-6.3,5.6-10.9,5.6c-2.8,0-5.2-0.5-7.2-1.5
			c-1.9-1-3.7-3-5.4-5.9c-1.6-2.9-2.6-6.3-2.8-10.1H387.8z M408.2,362.6c-5.5,0-8.2,4.8-8.2,14.5c0,4.4,0.7,7.8,2.2,10.2
			c1.5,2.4,3.5,3.6,6.1,3.6c5.5,0,8.3-4.9,8.3-14.7c0-4.4-0.7-7.7-2.2-10.1S410.8,362.6,408.2,362.6z"/>
	</g>
</g>
</svg>
