<svg version="1.1" id="Capa_1" xmlns="http://www.w3.org/2000/svg" x="0px" y="0px"
	 viewBox="0 0 512 582" style="enable-background:new 0 0 512 582;" xml:space="preserve">
<style type="text/css">
	.st0{fill:#97F5FF;}
	.st1{fill:#7BCCC6;}
	.st2{fill:#FFFFFF;}
	.st3{fill:#77787B;}
	.st4{fill:#9D9FA2;}
	.st5{fill:#FFC709;}
</style>
<g id="Background">
	<rect x="1.7" y="-1" class="st0" width="511.6" height="584.8"/>
</g>
<g>
	<path class="st1" d="M465,420.1l-20.9-30.7l20.1-27.3c5.2-7.1,6-16.3,2-24.2c-3.9-7.7-12-12.8-20.7-12.8h-86.2v-20.3
		c0-12.8-10.3-23.1-23.1-23.1h-31v-213c0-12.8-10.3-23.1-23.1-23.1H174.5c-9.9,0-18.8,6.4-21.9,15.8l-26.6,78.7
		c-2.4,7.1-1.2,14.8,3.1,20.9c4.4,6.1,11.3,9.7,18.8,9.7h18.2v113.7h-29.8c-12.8,0-23.1,10.3-23.1,23.1v17.8h-71
		c-12.8,0-23.1,10.3-23.1,23.1v84.8c0,10.2,6.7,18.9,15.9,22c1.6,1.5,3.4,2.7,5.6,3.7l32.2,15.2v42.7c0,9.4,5.6,17.4,13.6,21.1
		c1.5,1.5,3.3,2.9,5.2,3.9l50.4,27.7c3.5,1.9,7.3,2.9,11.1,2.9c4.1,0,8.2-1.1,11.8-3.3c7.1-4.2,11.4-11.7,11.4-19.8v-9.4H207
		c2.7,0,5.4-0.5,7.9-1.4c0.1,0,0.3,0,0.3,0c4.4,0,8.6-1.2,12.4-3.5c6.7-4.2,10.7-11.6,10.7-19.6v-59h207.5c8.6,0,16.5-4.8,20.4-12.4
		C470.5,436.4,469.9,427.2,465,420.1z"/>
	<path class="st2" d="M492.1,398.5l-20.9-30.7l20.1-27.3c5.2-7.1,6-16.3,2-24.2c-3.9-7.7-12-12.8-20.7-12.8h-86.2v-20.3
		c0-12.8-10.3-23.1-23.1-23.1h-30.9V47.2c0-12.8-10.3-23.1-23.1-23.1H201.7c-9.9,0-18.8,6.4-21.9,15.8l-26.6,78.6
		c-2.4,7.1-1.2,14.8,3.1,20.9c4.4,6.1,11.3,9.7,18.8,9.7h18.2v113.7h-29.8c-12.8,0-23.1,10.3-23.1,23.1v17.8h-71
		c-12.8,0-23.1,10.3-23.1,23.1v84.8c0,10.2,6.7,18.9,15.9,22c1.6,1.5,3.4,2.7,5.6,3.7l32.2,15.2V495c0,9.4,5.6,17.4,13.6,21.1
		c1.5,1.5,3.3,2.9,5.2,3.9l50.4,27.7c3.5,1.9,7.3,2.9,11.1,2.9c4.1,0,8.2-1.1,11.8-3.3c7.1-4.2,11.4-11.7,11.4-19.8v-9.4h30.6
		c2.7,0,5.4-0.5,7.9-1.4c0.1,0,0.3,0,0.3,0c4.4,0,8.6-1.2,12.4-3.5c6.7-4.2,10.7-11.6,10.7-19.6v-59h207.5c8.6,0,16.5-4.8,20.4-12.4
		C497.4,414.8,496.8,405.6,492.1,398.5z"/>
	<polygon class="st3" points="180.3,527.5 180.3,499.7 130,499.7 	"/>
	<polygon class="st4" points="123.2,495 234.2,495 123.2,442.8 	"/>
	<path class="st5" d="M214,285.8h-50.6v36.3h199.9v-38.6h-51.7c-1.4,0-2.3-1.1-2.3-2.3v-234H201.7L175,125.9h39
		c1.4,0,2.3,1.1,2.3,2.3v155.1C216.4,284.7,215.4,285.8,214,285.8z"/>
	<polygon class="st3" points="242.3,493.7 242.3,416.3 77.7,416.3 	"/>
	<path class="st4" d="M443.7,368.6c-0.5-0.8-0.5-1.9,0-2.7l29-39.2H69.5v84.8H473L443.7,368.6z"/>
	<g>
		<path class="st2" d="M110.1,391.3v-42.1h6.9v16.6h13.7v-16.6h6.9v42.1h-6.9v-18.4h-13.7v18.4H110.1z"/>
		<path class="st2" d="M176,391.3h-7.6l-3-9.5h-13.8l-2.9,9.5h-7.4l13.4-42.1h7.4L176,391.3z M163.2,374.7l-4.8-15.6l-4.7,15.6
			H163.2z"/>
		<path class="st2" d="M179.1,364.3v-15h6.9v11.2c0,2.3,0.1,4.1,0.3,5.2c0.2,1.1,0.8,2.1,1.7,2.9c0.9,0.8,2.4,1.2,4.3,1.2
			c2.9,0,5.3-0.8,7.1-2.3v-18.1h6.9v42.1h-6.9v-16.9c-2.7,1.5-5.5,2.2-8.2,2.2c-3.8,0-6.8-1.1-8.9-3.2S179.1,368.2,179.1,364.3z"/>
		<path class="st2" d="M244.7,391.3h-7.6l-3-9.5h-13.8l-2.9,9.5h-7.4l13.4-42.1h7.4L244.7,391.3z M231.9,374.7l-4.8-15.6l-4.7,15.6
			H231.9z"/>
		<path class="st2" d="M268.1,391.3v-35h-10.3v18c0,4.7-0.1,8.2-0.4,10.4c-0.3,2.2-1,4-2,5.1c-1.1,1.2-2.8,1.7-5.3,1.7
			c-0.7,0-2.2-0.1-4.4-0.3v-6.6h1.5c1.5,0,2.5-0.2,2.9-0.7c0.5-0.5,0.7-1.7,0.7-3.6v-31.1H275v42.1H268.1z"/>
		<path class="st2" d="M282.4,391.3v-42.1h6.9V366h9.9c3.7,0,6.6,1.2,8.7,3.5c2.2,2.4,3.2,5.5,3.2,9.3c0,3.2-0.9,6-2.6,8.6
			c-1.7,2.6-4.8,3.9-9.3,3.9H282.4z M289.3,373.1v11.1h7.3c1.9,0,3.3-0.1,4.1-0.4c0.8-0.3,1.6-0.9,2.2-1.8c0.6-1,1-2.1,1-3.3
			c0-3.7-2.3-5.6-7-5.6H289.3z"/>
		<path class="st2" d="M316.9,391.3v-42.1h6.9v16.6h13.7v-16.6h6.9v42.1h-6.9v-18.4h-13.7v18.4H316.9z"/>
		<path class="st2" d="M351.8,391.3v-42.1h6.9V366h9.9c3.7,0,6.6,1.2,8.7,3.5c2.2,2.4,3.2,5.5,3.2,9.3c0,3.2-0.9,6-2.6,8.6
			c-1.7,2.6-4.8,3.9-9.3,3.9H351.8z M358.8,373.1v11.1h7.3c1.9,0,3.3-0.1,4.1-0.4c0.8-0.3,1.6-0.9,2.2-1.8c0.6-1,1-2.1,1-3.3
			c0-3.7-2.3-5.6-7-5.6H358.8z M386.2,391.3v-42.1h6.9v42.1H386.2z"/>
		<path class="st2" d="M399.8,391.3v-42.1h6.6v28l14-28h7v42.1h-6.6v-27.4l-14,27.4H399.8z M417.8,338.1h3.2
			c-0.2,2.7-0.9,4.7-2.3,6.2c-1.3,1.4-3,2.2-5,2.2c-2,0-3.7-0.7-5-2.2c-1.3-1.4-2.1-3.5-2.3-6.2h3.2c0.2,2.8,1.6,4.1,4.1,4.1
			C416.2,342.2,417.6,340.8,417.8,338.1z"/>
	</g>
</g>
</svg>
