<svg version="1.1" id="Capa_1" xmlns="http://www.w3.org/2000/svg" x="0px" y="0px"
	 viewBox="0 0 512 582" style="enable-background:new 0 0 512 582;" xml:space="preserve">
<style type="text/css">
	.st0{fill:#97F5FF;}
	.st1{fill:#7BCCC6;}
	.st2{fill:#FFFFFF;}
	.st3{fill:#5065B2;}
	.st4{fill:#45C1FF;}
	.st5{fill:#FFC709;}
</style>
<g id="Background">
	<rect x="1.7" y="-1" class="st0" width="511.6" height="584.8"/>
</g>
<g>
	<path class="st1" d="M27.8,482.8c4.3,6.8,11.7,10.8,19.7,10.8h182.1v18.6c0,7.5,3.6,14.5,9.5,18.9c4.1,3,9,4.6,13.9,4.6
		c1.7,0,3.5-0.1,5.1-0.6c2.5,1,5.2,1.4,8,1.4h174c8.7,0,16.6-4.8,20.7-12.4c4.1-7.6,3.6-16.8-1.1-24.2l-18.5-27.9l18.9-29.7
		c4.6-7.2,5-16.4,0.8-23.9c-4.1-7.5-12-12.1-20.6-12.1h-31.9v-21.5c0-13-10.5-23.5-23.5-23.5h-40l6.2-22.9c1.9-7,0.4-14.6-4-20.4
		c-4.4-5.8-11.3-9.2-18.6-9.2h-42.2c16.8-27.3,40-66,52.4-91.4c13-26.6,15.5-70.4-8.3-108.2c-15.9-25.4-48.9-55.8-115.1-55.8
		c-70.5,0-106.3,30.1-123.9,55.3c-22.8,32.7-27.6,77-13.1,118.7c3.3,9.5,12.4,15.7,22.1,15.7c1.8,0,3.5-0.1,5.2-0.6l71.4-16.3
		c-20.4,36.2-49.1,86.3-77.2,135H47.6c-8,0-15.5,4.1-19.7,10.8c-4.3,6.8-5,15.2-1.5,22.5l15,32.7l-15,32.7
		C22.9,467.7,23.4,476.1,27.8,482.8z"/>
	<path class="st2" d="M55.2,460.9c4.3,6.8,11.7,10.8,19.7,10.8h182.1v18.6c0,7.5,3.6,14.5,9.5,18.9c4.1,3,9,4.6,13.9,4.6
		c1.7,0,3.5-0.1,5.1-0.6c2.5,1,5.2,1.4,8,1.4h174c8.7,0,16.6-4.8,20.7-12.4c4.1-7.6,3.6-16.8-1.1-24.2l-18.4-27.6l18.9-29.7
		c4.6-7.2,5-16.4,0.8-23.9c-4.1-7.5-12-12.1-20.6-12.1h-31.9v-21.5c0-13-10.5-23.5-23.5-23.5h-40l6.2-22.9c1.9-7,0.4-14.6-4-20.4
		c-4.4-5.8-11.3-9.2-18.6-9.2h-42.2c16.8-27.3,40-66,52.4-91.4c13-26.6,15.5-70.4-8.3-108.2C342.2,62.1,309.3,31.8,243,31.8
		c-70.5,0-106.3,30.1-123.9,55.3c-22.8,32.7-27.6,77-13.1,118.7c3.3,9.5,12.4,15.7,22.1,15.7c1.8,0,3.5-0.1,5.2-0.6l71.4-16.3
		c-20.4,36.2-49.1,86.3-77.2,135H75c-8,0-15.5,4.1-19.7,10.8c-4.3,6.8-5,15.2-1.5,22.5l15,32.7l-15,32.7
		C50.3,445.7,50.9,454.1,55.2,460.9z"/>
	<polygon class="st3" points="280.5,453 280.5,490.3 399.4,453 	"/>
	<path class="st4" d="M467.7,491.3l-26.2-39.2c-0.6-0.8-0.6-1.8,0-2.6l26.4-41.3h-50.5v42.5c0,0.1,0,0.1,0,0.3s0,0.4-0.1,0.6
		c0,0.1-0.1,0.3-0.1,0.4c-0.1,0.1-0.1,0.3-0.3,0.4c-0.1,0.1-0.1,0.1-0.3,0.3c-0.1,0.1-0.3,0.1-0.4,0.3c-0.1,0-0.3,0.1-0.4,0.1
		c0,0,0,0-0.1,0l-122,38.2L467.7,491.3L467.7,491.3z"/>
	<path class="st4" d="M74.9,448.2h203.2h134.4V363h-67.6H139.6H74.9l19.2,41.5c0.3,0.7,0.3,1.4,0,1.9L74.9,448.2z"/>
	<path class="st5" d="M217.3,177.7c-3.3-7.6-11-28.6,1.9-38.4c3.9-2.9,8.8-4.6,14.1-4.6c8.3,0,16.1,4,20.2,10.1
		c3.5,5.4,3.6,12.1,0.4,18.8c-8.8,18.8-95.2,168.8-110.1,194.7h199.3l13-47.8h-80.5c-0.8,0-1.7-0.4-2.1-1.2
		c-0.4-0.8-0.4-1.7,0.1-2.5c0.6-0.8,51.5-80.3,71.5-121.5c9.8-20.2,11.7-55.5-7-85.4c-12.8-20.4-39.8-44.7-95.2-44.7
		c-60.5,0-90.3,24.7-104.6,45.3C119.7,127.2,116,163.5,128,198L217.3,177.7z"/>
	<g>
		<path class="st2" d="M116,428.2l12.1-22.2l-11-20.5h8.3l6.9,12.8l7-12.8h8.2l-11,20.4l12.1,22.3H140l-7.8-14.5l-7.8,14.5H116z"/>
		<path class="st2" d="M150.7,407.1c0-5.1,0.8-9.3,2.3-12.6c1.5-3.3,3.5-5.7,5.9-7.4c2.4-1.6,5.4-2.4,8.8-2.4c5,0,9.1,1.9,12.3,5.7
			c3.2,3.8,4.7,9.3,4.7,16.3c0,7.2-1.7,12.7-5,16.8c-2.9,3.6-6.9,5.3-11.9,5.3c-5.1,0-9.1-1.8-12-5.3
			C152.4,419.6,150.7,414.1,150.7,407.1z M158,406.8c0,4.9,0.9,8.6,2.8,11.1c1.9,2.5,4.2,3.7,6.9,3.7c2.8,0,5.1-1.2,6.9-3.7
			c1.8-2.4,2.7-6.2,2.7-11.2c0-5-0.9-8.6-2.7-11c-1.8-2.4-4.1-3.6-7-3.6s-5.2,1.2-7,3.6C158.9,398.1,158,401.8,158,406.8z"/>
		<path class="st2" d="M190.2,428.2v-42.7h11.4c4.2,0,7,0.2,8.3,0.6c2.1,0.7,3.8,2.1,5.1,4.2c1.4,2.2,2,4.9,2,8.3
			c0,3.1-0.6,5.7-1.7,7.8c-1.2,2.1-2.6,3.6-4.4,4.4c-1.7,0.8-4.8,1.3-9,1.3h-4.6v16.1H190.2z M197.3,392.7v12.2h3.9
			c2.6,0,4.4-0.2,5.4-0.6c0.9-0.4,1.7-1,2.3-2c0.6-1,0.9-2.1,0.9-3.5c0-1.4-0.3-2.6-0.9-3.6c-0.6-1-1.4-1.6-2.3-2
			c-0.9-0.3-2.9-0.5-5.8-0.5H197.3z"/>
		<path class="st2" d="M221.5,407.1c0-5.1,0.8-9.3,2.3-12.6c1.5-3.3,3.5-5.7,5.9-7.4c2.4-1.6,5.4-2.4,8.8-2.4c5,0,9.1,1.9,12.3,5.7
			c3.2,3.8,4.7,9.3,4.7,16.3c0,7.2-1.7,12.7-5,16.8c-2.9,3.6-6.9,5.3-11.9,5.3c-5.1,0-9.1-1.8-12-5.3
			C223.1,419.6,221.5,414.1,221.5,407.1z M228.7,406.8c0,4.9,0.9,8.6,2.8,11.1c1.9,2.5,4.2,3.7,6.9,3.7c2.8,0,5.1-1.2,6.9-3.7
			c1.8-2.4,2.7-6.2,2.7-11.2c0-5-0.9-8.6-2.7-11c-1.8-2.4-4.1-3.6-7-3.6s-5.2,1.2-7,3.6C229.6,398.1,228.7,401.8,228.7,406.8z"/>
		<path class="st2" d="M261.1,428.2v-42.7h7.1v35.5h10.2v-35.5h7.1v35.5h10.4v-35.5h7.1v42.7H261.1z"/>
		<path class="st2" d="M310.2,428.2v-42.7h6.7v28.5l14.2-28.5h7.1v42.7h-6.7v-27.9l-14.2,27.9H310.2z"/>
		<path class="st2" d="M345.4,428.2v-42.7h6.7v28.5l14.2-28.5h7.1v42.7h-6.7v-27.9l-14.2,27.9H345.4z M363.7,374.1h3.3
			c-0.2,2.7-0.9,4.8-2.3,6.3c-1.4,1.5-3.1,2.2-5.1,2.2s-3.7-0.7-5.1-2.2c-1.4-1.5-2.2-3.6-2.3-6.3h3.3c0.3,2.8,1.7,4.2,4.2,4.2
			C362.1,378.3,363.5,376.9,363.7,374.1z"/>
	</g>
</g>
</svg>
