<svg version="1.1" id="Capa_1" xmlns="http://www.w3.org/2000/svg" x="0px" y="0px"
	 viewBox="0 0 512 582" style="enable-background:new 0 0 512 582;" xml:space="preserve">
<style type="text/css">
	.st0{fill:#97F5FF;}
	.st1{fill:#7BCCC6;}
	.st2{fill:#FFFFFF;}
	.st3{fill:#FFC709;}
	.st4{fill:#9D2A00;}
	.st5{fill:#E53917;}
</style>
<g id="Background">
	<rect x="1.7" y="-1" class="st0" width="511.6" height="584.8"/>
</g>
<g>
	<path class="st1" d="M121.1,348.9c2.9,10.7,12.6,18.1,23.8,18.1h67.8c-8.6,3.5-16.6,7.1-24,10.6h267.9c6.2-6.7,8.1-16.3,5.1-24.8
		c-3-8.8-10.9-15.1-20.1-16.2c-11.9-1.6-23.8-2.6-35.8-3.2l12.2-58.7c1.4-7.2-0.3-14.8-5.1-20.6c-4.6-5.8-11.7-9.1-19.1-9.1h-6.5
		v-174c0-13.6-11-24.6-24.6-24.6H242.1c-8.7,0-16.7,4.5-21.1,11.9L102.9,254c-3.5,5.8-4.5,12.7-2.6,19.3L121.1,348.9z"/>
	<path class="st2" d="M480.6,373.8l21.4-29.1c5.5-7.5,6.4-17.4,2.2-25.8c-4.2-8.3-12.7-13.6-22-13.6h-91.8l-262.2,0.1H32.6
		C19,305.5,8,316.5,8,330.1v90.4c0,10.9,27.1,20.1,37,23.5c1.7,1.6,3.6,2.9,5.9,3.9l34.3,16.2v45.3c0,10,5.9,18.5,14.5,22.5
		c1.6,1.6,3.5,3,5.5,4.2l53.7,29.5c3.8,2,7.8,3,11.9,3c4.3,0,8.7-1.2,12.6-3.5c7.5-4.5,12.2-12.5,12.2-21.1v-10h32.6
		c2.9,0,5.8-0.6,8.4-1.4c0.1,0,0.3,0,0.3,0c4.6,0,9.1-1.3,13.2-3.8c7.1-4.5,11.4-12.3,11.4-20.9v-62.9h221c9.1,0,17.5-5.1,21.7-13.2
		c4.3-8,3.8-17.8-1.3-25.3L480.6,373.8z"/>
	<path class="st2" d="M151.5,322.8c2.9,10.7,12.6,18.1,23.8,18.1h67.8c-8.6,3.5-16.6,7.1-24,10.6H487c6.2-6.7,8.1-16.3,5.1-24.8
		c-3-8.8-10.9-15.1-20.1-16.2c-11.9-1.6-23.8-2.6-35.8-3.2l12.2-58.7c1.4-7.2-0.3-14.8-5.1-20.6c-4.6-5.8-11.7-9.1-19.1-9.1h-6.5V45
		c0-13.6-11-24.6-24.6-24.6H272.5c-8.7,0-16.7,4.5-21.1,11.9L133.3,228c-3.5,5.8-4.5,12.7-2.6,19.3L151.5,322.8z"/>
	<path class="st3" d="M286.5,316.3c1.4,0,2.5,1.2,2.5,2.5v26.8c30.3-9.3,65.5-16.5,104.4-18.5v-9c0-1.4,1.2-2.5,2.5-2.5h13.8
		l14.8-71.8h-28.7c-1.4,0-2.5-1.2-2.5-2.5V45H272.8L154.7,240.7l20.9,75.6H286.5z M233.5,239.7l51-66.8c0.7-0.9,1.7-1.2,2.8-0.9
		c1,0.3,1.7,1.3,1.7,2.3v66.8c0,1.4-1.2,2.5-2.5,2.5h-51c-1,0-1.9-0.6-2.3-1.4C232.9,241.4,232.9,240.4,233.5,239.7z"/>
	<polygon class="st4" points="170.8,544 170.8,514.3 117.2,514.3 	"/>
	<polygon class="st5" points="110,509.4 228.2,509.4 110,453.8 	"/>
	<polygon class="st4" points="236.8,508 236.8,425.5 61.4,425.5 	"/>
	<path class="st5" d="M451.4,374.7c-0.6-0.9-0.6-2,0-2.9l30.9-41.7H32.7v90.4h449.9L451.4,374.7z"/>
	<g>
		<path class="st2" d="M54.2,398.7H47v-44.8h28.6v44.8h-7.2v-37.3H54.2V398.7z"/>
		<path class="st2" d="M83,398.7v-44.8h11.6c4.3,0,7.2,0.2,8.5,0.6c2.1,0.7,3.9,2.2,5.3,4.4c1.4,2.3,2.1,5.2,2.1,8.7
			c0,3.2-0.6,6-1.8,8.2c-1.2,2.2-2.7,3.7-4.5,4.6c-1.8,0.9-4.9,1.3-9.2,1.3h-4.7v16.9H83z M90.2,361.4v12.8h4c2.7,0,4.5-0.2,5.5-0.6
			c1-0.4,1.8-1.1,2.4-2.1c0.6-1,0.9-2.3,0.9-3.7c0-1.5-0.3-2.7-1-3.8c-0.6-1-1.4-1.7-2.4-2.1c-0.9-0.3-2.9-0.5-5.9-0.5H90.2z"/>
		<path class="st2" d="M114.9,376.5c0-5.3,0.8-9.7,2.3-13.2c1.5-3.5,3.6-6,6-7.7c2.5-1.7,5.5-2.5,9-2.5c5.1,0,9.3,2,12.5,6
			c3.2,4,4.8,9.7,4.8,17.2c0,7.5-1.7,13.4-5.1,17.6c-3,3.7-7.1,5.6-12.2,5.6c-5.2,0-9.3-1.8-12.3-5.5
			C116.6,389.7,114.9,383.9,114.9,376.5z M122.4,376.2c0,5.2,1,9,2.9,11.6c1.9,2.6,4.3,3.9,7.1,3.9c2.8,0,5.2-1.3,7.1-3.8
			c1.9-2.6,2.8-6.5,2.8-11.8c0-5.2-0.9-9-2.7-11.5c-1.8-2.5-4.2-3.7-7.1-3.7c-2.9,0-5.3,1.3-7.2,3.8
			C123.3,367.1,122.4,371,122.4,376.2z"/>
		<path class="st2" d="M182.9,391.1h3.1v17.3h-5.9v-9.8h-22.6v9.8h-5.9v-17.3h3c1.2-3.1,2.1-6.9,2.7-11.4c0.6-4.4,1-11.1,1-19.9v-6
			h24.7V391.1z M175.7,361.4h-10.7c0,13.2-1,23.1-2.9,29.7h13.6V361.4z"/>
		<path class="st2" d="M191,353.8h14.3c3.9,0,6.7,0.4,8.3,1.1c1.6,0.7,2.9,2,4,3.9c1.1,1.9,1.6,4,1.6,6.3c0,2.2-0.5,4.1-1.4,5.9
			c-0.9,1.7-2.2,3-3.7,3.9c2.1,0.8,3.8,2.1,5,4c1.2,1.9,1.8,4.2,1.8,6.9c0,3.3-0.8,6-2.3,8.3c-1.5,2.3-3.3,3.6-5.4,4.2
			c-1.4,0.4-4.8,0.6-10.1,0.6H191V353.8z M198.2,361.3v10.4h4.8c2.9,0,4.6,0,5.3-0.2c1.2-0.2,2.2-0.7,2.9-1.6c0.7-0.9,1-2,1-3.5
			c0-1.3-0.3-2.4-0.8-3.2c-0.6-0.8-1.3-1.3-2.1-1.5c-0.8-0.2-3.1-0.3-6.9-0.3H198.2z M198.2,379.1v12h6.7c2.9,0,4.8-0.2,5.7-0.5
			c0.8-0.3,1.5-0.9,2.1-1.9c0.6-0.9,0.9-2.1,0.9-3.5c0-1.5-0.3-2.7-0.9-3.6c-0.6-0.9-1.4-1.6-2.4-2c-1-0.4-3.1-0.5-6.2-0.5H198.2z"
			/>
		<path class="st2" d="M227.1,398.7v-44.8h6.9v29.9l14.5-29.9h7.2v44.8h-6.9v-29.2l-14.5,29.2H227.1z"/>
		<path class="st2" d="M263.1,398.7v-44.8h7.2v17.6h14.2v-17.6h7.2v44.8h-7.2v-19.6h-14.2v19.6H263.1z"/>
		<path class="st2" d="M308.7,386l-13.2-32.2h8.1l8.3,23.3l7.2-23.3h7.5l-12.1,34.1c-1.5,4.2-2.9,7.1-4.3,8.8
			c-1.4,1.7-3.1,2.5-5,2.5c-1.9,0-3.5-0.2-5-0.6V392c1.2,0.1,2.1,0.1,2.7,0.1c1.8,0,3-0.4,3.7-1.1
			C307.4,390.2,308.1,388.5,308.7,386z"/>
		<path class="st2" d="M338.4,398.7v-37.3h-10.6v-7.6h28.5v7.6h-10.6v37.3H338.4z"/>
		<path class="st2" d="M361,398.7v-44.8h7.2v17.8h10.3c3.8,0,6.8,1.3,9.1,3.8c2.2,2.5,3.4,5.8,3.4,10c0,3.4-0.9,6.4-2.7,9.2
			c-1.8,2.7-5,4.1-9.7,4.1H361z M368.2,379.2v11.8h7.6c2,0,3.4-0.1,4.3-0.4c0.9-0.3,1.7-0.9,2.3-1.9c0.7-1,1-2.2,1-3.5
			c0-4-2.4-6-7.3-6H368.2z M396.6,398.7v-44.8h7.2v44.8H396.6z"/>
		<path class="st2" d="M410.8,398.7v-44.8h6.9v29.9l14.5-29.9h7.2v44.8h-6.9v-29.2l-14.5,29.2H410.8z M429.5,341.9h3.3
			c-0.2,2.9-1,5.1-2.4,6.6c-1.4,1.5-3.1,2.3-5.2,2.3c-2.1,0-3.8-0.8-5.2-2.3c-1.4-1.5-2.2-3.7-2.4-6.6h3.3c0.3,2.9,1.7,4.4,4.3,4.4
			S429.3,344.9,429.5,341.9z"/>
	</g>
</g>
</svg>
