<svg version="1.1" id="Capa_1" xmlns="http://www.w3.org/2000/svg" x="0px" y="0px"
	 viewBox="0 0 512 582" style="enable-background:new 0 0 512 582;" xml:space="preserve">
<style type="text/css">
	.st0{fill:#97F5FF;}
	.st1{fill:#7BCCC6;}
	.st2{fill:#FFFFFF;}
	.st3{fill:#3E9117;}
	.st4{fill:#FFC709;}
	.st5{fill:#4CBC1D;}
</style>
<g id="Background">
	<rect x="1.7" y="-1" class="st0" width="511.6" height="584.8"/>
</g>
<g>
	<path class="st1" d="M45.2,452.4c3.1,5.5,8.3,9.5,14.5,11c1.2,0.3,2.5,0.5,3.7,0.5c-6.8,7.1-8.6,17.7-4,26.7l22.9,44.6
		c3.1,6.1,9,10.6,15.8,12.1c1.6,0.3,3.3,0.5,4.8,0.5c0.5,0,1,0,1.5,0c1.8,0.4,3.5,0.7,5.5,0.7c0.7,0,1.2,0,1.9-0.1
		c7.6-0.7,20-1.4,34.9-1.4c56.3,0,100.1,10.5,123.3,29.5c4.2,3.5,9.4,5.3,14.7,5.3c3.4,0,6.7-0.7,10-2.2c8.2-3.8,13.2-12,13.2-21
		v-15.4l19.8-12c3.8-2.3,6.8-5.7,8.9-9.7c10.9,6,21.7,13.2,32.2,21.4c4.1,3.3,9.1,4.9,14.3,4.9c1.8,0,3.5-0.1,5.3-0.5
		c6.8-1.6,12.5-6.1,15.7-12.5l21.6-44.6c4.4-9.1,2.3-19.9-4.9-26.9c0-0.1-0.1-0.3-0.1-0.4c3.3-0.1,6.7-1.1,9.7-2.7
		c7.5-4.1,12.3-11.9,12.3-20.5v-19.4l17.6-8.5c7.4-3.5,12.4-10.6,13.1-18.8c0.8-8.2-2.7-16.1-9.4-20.9
		c-9.8-7.2-47.2-32.9-103.1-50.6c12.7-28.6,25.1-77.3-4.9-124c-16.1-25-35.2-39.4-53.1-47.5c9,0,16.1,0.1,18.5,0.1
		c0.1,0,0.1,0,0.3,0c11.2,0,20.7-7.9,22.8-19l13.8-73.9c1.2-6.8-0.5-13.8-4.9-19.1c-4.4-5.3-10.9-8.3-17.9-8.3H184.5
		c-10.8,0-20.2,7.5-22.6,18L122,223c-1.6,7,0.1,14.2,4.5,19.6c2.9,3.5,6.7,6.1,10.8,7.5c-3.3,3-5.6,7-6.7,11.3L114,328.9
		c-29.9,10.9-59.3,25.6-88.5,43.9c-10.5,6.5-13.9,20.3-7.9,31.1L45.2,452.4z"/>
	<path class="st2" d="M72.4,430.9c3.1,5.5,8.3,9.5,14.5,11c1.2,0.3,2.5,0.5,3.7,0.5c-6.8,7.1-8.6,17.7-4,26.7l22.9,44.6
		c3.1,6.1,9,10.6,15.8,12.1c1.6,0.3,3.3,0.5,4.8,0.5c0.5,0,1,0,1.5,0c1.8,0.4,3.5,0.7,5.5,0.7c0.7,0,1.2,0,1.9-0.1
		c7.6-0.7,20-1.4,34.9-1.4c56.3,0,100.1,10.5,123.3,29.5c4.2,3.5,9.4,5.3,14.7,5.3c3.4,0,6.7-0.7,10-2.2c8.2-3.8,13.2-12,13.2-21
		v-15.5l19.8-12c3.8-2.3,6.8-5.7,8.9-9.7c10.9,6,21.7,13.2,32.2,21.4c4.1,3.3,9.1,4.9,14.3,4.9c1.8,0,3.5-0.1,5.3-0.5
		c6.8-1.6,12.5-6.1,15.7-12.5l21.6-44.6c4.4-9.1,2.3-19.9-4.9-26.9c0-0.1-0.1-0.3-0.1-0.4c3.3-0.1,6.7-1.1,9.7-2.7
		c7.5-4.1,12.3-11.9,12.3-20.5V399l17.6-8.5c7.4-3.5,12.4-10.6,13.1-18.8c0.8-8.2-2.7-16.1-9.4-20.9c-9.8-7.2-47.2-32.9-103.1-50.6
		c12.7-28.6,25.1-77.3-4.9-124c-16.1-25-35.2-39.4-53.1-47.5c9,0,16.1,0.1,18.5,0.1c0.1,0,0.1,0,0.3,0c11.2,0,20.7-7.9,22.8-19
		L385.3,36c1.2-6.8-0.5-13.8-4.9-19.1c-4.4-5.3-10.9-8.3-17.9-8.3h-151c-10.8,0-20.2,7.5-22.6,18l-39.7,174.7
		c-1.6,7,0.1,14.2,4.5,19.6c2.9,3.5,6.7,6.1,10.8,7.5c-3.3,3-5.6,7-6.7,11.3l-16.6,67.4c-29.9,10.9-59.3,25.6-88.5,43.9
		c-10.5,6.5-13.9,20.3-7.9,31.1L72.4,430.9z M197.9,229.8c24.1,0.4,43.1,1.6,53.7,3.5c0.8,0.1,3.4,4.2,2.9,9c-0.5,5.7-4,6.3-7.8,6.3
		C224.6,248.5,205.9,236.1,197.9,229.8z"/>
	<path class="st3" d="M311.9,537v-27c0-0.8,0.4-1.6,1.1-2l29.7-18.1c-7-6.5-32.9-27.6-87.4-32.3c-58.2,5-102.6,34.4-118.3,46.2
		C165.7,501.4,263.1,496.9,311.9,537z"/>
	<path class="st4" d="M246.7,271.7c-32.3,0-57.8-19.1-66.4-26.3l-18.4,74.2c37.5-12.3,75.6-18.4,113.6-18.4
		c29.3,0,56.3,3.7,80.5,9.4c5.9-9,41.7-68.3,7.4-121.8c-37.1-57.6-91.1-45.8-93.4-45.4c-0.5,0.1-1,0-1.5-0.1c-6-2.6-11-16-9.5-25.1
		c1.1-7,5.6-11,12.7-11.6c16.4-1.4,66.3-1,77.2-0.8l13.8-73.9h-151l-39.8,174.4c12.5-0.1,60.4-0.1,83.9,4
		c15.4,2.7,23.3,19.4,22,33.8C276.6,257,267.8,271.7,246.7,271.7z"/>
	<path class="st5" d="M130.2,503.2c10.9-8.7,59.1-44.3,124.3-50.2c0.3-0.1,0.7-0.1,1.1-0.1h0.1c5.5-0.4,10.9-0.8,16.6-0.8
		c48.1,0,94.5,17.2,137.8,51.1l21.6-44.6c-9.8-8.3-73.4-58.6-161.6-58.6c-55.8,0-110.5,19.8-162.6,58.6L130.2,503.2z"/>
	<path class="st3" d="M269.9,395.1c74.9,0,132.3,35.6,155.2,52.4c-12-17.5-38.2-50.6-75-67.5c-23.5-6-47.7-9-72.6-9
		c-65.3,0-121.1,21-153.7,36.8c31-10,80.1-20.7,131.8-12C260.3,395.4,265.1,395.1,269.9,395.1z"/>
	<path class="st5" d="M277.5,366.2c25.4,0,50.1,3.1,74.1,9.3h0.1l0,0c33.1,8.5,64.8,22.8,94.7,42.8v-32.5c0-1,0.5-1.8,1.4-2.2
		l29.5-14c-15.8-11.6-92.7-63.6-201.6-63.6c-71.1,0-142,21.8-210.5,64.8l27.6,48.6C106.1,410.8,181.8,366.2,277.5,366.2z"/>
	<g>
		<path class="st2" d="M210.3,347.2l6.8,2.6c-1.1,4.7-2.8,8.2-5.3,10.4c-2.5,2.2-5.5,3.3-9.1,3.3c-4.5,0-8.2-1.7-11-5.2
			c-3.2-4-4.8-9.4-4.8-16.2c0-7.2,1.6-12.8,4.9-16.9c2.8-3.5,6.6-5.3,11.4-5.3c3.9,0,7.1,1.3,9.7,4c1.9,1.9,3.2,4.7,4.1,8.4l-6.9,2
			c-0.4-2.3-1.3-4-2.6-5.3c-1.3-1.2-2.9-1.8-4.7-1.8c-2.6,0-4.6,1.1-6.3,3.3c-1.6,2.2-2.4,5.9-2.4,11c0,5.3,0.8,9.1,2.4,11.3
			c1.6,2.2,3.6,3.4,6.1,3.4c1.8,0,3.4-0.7,4.8-2.1C208.7,352.6,209.7,350.3,210.3,347.2z"/>
		<path class="st2" d="M232.2,350.8l-12.7-30.3h7.8l8,21.9l7-21.9h7.2l-11.7,32.1c-1.4,3.9-2.8,6.7-4.2,8.3c-1.3,1.6-3,2.4-4.8,2.4
			c-1.8,0-3.4-0.2-4.8-0.5v-6.3c1.2,0.1,2,0.1,2.6,0.1c1.7,0,2.9-0.4,3.6-1.1C230.9,354.8,231.6,353.2,232.2,350.8z"/>
		<path class="st2" d="M260.1,362.7h-7v-42.2h27.6v42.2h-7v-35.1h-13.7V362.7z"/>
		<path class="st2" d="M288,362.7v-42.2h25.7v7.1H295v9.4h17.4v7.1H295v11.5h19.4v7.1H288z"/>
		<path class="st2" d="M320.2,362.7v-42.2h11.2c4.2,0,6.9,0.2,8.2,0.6c2.1,0.7,3.7,2,5.1,4.2c1.3,2.1,2,4.9,2,8.2
			c0,3.1-0.6,5.6-1.7,7.7c-1.2,2.1-2.6,3.5-4.3,4.3c-1.7,0.8-4.7,1.3-8.9,1.3h-4.6v15.9H320.2z M327.2,327.7v12h3.9
			c2.6,0,4.4-0.2,5.3-0.5c0.9-0.4,1.7-1,2.3-2c0.6-1,0.9-2.1,0.9-3.5c0-1.4-0.3-2.6-0.9-3.6c-0.6-1-1.4-1.6-2.3-1.9
			c-0.9-0.3-2.8-0.5-5.7-0.5H327.2z"/>
	</g>
</g>
</svg>
