
<svg id="Capa_1" xmlns="http://www.w3.org/2000/svg" x="0px" y="0px"
     viewBox="0 0 511.6 584.8" width="511.6" height="584.8" style="enable-background:new 0 0 512 582;" xml:space="preserve">
<style type="text/css">
	.st0{fill:#97F5FF;}
	.st1{fill:#7BCCC6;}
	.st2{fill:#FFFFFF;}
	.st3{fill:#FFC709;}
	.st4{fill:#3C8DA0;}
	.st5{fill:#51B4B6;}
	.st6{fill:#6AEAEA;}
</style>
<g id="Background">
	<rect x="1.7" y="-1" class="st0" width="511.6" height="584.8"/>
</g>
<g>
	<path class="st1" d="M464,462.2l-32.2-13.3c3.1-3.1,5.3-7.1,6.3-11.8l14.1-70.3c1.2-6.4-0.3-13.3-4.2-18.5c-3-4-7.1-6.8-11.8-8.3
		c-1.6-1.6-3.7-3-5.9-4.1l-53.9-27c7.3-19.4,12.3-42.6,10.4-67.2c-3.7-45.3-31.7-70.5-51.9-82.9l40-88.8c3.3-7.3,2.6-15.6-1.6-22.2
		s-11.6-10.7-19.6-10.7H171.5c-10.4,0-19.6,7-22.4,17l-21.5,76.5c-1.9,7-0.5,14.5,3.8,20.4c4.4,5.7,11.2,9.2,18.6,9.2h34.2
		l-21.5,48.6c-1.2,2.6-1.8,5.5-1.9,8.2l-92.6-42.7c-3.1-1.5-6.4-2.2-9.7-2.2c-4.9,0-9.9,1.6-14,4.7c-6.8,5.2-10.3,13.7-9,22.2
		l4.5,29.3l-21.6,16.7c-6.6,5.1-10,13.1-8.9,21.3c1.1,8.2,6.4,15.2,14,18.5l65.3,27.6c-5.7,3.3-10.1,8.9-11.5,15.9l-14.1,71.8
		c-1.2,6.4,0.3,13.3,4.2,18.5c3.6,4.7,8.8,7.8,14.5,8.9c1.9,1.8,4.1,3.1,6.6,4.2l339,144.8c2.9,1.2,6,1.9,9.2,1.9
		c5.1,0,10.1-1.6,14.2-4.9c6.7-5.2,10-13.5,8.8-21.9l-4.9-31.9l18.2-20.5c4.9-5.6,7-13.3,5.2-20.7C476.1,471.1,471,465.1,464,462.2z
		"/>
	<path class="st2" d="M491.1,440.4L459,427.2c3.1-3.1,5.3-7.1,6.3-11.8l14.1-70.3c1.2-6.4-0.3-13.3-4.2-18.5c-3-4-7.1-6.8-11.8-8.3
		c-1.6-1.6-3.7-3-5.9-4.1l-53.9-27c7.3-19.4,12.3-42.6,10.4-67.2c-3.7-45.3-31.7-70.5-51.9-82.9l40-88.8c3.3-7.3,2.6-15.6-1.6-22.2
		s-11.6-10.7-19.6-10.7H198.6c-10.4,0-19.6,7-22.4,17l-21.5,76.5c-1.9,7-0.5,14.5,3.8,20.4c4.4,5.7,11.2,9.2,18.6,9.2h34.2
		L189.8,187c-1.2,2.6-1.8,5.5-1.9,8.2l-92.6-42.7c-3.1-1.5-6.4-2.2-9.7-2.2c-4.9,0-9.9,1.6-14,4.7c-6.8,5.2-10.3,13.7-9,22.2
		l4.5,29.3l-21.6,16.7c-6.6,5.1-10,13.1-8.9,21.3c1.1,8.2,6.4,15.2,14,18.5l65.3,27.6c-5.7,3.3-10.1,8.9-11.5,15.9l-14.1,71.8
		c-1.2,6.4,0.3,13.3,4.2,18.5c3.6,4.7,8.8,7.8,14.5,8.9c1.9,1.8,4.1,3.1,6.6,4.2l339,144.8c2.9,1.2,6,1.9,9.2,1.9
		c5.1,0,10.1-1.6,14.2-4.9c6.7-5.2,10-13.5,8.8-21.9l-4.9-31.9l18.2-20.5c4.9-5.6,7-13.3,5.2-20.7
		C503.3,449.3,498.1,443.3,491.1,440.4z M242.6,216.9c14.6,0,21.6,2.7,23.5,4.2c1.2,1,2.9,5.2,2.7,11.5L235.1,217
		C237.6,216.9,240,216.9,242.6,216.9z"/>
	<path class="st3" d="M283.3,262.3L283.3,262.3c-0.1,0.1-0.1,0.3-0.3,0.4c-6.6,10.3-16.1,17.1-27.5,18.9c-28.9,4.5-47.6-9.6-54-15.6
		l-20.9,45l175.3,15.7c5.5-7.1,39.4-53.2,35.2-104.8c-4.5-55.4-56.2-72.7-56.8-72.9c-0.7-0.3-1.1-0.7-1.4-1.2
		c-0.3-0.5-0.3-1.4,0-1.9L381,38.7H198.7l-21.5,76.5h66.2c0.8,0,1.5,0.4,1.9,1.1c0.4,0.7,0.5,1.5,0.1,2.2L211,196.3
		c13.4-2.3,53-7.5,70.1,6.8c10.3,8.6,13.8,26.3,8.8,44.1C288.3,253,286.1,257.9,283.3,262.3z"/>
	<path class="st4" d="M198.6,260.9c0.3-0.7,1-1.2,1.8-1.4c0.8-0.1,1.6,0.1,2.1,0.8c0.1,0.3,19.3,21.8,52.3,16.6
		c9.2-1.5,17.1-6.7,22.8-14.5L85.4,173.6l6.4,41.6c0.1,0.8-0.3,1.6-1,2.2l-31.5,24.2L183.1,294L198.6,260.9z"/>
	<path class="st5" d="M377.7,300.2c-6.4,12.7-13,22.3-16.4,27.1l85.9,7.7L377.7,300.2z"/>
	<path class="st4" d="M482.2,461.9l-130.5-54.2l-227.3-19.3l339,144.9l-6.4-41.6c-0.1-0.7,0.1-1.4,0.5-1.9L482.2,461.9z"/>
	<path class="st6" d="M456.6,340.5l-279.8-25l0,0L127,311l-14.2,71.8l329.6,28L456.6,340.5z"/>
	<g>
		<path class="st2" d="M140.8,360.5l-10.5-31.3l7.8,0.6l6.4,22.5l8.6-21.4l7.2,0.5l-14.1,31.2c-1.7,3.8-3.3,6.5-4.8,8
			c-1.5,1.5-3.1,2.2-5,2c-1.8-0.1-3.4-0.4-4.8-0.9l0.5-6.3c1.1,0.2,2,0.3,2.6,0.3c1.7,0.1,2.9-0.1,3.6-0.8
			C139.2,364.4,139.9,362.9,140.8,360.5z"/>
		<path class="st2" d="M163.9,331.8l13.9,1.1c3.8,0.3,6.4,0.8,7.9,1.6c1.5,0.8,2.7,2.1,3.6,4c0.9,1.8,1.3,3.8,1.1,6.1
			c-0.2,2-0.7,3.8-1.8,5.4c-1,1.6-2.3,2.7-3.8,3.4c2,0.9,3.5,2.3,4.5,4.1c1,1.9,1.4,4,1.3,6.6c-0.2,3.1-1.2,5.6-2.8,7.6
			c-1.6,2-3.5,3.2-5.5,3.5c-1.4,0.2-4.7,0.2-9.8-0.2l-11.8-0.9L163.9,331.8z M169.1,356.2l-0.9,11.3l6.5,0.5c2.8,0.2,4.7,0.2,5.5,0
			c0.8-0.2,1.6-0.8,2.2-1.6c0.6-0.8,1-1.9,1.1-3.3c0.1-1.4-0.1-2.5-0.6-3.5c-0.5-0.9-1.3-1.6-2.2-2c-0.9-0.4-2.9-0.7-5.9-1
			L169.1,356.2z M170.3,339.4l-0.7,9.8l4.6,0.3c2.8,0.2,4.5,0.3,5.1,0.2c1.2-0.1,2.2-0.5,2.9-1.3c0.7-0.8,1.2-1.8,1.3-3.3
			c0.1-1.2-0.1-2.3-0.6-3.1c-0.5-0.8-1.1-1.4-1.9-1.6c-0.8-0.2-3-0.5-6.7-0.8L170.3,339.4z"/>
		<path class="st2" d="M195.7,376.7l3.2-42.2l25.7,1.9l-0.5,7.1l-18.7-1.4l-0.7,9.4l17.4,1.3l-0.5,7.1l-17.4-1.3l-0.9,11.5l19.4,1.5
			l-0.5,7.1L195.7,376.7z"/>
		<path class="st2" d="M227.9,379.1l3.2-42.2l11.2,0.9c4.2,0.3,6.9,0.7,8.2,1.2c2,0.8,3.6,2.3,4.8,4.6c1.2,2.2,1.6,5,1.4,8.4
			c-0.2,3.1-1,5.6-2.3,7.5c-1.3,2-2.9,3.3-4.7,4c-1.8,0.7-4.8,0.9-9,0.6l-4.6-0.3l-1.2,15.9L227.9,379.1z M237.5,344.6l-0.9,12
			l3.9,0.3c2.6,0.2,4.4,0.1,5.3-0.1c1-0.3,1.8-0.9,2.4-1.8c0.7-0.9,1.1-2.1,1.2-3.4c0.1-1.4-0.1-2.6-0.7-3.6c-0.5-1-1.3-1.7-2.1-2.1
			c-0.9-0.4-2.8-0.7-5.7-0.9L237.5,344.6z"/>
		<path class="st2" d="M260.2,381.6l3.2-42.2l25.7,1.9l-0.5,7.1l-18.7-1.4l-0.7,9.4l17.4,1.3l-0.5,7.1l-17.4-1.3l-0.9,11.5l19.4,1.5
			l-0.5,7.1L260.2,381.6z"/>
		<path class="st2" d="M292.4,384l3.2-42.2l7,0.5l-1.3,16.6l13.7,1l1.3-16.6l7,0.5l-3.2,42.2l-7-0.5l1.4-18.5l-13.7-1l-1.4,18.5
			L292.4,384z"/>
		<path class="st2" d="M327.4,386.7l3.2-42.2l7,0.5l-1.3,16.6l13.7,1l1.3-16.6l7,0.5l-3.2,42.2l-7-0.5l1.4-18.5l-13.7-1l-1.4,18.5
			L327.4,386.7z"/>
		<path class="st2" d="M362.4,389.4l3.2-42.2l7,0.5l-1.3,16.8l9.9,0.8c3.7,0.3,6.5,1.7,8.5,4.2c2,2.5,2.8,5.7,2.5,9.6
			c-0.2,3.2-1.3,6-3.3,8.4c-1.9,2.5-5.2,3.5-9.6,3.2L362.4,389.4z M370.8,371.6l-0.8,11.1l7.4,0.6c1.9,0.1,3.3,0.1,4.2-0.1
			c0.9-0.2,1.7-0.7,2.4-1.7c0.7-0.9,1.1-2,1.2-3.2c0.3-3.7-1.9-5.8-6.6-6.2L370.8,371.6z M396.8,392l3.2-42.2l7,0.5l-3.2,42.2
			L396.8,392z"/>
		<path class="st2" d="M410.5,393l3.2-42.2l6.7,0.5l-2.1,28.1l16.2-27.1l7,0.5l-3.2,42.2l-6.7-0.5l2.1-27.5l-16.1,26.5L410.5,393z
			 M432.7,340.9l3.2,0.2c-0.4,2.7-1.3,4.7-2.8,6c-1.5,1.3-3.2,1.9-5.2,1.8c-2-0.2-3.6-1-4.9-2.6c-1.2-1.6-1.9-3.7-1.8-6.4l3.2,0.2
			c0,2.8,1.3,4.3,3.8,4.5S432.2,343.7,432.7,340.9z"/>
	</g>
</g>
</svg>
