<svg version="1.1" id="Layer_1" xmlns="http://www.w3.org/2000/svg" x="0px" y="0px"
	 viewBox="0 0 3271.9 1758.2" style="enable-background:new 0 0 3271.9 1758.2;" xml:space="preserve">
<style type="text/css">
	.st0{opacity:0.5;fill-rule:evenodd;clip-rule:evenodd;fill:#BB6CE9;}
	.st1{fill-rule:evenodd;clip-rule:evenodd;fill:#F95DB0;}
	.st2{fill-rule:evenodd;clip-rule:evenodd;fill:url(#SVGID_1_);}
	.st3{fill-rule:evenodd;clip-rule:evenodd;fill:#F4F9FF;}
	.st4{fill-rule:evenodd;clip-rule:evenodd;fill:#FB85B6;}
	.st5{opacity:0.5;fill-rule:evenodd;clip-rule:evenodd;fill:#F95DB0;}
	.st6{fill-rule:evenodd;clip-rule:evenodd;fill:#955CF1;}
	.st7{fill-rule:evenodd;clip-rule:evenodd;fill:url(#SVGID_2_);}
	.st8{fill-rule:evenodd;clip-rule:evenodd;fill:#CC74E5;}
	.st9{fill-rule:evenodd;clip-rule:evenodd;fill:url(#SVGID_3_);}
	.st10{opacity:0.5;fill-rule:evenodd;clip-rule:evenodd;fill:#955CF1;}
	.st11{fill-rule:evenodd;clip-rule:evenodd;fill:#1C8DF3;}
	.st12{fill-rule:evenodd;clip-rule:evenodd;fill:url(#SVGID_4_);}
	.st13{fill-rule:evenodd;clip-rule:evenodd;fill:#E8F3FF;}
	.st14{fill-rule:evenodd;clip-rule:evenodd;fill:#159EED;}
	.st15{opacity:0.5;fill-rule:evenodd;clip-rule:evenodd;fill:#1C8DF3;}
	.st16{fill-rule:evenodd;clip-rule:evenodd;fill:url(#SVGID_5_);}
	.st17{fill-rule:evenodd;clip-rule:evenodd;fill:url(#SVGID_6_);}
	.st18{fill-rule:evenodd;clip-rule:evenodd;fill:#4A9FF8;}
	.st19{fill-rule:evenodd;clip-rule:evenodd;fill:#4C68E5;}
	.st20{opacity:0.5;fill-rule:evenodd;clip-rule:evenodd;fill:url(#SVGID_7_);}
	.st21{fill-rule:evenodd;clip-rule:evenodd;fill:#D0E7FF;}
	.st22{fill-rule:evenodd;clip-rule:evenodd;fill:#FFFFFF;}
	.st23{fill-rule:evenodd;clip-rule:evenodd;fill:url(#SVGID_8_);}
	.st24{fill-rule:evenodd;clip-rule:evenodd;fill:#0A3C5F;}
	.st25{fill-rule:evenodd;clip-rule:evenodd;fill:#1466A0;}
	.st26{fill-rule:evenodd;clip-rule:evenodd;fill:#DAEAFA;}
	.st27{fill-rule:evenodd;clip-rule:evenodd;fill:#B4CCE5;}
	.st28{fill-rule:evenodd;clip-rule:evenodd;fill:url(#SVGID_9_);}
	.st29{fill-rule:evenodd;clip-rule:evenodd;fill:url(#SVGID_10_);}
	.st30{fill-rule:evenodd;clip-rule:evenodd;fill:url(#SVGID_11_);}
	.st31{fill-rule:evenodd;clip-rule:evenodd;fill:url(#SVGID_12_);}
	.st32{fill-rule:evenodd;clip-rule:evenodd;fill:url(#SVGID_13_);}
	.st33{fill-rule:evenodd;clip-rule:evenodd;fill:url(#SVGID_14_);}
	.st34{fill-rule:evenodd;clip-rule:evenodd;fill:url(#SVGID_15_);}
	.st35{fill-rule:evenodd;clip-rule:evenodd;fill:url(#SVGID_16_);}
	.st36{fill-rule:evenodd;clip-rule:evenodd;fill:url(#SVGID_17_);}
	.st37{fill-rule:evenodd;clip-rule:evenodd;fill:url(#SVGID_18_);}
	.st38{fill-rule:evenodd;clip-rule:evenodd;fill:url(#SVGID_19_);}
	.st39{fill-rule:evenodd;clip-rule:evenodd;fill:#562E65;}
	.st40{fill-rule:evenodd;clip-rule:evenodd;fill:url(#SVGID_20_);}
	.st41{fill-rule:evenodd;clip-rule:evenodd;fill:url(#SVGID_21_);}
	.st42{fill-rule:evenodd;clip-rule:evenodd;fill:#3FAFF6;}
	.st43{fill-rule:evenodd;clip-rule:evenodd;fill:#FFA698;}
	.st44{fill-rule:evenodd;clip-rule:evenodd;fill:#0A080D;}
	.st45{fill-rule:evenodd;clip-rule:evenodd;fill:url(#SVGID_22_);}
	.st46{fill-rule:evenodd;clip-rule:evenodd;fill:url(#SVGID_23_);}
	.st47{opacity:0.5;fill-rule:evenodd;clip-rule:evenodd;fill:#FFFFFF;}
	.st48{opacity:0.5;fill-rule:evenodd;clip-rule:evenodd;fill:url(#SVGID_24_);}
	.st49{fill-rule:evenodd;clip-rule:evenodd;fill:#DFEBFF;}
	.st50{fill-rule:evenodd;clip-rule:evenodd;fill:url(#SVGID_25_);}
	.st51{fill-rule:evenodd;clip-rule:evenodd;fill:url(#SVGID_26_);}
	.st52{fill-rule:evenodd;clip-rule:evenodd;fill:#9ED7FA;}
	.st53{fill-rule:evenodd;clip-rule:evenodd;fill:url(#SVGID_27_);}
	.st54{fill-rule:evenodd;clip-rule:evenodd;fill:url(#SVGID_28_);}
	.st55{fill-rule:evenodd;clip-rule:evenodd;fill:url(#SVGID_29_);}
	.st56{fill-rule:evenodd;clip-rule:evenodd;fill:#22043D;}
	.st57{fill-rule:evenodd;clip-rule:evenodd;fill:url(#SVGID_30_);}
	.st58{fill-rule:evenodd;clip-rule:evenodd;fill:#FF8978;}
	.st59{fill-rule:evenodd;clip-rule:evenodd;fill:url(#SVGID_31_);}
	.st60{fill-rule:evenodd;clip-rule:evenodd;fill:url(#SVGID_32_);}
	.st61{opacity:0.5;fill-rule:evenodd;clip-rule:evenodd;fill:#7E41DF;}
	.st62{fill-rule:evenodd;clip-rule:evenodd;fill:#161F69;}
	.st63{fill-rule:evenodd;clip-rule:evenodd;fill:url(#SVGID_33_);}
	.st64{opacity:0.3;fill-rule:evenodd;clip-rule:evenodd;fill:#1E2353;}
	.st65{fill-rule:evenodd;clip-rule:evenodd;fill:url(#SVGID_34_);}
	.st66{fill-rule:evenodd;clip-rule:evenodd;fill:url(#SVGID_35_);}
	.st67{fill-rule:evenodd;clip-rule:evenodd;fill:url(#SVGID_36_);}
	.st68{fill-rule:evenodd;clip-rule:evenodd;fill:url(#SVGID_37_);}
	.st69{fill-rule:evenodd;clip-rule:evenodd;fill:url(#SVGID_38_);}
	.st70{fill-rule:evenodd;clip-rule:evenodd;fill:url(#SVGID_39_);}
	.st71{fill-rule:evenodd;clip-rule:evenodd;fill:#FF8F7F;}
	.st72{fill-rule:evenodd;clip-rule:evenodd;fill:#6A69DA;}
	.st73{fill-rule:evenodd;clip-rule:evenodd;fill:url(#SVGID_40_);}
	.st74{fill-rule:evenodd;clip-rule:evenodd;fill:url(#SVGID_41_);}
	.st75{opacity:0.5;fill-rule:evenodd;clip-rule:evenodd;fill:url(#SVGID_42_);}
	.st76{fill-rule:evenodd;clip-rule:evenodd;fill:url(#SVGID_43_);}
	.st77{fill-rule:evenodd;clip-rule:evenodd;fill:#783FD3;}
	.st78{fill-rule:evenodd;clip-rule:evenodd;fill:#864DE2;}
	.st79{fill-rule:evenodd;clip-rule:evenodd;fill:url(#SVGID_44_);}
	.st80{opacity:0.2;fill-rule:evenodd;clip-rule:evenodd;fill:#6D6AFD;}
	.st81{fill-rule:evenodd;clip-rule:evenodd;fill:url(#SVGID_45_);}
	.st82{fill-rule:evenodd;clip-rule:evenodd;fill:url(#SVGID_46_);}
	.st83{fill-rule:evenodd;clip-rule:evenodd;fill:#D477E4;}
	.st84{fill-rule:evenodd;clip-rule:evenodd;fill:url(#SVGID_47_);}
</style>
<g>
	<path class="st0" d="M3020.6,1417.2l-528-291.5c-17.5-8-43.3-15.5-60.4-5.1l-365.9,211.4c-9,5.2-37.9,23.3-18.5,33.8
		c57.2,31.1,475.5,270.1,533.6,301.7c11,6,27.1,8.1,43.9,6.7c16.8-1.4,34.2-5.9,47.6-14.2l342.8-198.8c12.4-7.7,19.3-16,19.9-24
		C3036.4,1429.4,3031.3,1422.1,3020.6,1417.2z"/>
	<g>
		<g>
			<polygon class="st1" points="2475,1118.5 2995.8,1421.2 2978.4,1442.7 2460.8,1126.7 			"/>
			<linearGradient id="SVGID_1_" gradientUnits="userSpaceOnUse" x1="2418.8774" y1="1484.6445" x2="2485.335" y2="1383.7557">
				<stop  offset="0" style="stop-color:#FA5DB1"/>
				<stop  offset="1" style="stop-color:#FEBFBF"/>
			</linearGradient>
			<path class="st2" d="M2639.1,1540.7c-21.1,28.3-45.3,90.6-27.6,112.1l-520.8-302.7c-41.1-30.7,3.2-112.5,36-121.6l348-200.9
				l520.8,302.7l-28.1,22.1L2639.1,1540.7z"/>
			<g>
				<path class="st3" d="M2646.5,1547.7l335.4-192.7l-0.3,74.4l-326.4,199.1c-25.1,14.6-39.9,5.2-42.7-11.8
					C2608.9,1595,2623.3,1561.1,2646.5,1547.7z"/>
				<path class="st4" d="M2611.3,1569.5c9.3-16.1,22.1-30.2,36.2-38.3l348-200.9l0,27l-14.2,8.2l-333.8,192.7
					c-7.6,4.4-14.5,12-19.6,20.7c-5,8.8-8.1,18.5-8.1,27.3c0,8.8,3.2,14.9,8.2,17.8c5.1,2.9,12,2.5,19.7-2l333.8-192.7l14.2-8.2
					l0.1,27l-348,200.9c-14.1,8.2-27,8.9-36.4,3.7c-9.3-5.4-15.1-16.8-15.1-33C2596.4,1603.5,2602.1,1585.4,2611.3,1569.5z"/>
			</g>
		</g>
		<path class="st5" d="M2476,1042.9L2116.9,1235c-2.2,3.5-2.3,6.9,2.7,9.6c37.6,20.4,443.9,252.3,482.1,273.1
			c7.2,3.9,17.8,5.3,28.9,4.4c11-0.9,22.3-4.2,31.3-9.3l327.7-185.8l-36.7-21.5L2476,1042.9z"/>
		<g>
			<polygon class="st6" points="2475,968 2995.8,1270.7 2978.4,1292.3 2460.8,976.2 			"/>
			<linearGradient id="SVGID_2_" gradientUnits="userSpaceOnUse" x1="2430.6606" y1="1344.762" x2="2505.5183" y2="1212.1581">
				<stop  offset="0" style="stop-color:#965CF2"/>
				<stop  offset="1" style="stop-color:#FF8ADC"/>
			</linearGradient>
			<path class="st7" d="M2639.1,1390.3c-21.1,28.3-45.3,90.6-27.6,112.1l-520.8-302.7c-41.1-30.7,3.2-112.5,36-121.6l348-200.9
				l520.8,302.7l-28.1,22.1L2639.1,1390.3z"/>
			<path class="st3" d="M2646.5,1397.2l335.4-192.7l-0.3,74.4l-326.4,199.1c-25.1,14.6-39.9,5.2-42.7-11.8
				C2608.9,1444.5,2623.3,1410.7,2646.5,1397.2z"/>
			<path class="st8" d="M2611.3,1419c9.3-16.1,22.1-30.2,36.2-38.3l348-200.9l0,27l-14.2,8.2l-333.8,192.7
				c-7.6,4.4-14.5,12-19.6,20.7c-5,8.8-8.1,18.5-8.1,27.3c0,8.8,3.2,14.9,8.2,17.8c5.1,2.9,12,2.5,19.7-2l333.8-192.7l14.2-8.2
				l0.1,27l-348,200.9c-14.1,8.2-27,8.9-36.4,3.7c-9.3-5.4-15.1-16.8-15.1-33C2596.4,1453.1,2602.1,1435,2611.3,1419z"/>
			<linearGradient id="SVGID_3_" gradientUnits="userSpaceOnUse" x1="2718.9106" y1="1482.8768" x2="2694.0271" y2="1423.4086">
				<stop  offset="0" style="stop-color:#A77EF7"/>
				<stop  offset="1" style="stop-color:#5E65D6"/>
			</linearGradient>
			<path class="st9" d="M2753.2,1449.7v74.4l-24.5-14.8l-31.6,46.6v-73.3c-0.2-0.5-0.3-1-0.3-1.6c-1.6-20.1-18.9-44.6-31.8-48.2
				l57.5-33.9C2736.2,1402.8,2753.6,1428.8,2753.2,1449.7L2753.2,1449.7z"/>
		</g>
		<path class="st10" d="M2474.4,891.6l-359.1,192.1c-2.2,3.5-2.3,6.9,2.7,9.6c37.6,20.4,443.9,252.3,482.1,273.1
			c7.2,3.9,17.8,5.3,28.9,4.4c11-0.9,22.3-4.2,31.3-9.3l327.7-185.8l-36.7-21.5L2474.4,891.6z"/>
		<g>
			<polygon class="st11" points="2475,812.1 2995.8,1114.8 2978.4,1136.3 2460.8,820.3 			"/>
			<linearGradient id="SVGID_4_" gradientUnits="userSpaceOnUse" x1="2436.4304" y1="1159.1625" x2="2492.1711" y2="1070.6326">
				<stop  offset="0" style="stop-color:#1C8EF4"/>
				<stop  offset="1" style="stop-color:#00CFDD"/>
			</linearGradient>
			<path class="st12" d="M2639.1,1234.4c-21.1,28.3-45.3,90.6-27.6,112.1l-520.8-302.7c-41.1-30.7,3.2-112.5,36-121.6l348-200.9
				l520.8,302.7l-28.1,22.1L2639.1,1234.4z"/>
			<g>
				<path class="st13" d="M2646.5,1241.3l335.4-192.7l-0.3,74.4L2655.2,1322c-25.1,14.6-39.9,5.2-42.7-11.8
					C2608.9,1288.6,2623.3,1254.8,2646.5,1241.3z"/>
				<path class="st14" d="M2611.3,1263.1c9.3-16.1,22.1-30.2,36.2-38.3l348-200.9l0,27l-14.2,8.2l-333.8,192.7
					c-7.6,4.4-14.5,12-19.6,20.7c-5,8.8-8.1,18.5-8.1,27.3c0,8.8,3.2,14.9,8.2,17.8c5.1,2.9,12,2.5,19.7-2l333.8-192.7l14.2-8.2
					l0.1,27l-348,200.9c-14.1,8.2-27,8.9-36.4,3.7c-9.3-5.4-15.1-16.8-15.1-33C2596.4,1297.2,2602.1,1279.1,2611.3,1263.1z"/>
			</g>
		</g>
	</g>
	<path class="st15" d="M2775.4,1134.7l-503.2-282.4c-7.1-3.2-17.5-6.3-24.5-2l-17.8,10.9c-3.6,2.2-15.3,9.4-7.5,13.7
		c23.2,12.6,483.3,272.3,506.9,285.1c4.4,2.4,11,3.3,17.8,2.7c6.8-0.6,13.9-2.4,19.3-5.8l7.1-4.4c5-3.1,7.8-6.5,8.1-9.7
		C2781.8,1139.7,2779.7,1136.7,2775.4,1134.7z"/>
	<g>
		<g>
			<linearGradient id="SVGID_5_" gradientUnits="userSpaceOnUse" x1="2586.8718" y1="540.3841" x2="2503.146" y2="1055.9774">
				<stop  offset="0" style="stop-color:#C4E0F5"/>
				<stop  offset="1" style="stop-color:#E1E8F6"/>
			</linearGradient>
			<path class="st16" d="M2328.3,286.6c-7-4-15.2-5.5-22.9-2.6l-17.2,6.7c-6.2,32.3,502.1,861.1,510.1,869.4l15.3-5.8
				c10.1-4,15.4-14.5,16.8-24.6l71.1-481c0,0,0-0.1,0-0.1c2.1-14.9-2.4-30.4-10.5-42.8c-4.4-6.7-10.2-12.8-17.3-16.7L2328.3,286.6z"
				/>
			<linearGradient id="SVGID_6_" gradientUnits="userSpaceOnUse" x1="2791.7722" y1="819.9667" x2="2066.2119" y2="545.547">
				<stop  offset="0" style="stop-color:#6D6AFE"/>
				<stop  offset="1" style="stop-color:#3FB0F7"/>
			</linearGradient>
			<path class="st17" d="M2856.7,595.6l-545.4-302.5c-18.7-10.3-36.4-0.4-39.7,22.1l-71.1,481c-3.3,22.5,9.1,49.2,27.8,59.5
				l545.4,302.5c18.7,10.3,36.5,0.4,39.8-22.1l71.1-481C2887.9,632.6,2875.4,605.9,2856.7,595.6z"/>
		</g>
		<g>
			<path class="st18" d="M2856.7,595.6l-545.4-302.5c-18.7-10.3-36.4-0.4-39.7,22.1l-6.6,45.3l613,340.1l6.7-45.4
				C2887.9,632.6,2875.4,605.9,2856.7,595.6z"/>
			<g>
				<path class="st19" d="M2307.5,355.8c-5.9-4.9-9.4-15-7.9-22.5c1.5-7.6,7.6-9.8,13.5-5c5.9,4.9,9.4,15,7.9,22.5
					C2319.4,358.5,2313.4,360.7,2307.5,355.8z"/>
				<path class="st19" d="M2344.9,378.6c-5.9-4.9-9.4-15-7.9-22.5c1.5-7.6,7.6-9.8,13.5-5c5.9,4.9,9.4,15,7.9,22.5
					C2356.8,381.2,2350.8,383.4,2344.9,378.6z"/>
				<path class="st19" d="M2382.3,401.3c-5.9-4.9-9.4-15-7.9-22.5c1.5-7.6,7.6-9.8,13.5-5c5.9,4.9,9.4,15,7.9,22.5
					C2394.3,403.9,2388.2,406.2,2382.3,401.3z"/>
			</g>
		</g>
	</g>
	<linearGradient id="SVGID_7_" gradientUnits="userSpaceOnUse" x1="2867.8491" y1="821.2991" x2="2761.4436" y2="500.6156">
		<stop  offset="0" style="stop-color:#965CF2"/>
		<stop  offset="1" style="stop-color:#FF8ADC"/>
	</linearGradient>
	<path class="st20" d="M2861.7,807.9l-98.1-57.4c-21.8-12.6-36.5-44.8-32.9-72l20-141.9l21.9-3.7l101.1,56.1
		c7.1,3.9,12.9,10,17.3,16.7c8.2,12.4,12.6,27.9,10.5,42.8c0,0,0,0.1,0,0.1l-21.9,147.8L2861.7,807.9z"/>
	<g>
		<path class="st21" d="M2042.2,634.2c1-7.3-1-11.7,2.6-15.8c2.3-2.6,9.6-6,12.6-7.2c5.9-2.2,12.9-1.5,20.1,2.6l91.9,54.7
			c16.7,9.7,28.1,34.5,25.4,55.4l-14.2,105c-0.9,6.5-3.3,14.8-8.8,19.6c-3.9,3.4-10.5,6.9-15.2,7.5c-4.8,0.6-6-3.7-11.4-6.8
			l-91.9-54.7c-16.8-9.7-28.1-34.5-25.4-55.4L2042.2,634.2z"/>
		<path class="st22" d="M2036.6,637.5c2.7-20.9,18.5-30,35.3-20.3l91.9,54.7c16.7,9.7,28.1,34.5,25.4,55.4l-14.2,105
			c-2.7,20.9-18.6,30-35.3,20.3l-91.9-54.7c-16.8-9.7-28.1-34.5-25.4-55.4L2036.6,637.5z"/>
		<linearGradient id="SVGID_8_" gradientUnits="userSpaceOnUse" x1="2110.9482" y1="686.7646" x2="2124.2051" y2="662.9698">
			<stop  offset="0" style="stop-color:#6D6AFE"/>
			<stop  offset="1" style="stop-color:#3FB0F7"/>
		</linearGradient>
		<path class="st23" d="M2036.6,637.5c2.7-20.9,18.5-30,35.3-20.3l91.9,54.7c16.7,9.7,28.1,34.5,25.4,55.4l-1.3,9.9
			c-1.8-1.4-3.7-2.6-5.6-3.7l-146.8-86.8L2036.6,637.5z"/>
		<g>
			<g>

					<ellipse transform="matrix(0.4463 -0.8949 0.8949 0.4463 571.1862 2291.7881)" class="st24" cx="2137.5" cy="684.3" rx="6" ry="6.8"/>
				<path class="st25" d="M2140.5,680.6c4,4.3-0.7,10.1-6,7.6c3.3,2.5,7,1,8.2-1.5C2143.6,684.9,2143.1,682.4,2140.5,680.6z"/>
				<path class="st26" d="M2161.5,640.2c8.9,4.2,11.1,15.8,6.6,27.7l-5.8-3.4c2.4-7.8,2.4-14.8-3.9-17.7c-6.3-3-17.9,2.3-22.8,11.7
					c-4.9,9.4-4.1,18.9,2.9,22.2c1.9,0.9,2.4,2.7,1.8,4.4c-0.7,2-2.9,2.6-4.5,1.9c-0.3-0.1-0.6-0.3-1-0.4c-10-4.7-12.3-17.5-5.1-31
					C2136.7,642.1,2151.4,635.5,2161.5,640.2z"/>
				<path class="st27" d="M2166.7,667.1l-4.5-2.6c2.4-7.8,2.4-14.8-3.9-17.7c-6.3-3-17.9,2.3-22.8,11.7c-4.9,9.4-4.1,18.9,2.9,22.2
					c1.3,0.6,1.9,1.6,2,2.7c-2.8-0.1-7.4-3-9.2-8.9c-3.1-10,2.7-20.4,10.3-26.6c7.4-6,15.7-6.2,19.9-3.8
					C2171.7,649.7,2168.2,662.5,2166.7,667.1z"/>
			</g>
			<g>

					<ellipse transform="matrix(0.4462 -0.8949 0.8949 0.4462 570.7102 2250.1333)" class="st24" cx="2103.4" cy="663.9" rx="6" ry="6.8"/>
				<path class="st25" d="M2106.5,660.3c4,4.3-0.7,10.1-6,7.6c3.3,2.5,7,1,8.2-1.5C2109.5,664.5,2109,662,2106.5,660.3z"/>
				<path class="st26" d="M2127.4,619.8c8.9,4.2,11.1,15.8,6.6,27.7l-5.8-3.4c2.4-7.8,2.4-14.8-3.9-17.7c-6.3-3-17.9,2.3-22.8,11.7
					c-4.9,9.3-4.1,18.9,2.9,22.2c1.9,0.9,2.4,2.7,1.8,4.4c-0.7,2-2.9,2.6-4.5,1.9c-0.3-0.1-0.6-0.3-1-0.4c-10-4.7-12.3-17.5-5.1-31
					C2102.6,621.7,2117.3,615.1,2127.4,619.8z"/>
				<path class="st27" d="M2132.6,646.7l-4.5-2.6c2.4-7.8,2.4-14.8-3.9-17.7c-6.3-3-17.9,2.3-22.8,11.7c-4.9,9.3-4.1,18.9,2.9,22.2
					c1.3,0.6,1.9,1.6,2,2.7c-2.8-0.1-7.4-3-9.2-8.9c-3.1-10,2.7-20.4,10.3-26.6c7.4-6,15.7-6.2,19.9-3.8
					C2137.6,629.3,2134.1,642.1,2132.6,646.7z"/>
			</g>
			<g>

					<ellipse transform="matrix(0.4463 -0.8949 0.8949 0.4463 569.8291 2208.7695)" class="st24" cx="2069.7" cy="643.9" rx="6" ry="6.8"/>
				<path class="st25" d="M2072.8,640.2c4,4.3-0.7,10.1-6,7.6c3.3,2.5,7,1,8.2-1.5C2075.8,644.5,2075.3,642,2072.8,640.2z"/>
				<path class="st26" d="M2093.7,599.8c8.9,4.2,11.1,15.8,6.6,27.7l-5.8-3.4c2.4-7.8,2.4-14.8-3.9-17.7c-6.3-3-17.9,2.3-22.8,11.7
					c-4.9,9.4-4.1,18.9,2.9,22.2c1.9,0.9,2.4,2.7,1.8,4.4c-0.7,2-2.9,2.6-4.5,1.9c-0.3-0.1-0.6-0.3-1-0.4c-10-4.7-12.3-17.5-5.1-31
					C2068.9,601.7,2083.7,595,2093.7,599.8z"/>
				<path class="st27" d="M2099,626.7l-4.5-2.6c2.4-7.8,2.4-14.8-3.9-17.7c-6.3-3-17.9,2.3-22.8,11.7c-4.9,9.4-4.1,18.9,2.9,22.2
					c1.3,0.6,1.9,1.6,2,2.7c-2.8-0.1-7.4-3-9.2-8.9c-3.1-10,2.7-20.4,10.3-26.6c7.4-6,15.7-6.2,19.9-3.8
					C2103.9,609.3,2100.5,622.1,2099,626.7z"/>
			</g>
		</g>
		<g>
			<linearGradient id="SVGID_9_" gradientUnits="userSpaceOnUse" x1="2018.8962" y1="732.017" x2="2082.6431" y2="667.2689">
				<stop  offset="0" style="stop-color:#6D6AFE"/>
				<stop  offset="1" style="stop-color:#3FB0F7"/>
			</linearGradient>
			<path class="st28" d="M2050.1,668.7c0.5-3.9,3.5-5.7,6.7-3.8l17.3,10.3c3.2,1.8,5.3,6.5,4.8,10.5l-2.7,19.8
				c-0.5,3.9-3.5,5.7-6.7,3.8l-17.3-10.3c-3.2-1.8-5.3-6.5-4.8-10.5L2050.1,668.7z"/>
			<linearGradient id="SVGID_10_" gradientUnits="userSpaceOnUse" x1="2056.8621" y1="762.5787" x2="2120.6108" y2="697.8284">
				<stop  offset="0" style="stop-color:#6D6AFE"/>
				<stop  offset="1" style="stop-color:#3FB0F7"/>
			</linearGradient>
			<path class="st29" d="M2093.2,694.1c0.5-3.9,3.5-5.7,6.7-3.8l17.3,10.3c3.2,1.8,5.3,6.5,4.8,10.5l-2.7,19.8
				c-0.5,3.9-3.5,5.7-6.7,3.8l-17.3-10.3c-3.2-1.8-5.3-6.5-4.8-10.5L2093.2,694.1z"/>
			<linearGradient id="SVGID_11_" gradientUnits="userSpaceOnUse" x1="2094.8291" y1="793.1389" x2="2158.5789" y2="728.3876">
				<stop  offset="0" style="stop-color:#6D6AFE"/>
				<stop  offset="1" style="stop-color:#3FB0F7"/>
			</linearGradient>
			<path class="st30" d="M2136.2,719.5c0.5-3.9,3.5-5.7,6.7-3.8l17.3,10.3c3.2,1.8,5.3,6.5,4.8,10.5l-2.7,19.8
				c-0.5,3.9-3.5,5.7-6.7,3.8l-17.3-10.3c-3.2-1.8-5.3-6.5-4.8-10.5L2136.2,719.5z"/>
			<linearGradient id="SVGID_12_" gradientUnits="userSpaceOnUse" x1="2027.7385" y1="760.9344" x2="2091.4873" y2="696.1843">
				<stop  offset="0" style="stop-color:#6D6AFE"/>
				<stop  offset="1" style="stop-color:#3FB0F7"/>
			</linearGradient>
			<path class="st31" d="M2044,712.8c0.5-3.9,3.5-5.7,6.7-3.8l17.3,10.3c3.2,1.8,5.3,6.5,4.8,10.5l-2.7,19.8
				c-0.5,3.9-3.5,5.7-6.7,3.8l-17.3-10.3c-3.2-1.8-5.3-6.5-4.8-10.5L2044,712.8z"/>
			<linearGradient id="SVGID_13_" gradientUnits="userSpaceOnUse" x1="2065.7039" y1="791.4968" x2="2129.4526" y2="726.7466">
				<stop  offset="0" style="stop-color:#6D6AFE"/>
				<stop  offset="1" style="stop-color:#3FB0F7"/>
			</linearGradient>
			<path class="st32" d="M2087,738.2c0.5-3.9,3.5-5.7,6.7-3.8l17.3,10.3c3.2,1.8,5.3,6.5,4.8,10.5l-2.7,19.8
				c-0.5,3.9-3.5,5.7-6.7,3.8l-17.3-10.3c-3.2-1.8-5.3-6.5-4.8-10.5L2087,738.2z"/>
			<linearGradient id="SVGID_14_" gradientUnits="userSpaceOnUse" x1="2103.6721" y1="822.0562" x2="2167.4185" y2="757.3086">
				<stop  offset="0" style="stop-color:#6D6AFE"/>
				<stop  offset="1" style="stop-color:#3FB0F7"/>
			</linearGradient>
			<path class="st33" d="M2130.1,763.6c0.5-3.9,3.5-5.7,6.7-3.8l17.3,10.3c3.2,1.8,5.3,6.5,4.8,10.5l-2.7,19.8
				c-0.5,3.9-3.5,5.7-6.7,3.8l-17.3-10.3c-3.2-1.8-5.3-6.5-4.8-10.5L2130.1,763.6z"/>
			<linearGradient id="SVGID_15_" gradientUnits="userSpaceOnUse" x1="2036.2167" y1="789.3809" x2="2099.9653" y2="724.6309">
				<stop  offset="0" style="stop-color:#6D6AFE"/>
				<stop  offset="1" style="stop-color:#3FB0F7"/>
			</linearGradient>
			<path class="st34" d="M2037.6,756.4c0.5-3.9,3.5-5.7,6.7-3.8l17.3,10.3c3.2,1.8,5.3,6.5,4.8,10.5l-2.7,19.8
				c-0.5,3.9-3.5,5.7-6.7,3.8l-17.3-10.3c-3.2-1.8-5.3-6.5-4.8-10.5L2037.6,756.4z"/>
			<linearGradient id="SVGID_16_" gradientUnits="userSpaceOnUse" x1="2074.1843" y1="819.9401" x2="2137.9336" y2="755.1897">
				<stop  offset="0" style="stop-color:#6D6AFE"/>
				<stop  offset="1" style="stop-color:#3FB0F7"/>
			</linearGradient>
			<path class="st35" d="M2080.6,781.8c0.5-3.9,3.5-5.7,6.7-3.8l17.3,10.3c3.2,1.8,5.3,6.5,4.8,10.5l-2.7,19.8
				c-0.5,3.9-3.5,5.7-6.7,3.8l-17.3-10.3c-3.2-1.8-5.3-6.5-4.8-10.5L2080.6,781.8z"/>
			<linearGradient id="SVGID_17_" gradientUnits="userSpaceOnUse" x1="2112.1497" y1="850.5024" x2="2175.8994" y2="785.7513">
				<stop  offset="0" style="stop-color:#6D6AFE"/>
				<stop  offset="1" style="stop-color:#3FB0F7"/>
			</linearGradient>
			<path class="st36" d="M2123.6,807.2c0.5-3.9,3.5-5.7,6.7-3.8l17.3,10.3c3.2,1.8,5.3,6.5,4.8,10.5l-2.7,19.8
				c-0.5,3.9-3.5,5.7-6.7,3.8l-17.3-10.3c-3.2-1.8-5.3-6.5-4.8-10.5L2123.6,807.2z"/>
		</g>
	</g>
	<g>
		<path class="st21" d="M2591.4,222.9c1.2-8.8-1.2-14.1,3.1-19.1c2.8-3.2,11.6-7.3,15.2-8.6c7.1-2.7,15.6-1.8,24.3,3.2l111,66.1
			c20.2,11.7,34,41.7,30.6,67l-17.2,126.8c-1,7.8-3.9,17.9-10.6,23.7c-4.8,4.1-12.7,8.4-18.3,9.1c-5.8,0.7-7.3-4.5-13.7-8.2
			l-111-66.1c-20.2-11.7-34-41.7-30.7-67L2591.4,222.9z"/>
		<path class="st22" d="M2585.6,226.2c3.3-25.3,22.4-36.3,42.7-24.6l111,66.1c20.2,11.7,34,41.7,30.6,67l-17.2,126.8
			c-3.3,25.3-22.4,36.3-42.7,24.6L2599,420c-20.2-11.7-34-41.7-30.7-67L2585.6,226.2z"/>
		<linearGradient id="SVGID_18_" gradientUnits="userSpaceOnUse" x1="2647.6311" y1="454.3118" x2="2664.6101" y2="414.2146">
			<stop  offset="0" style="stop-color:#6D6AFE"/>
			<stop  offset="1" style="stop-color:#3FB0F7"/>
		</linearGradient>
		<path class="st37" d="M2732.9,489.7c-7.6-30.4-13-46.9-33-56c-7-3.2-17.3-2.8-27.7-9.3l-30.2-14.5c-14-11-21.2-20.8-28.7-25.1
			c-12.6-7.1-21.4-4-38.9,5.8c5.5,12.6,14.2,23.4,24.6,29.4l111,66.1C2718.1,490.7,2726.1,491.8,2732.9,489.7z"/>
		<linearGradient id="SVGID_19_" gradientUnits="userSpaceOnUse" x1="2679.9565" y1="273.7395" x2="2693.0522" y2="250.2336">
			<stop  offset="0" style="stop-color:#6D6AFE"/>
			<stop  offset="1" style="stop-color:#3FB0F7"/>
		</linearGradient>
		<path class="st38" d="M2585.6,226.2c3.3-25.3,22.4-36.3,42.7-24.6l111,66.1c20.2,11.7,34,41.7,30.6,67l-0.2,1.8
			c-1.8-1.2-3.6-2.4-5.4-3.5l-178.8-106.4L2585.6,226.2z"/>
		<g>
			<path class="st39" d="M2691.7,327.5c-7-6.3-13.9-12.7-20.9-19c-7-6.3-14-12.7-21-19c-3.3,3.3-6.7,6.6-10,9.8
				c-1.2,10.8-2.9,14.5-1.2,26.8c0.5,3.8,0.9,7.6,1.2,11.3c0.7,6.6,1.4,13.1,2.1,19.7c7,4.8,14,9.6,21,14.4
				c5.7,2.9,11.4,5.9,17.1,8.8c4.2-9.9,6.6-18.5,8.2-24.9C2690.8,345,2691.7,334.4,2691.7,327.5z"/>
			<linearGradient id="SVGID_20_" gradientUnits="userSpaceOnUse" x1="2665.2705" y1="393.2346" x2="2661.5654" y2="406.0278">
				<stop  offset="0" style="stop-color:#FF8A78"/>
				<stop  offset="1" style="stop-color:#FFA799"/>
			</linearGradient>
			<path class="st40" d="M2676.9,386.6c-1.3,9.8,0.6,16,3.3,22c3.3,7.2,9.4,13.6,18.4,22.4c12.6,12.2,16.7,16.8,18.6,23.4
				c0.6,2,0.9,4.2,1,6.6c-5.3,4.3-11.2,7.4-17.5,9.2c-15.3-8.8-30.7-17.7-46.1-26.6c-15.6-9-31.2-18-46.8-27
				c-5.4-8.8-10-18.2-13.8-28c0.5-1.8,1.1-3.2,1.9-4.3c2.9-4,7.5-3.5,21.1-0.6c9.7,2.1,16.3,3,20.6,0.2c3.3-2.2,5.7-6.2,6.5-15
				c0.1-0.7,0.1-1.3,0.2-2.1c7.9,5.9,12,9.2,16.1,11.8C2664.5,381.2,2668.7,383.2,2676.9,386.6z"/>
			<linearGradient id="SVGID_21_" gradientUnits="userSpaceOnUse" x1="2648.1084" y1="461.3067" x2="2666.6401" y2="400.7917">
				<stop  offset="0" style="stop-color:#6D6AFE"/>
				<stop  offset="1" style="stop-color:#3FB0F7"/>
			</linearGradient>
			<path class="st41" d="M2681,410.1c3.5,6.6,9.3,12.8,17.7,20.9c12.6,12.2,16.7,16.8,18.6,23.4c0.6,2,0.9,4.2,1,6.6
				c-0.4,6.6-1.2,17.1-2.2,27.9c-2-0.7-4-1.7-6-2.8L2599,420c-3.2-1.9-6.3-4.2-9.2-6.9c1.5-9.9,3-18.9,4.2-24.4
				c0.5-1.8,1.1-3.2,1.9-4.3c1.5-2,3.4-3.1,6.7-3.1c3.2,0,7.7,1.1,14.4,2.5c8.3,1.8,14.3,2.7,18.6,1.2c1.8,11.1,12,22,22.4,27.7
				C2668.3,418.4,2678.7,419.1,2681,410.1z"/>
			<path class="st42" d="M2684.8,416c-5.3,10.9-16.9,9.9-28,2.8c-11.1-7-21.7-20.1-24.7-33.2c1.6-0.5,3.2-1,4.8-1.5
				c1.3,6.4,9.9,17.2,19.3,24.1c9.4,6.8,19.5,9.7,24.1,0.1C2681.7,410.9,2683.3,413.5,2684.8,416z"/>
			<path class="st43" d="M2686,356.1c0.2-0.3,0.3-0.5,0.5-0.7c1.7-2.3,3.5-2.1,4.4-0.5c2.9,5.4-0.9,10.1-2.4,12.9
				c-1,3.1-0.6,6.6-3.4,6.3c-1.3-0.2-2-1.7-2.9-5.7c0.6-4.1,1.1-8.3,1.7-12.5C2684.7,356,2685.4,356.1,2686,356.1z"/>
			<path class="st43" d="M2641.6,330.2c-0.1-0.4-0.2-0.8-0.3-1.2c-1.2-4-2.9-5.8-3.9-5.3c-3.6,1.6-0.9,10.1-0.1,14.3
				c0.3,3.9-0.6,6.7,2,9.4c1.2,1.3,2.1,0.6,3.5-1.9c0.2-4.3,0.5-8.7,0.7-13.1C2642.8,331.6,2642.2,330.9,2641.6,330.2z"/>
			<path class="st43" d="M2651.8,381.2c-1.2-2-2.2-4.2-3.8-7.2c-2-3.8-5.5-8.5-6.4-12.4c-1.1-4.5-0.5-9.1-0.3-13.8
				c0.1-3.3-0.8-7.1-1-11.6c-0.1-2.3,0-5.6,0.2-8.8c0.2-2.5,0.4-5.1,0.8-7.5c2.4-16.8,7-31.6,24.2-21.7l0,0c0.3,0.2,0.5,0.3,0.8,0.5
				c0.3,0.2,0.6,0.4,0.9,0.6c0.2,0.1,0.3,0.2,0.5,0.3c0.2,0.1,0.3,0.2,0.5,0.3c0.3,0.2,0.6,0.3,0.9,0.5c0.3,0.2,0.5,0.3,0.8,0.5l0,0
				c17.1,10.3,18.7,28.7,17.9,46.3c-0.1,2.5-0.3,5.1-0.6,7.5c-0.4,3.2-0.8,6.2-1.3,8.2c-1,3.8-2.5,6.1-2.9,9.3
				c-0.6,4.5-0.9,9.3-2.6,12.1c-1.5,2.4-5.4,2.8-7.9,4.1c-1.9,1-3.2,1.9-4.7,2.3c-0.9,0.3-1.9,0.4-3.3,0.1c-1.8-0.4-8.2-4-9.9-5.7
				C2653.5,383.7,2652.6,382.5,2651.8,381.2z"/>
			<g>
				<path class="st39" d="M2684.2,369.3c-0.7,1.6-1,3.2-1.2,4.9c-0.7,5-0.6,8-2.4,10.8c-1.5,2.4-5.8,4.3-8.3,5.6
					c-3.2,1.6-5.8,3-9.1,2.3c-1-0.2-2.5-0.9-3.9-1.7c-1.5-0.8-2.9-1.9-3.9-2.8c-3.1-3.1-5.2-7.2-7.8-12.2c-2-3.9-5.4-9.8-6.2-14
					c-0.8-4.5-0.4-7.1-0.2-12.5c0.1-1.8-0.1-3.6-0.4-5.8c0.3,0.6,0.6,1.1,0.9,1.6c0.8,6.5,2,8.1,3.2,12.3c0.9,3.2,1.1,4.5,1.4,6.2
					c0.6,2.9,1.5,4.3,3.5,6.1c-0.5-2.6-1.6-6.1-0.9-7c0.1-0.2,2.9,0.7,5.3-1.1c2.3-1.7,2.8-2.6,4.5-1.3c1.7,1.3,2.5,2.4,3.2,2.9
					c0.8,0.5,1.5,0.2,3.2,0.9c1.8,0.7,2.1,2,3.8,6.1c1.8,4.2,4.4,6.5,4.5,6.8c0.4,1.6-1.2,3.4-2,5.3c2.1,0.6,3.2,0.3,4.2-1.6
					c0.6-1.1,1-2.1,2.3-4c1.8-2.5,3.8-2.2,5.7-7.2C2683.7,369.7,2683.9,369.5,2684.2,369.3L2684.2,369.3z M2658.4,374.2
					c1.4,0.6,2,0.8,2.4,1.1c0.5,0.3,0.9,0.6,2.4,1.7c1.2,0.9,2,1.3,2.7,1.4c0.9,0.1,2,0,3-0.4c0.9-0.3,1.8-0.6,2.3-1.1
					c0,0-0.1-0.1-0.2-0.2c0.1,0,0.2,0,0.2,0c-2-1.8-2.9-2.9-3.6-4c-1.4-2.2-1.8-3.3-3.8-4.7c-0.7-0.5-1.6-0.7-2.4,0.3
					c-0.7-1.7-1.4-2.6-2.1-3c-1.8-1-2.6-0.6-4.1-0.1c-0.8,0.2-1.9,0.4-4.1-0.4c0.1,0.1,0.1,0.1,0.2,0.2c-0.1,0-0.1,0-0.2-0.1
					c0.4,1.1,1.1,2.4,1.9,3.5c0.9,1.4,1.9,2.8,2.7,3.7C2656.4,373.2,2657.2,373.7,2658.4,374.2z"/>
				<path class="st39" d="M2667.9,317.7c5.6,4.9,5.9,3.1,8.7,4.9c1.7,1.1,2.5,3.2,5.4,4.5c0.3,8.8,0.1,9.5,4,18.3
					c-0.1,1.9-0.3,3.8-0.4,5.7c-0.2,3-0.4,5.6-0.5,7.8c-0.4,5.4-2,9.8-2,14.2c1.8-5.4,3.4-8.3,4.4-14.5c0.2-1.4,0-2.5,0.5-3.9
					c1-2.9,1-6.3,0.6-8.3c0.3-1.5,1.4-0.9,1.7-1.9c0.3-1-0.3-2.5-0.2-3.6c0.1-1.1,1-1.7,0.9-2.9c-0.1-1.6-0.2-3.2-0.3-4.8
					c1.6-1.6,2.8-2.9,4.2-4.7c-0.4-0.6-0.8-1.1-1.2-1.7c2.3-5.3-0.6-6.3-0.4-8.5c0.2-1.5,1.2-0.9,1.7-0.1c0.8,1.4,1.2,4.4,1.3,4.6
					c1.8-8.6-3.8-13.6-9.4-19.3c-1.4-10-9.6-14.4-15.1-15.1c-5.1-10.1-12.8-10.8-18.8-8.1c-5.4-0.7-8.9-1.5-11.3,9.5
					c0-3.2,0.4-5.5,1-8.5c-1.1,3-1.9,5.4-1.8,9.1c-1.8-2.8-1.8-3.1-3-6.3c-0.1,4,0.1,4.9,0.9,9.1c-0.5-0.6-1-1.3-1.5-1.9
					c0.2,3.1,0.1,3.7,0.8,7c-0.8-0.8-1.6-1.7-2.4-2.6c0.3,6.4,0.5,8.5,3.1,13.5c-0.2,2.9-0.4,7.3-0.1,10c0.3,2.7,0.5,4.4,0.8,6.4
					c0.4,2,0.7,3.7,0.8,5.1c0.1,1.4,0.4,2.5,0.3,3.6c-0.6,8.2-1.3,7.3,1.1,16.3c0.5-7.6-1-7.4,0-16.4c0.1-1.1,0-6.7,0.7-10.5
					c0.4-2.2,1.6-2,1.9-4.5c0.8-8.3-1.2-14.8,3.7-12.3c5.4,2.8,6.9,7.1,11.5,4.1C2664,316.5,2665.2,317,2667.9,317.7z"/>
				<path class="st44" d="M2643,307c-3.3,4.1-4.3,6.9-2.7,12.8c1.4,5,1.3,6.1,1.1,10.6c0.2-2,0.5-7.4,0.9-8.7
					c0.7-2.7,2.6-4.8,2.1-12.2c-0.4,7.2-2.2,8.2-2.9,12.1c0.3-2.4,0.9-4.3,1.3-6.6c0.3-1.8,0.3-3.9,0.6-5.7
					c-0.6,1.8-1.1,3.3-1.5,4.9c-0.4,1.6-0.6,3.2-1.1,5.1C2640.8,313.5,2641.1,311.5,2643,307z"/>
			</g>
		</g>
		<g>
			<path class="st22" d="M2609.2,206.9c4.1,0.9,7.2,5.8,7,10.9c-0.2,5.1-3.7,8.4-7.8,7.5c-4.1-0.9-7.2-5.8-7-10.9
				C2601.7,209.3,2605.2,206,2609.2,206.9z"/>
			<path class="st22" d="M2627.9,217.6c4.1,0.9,7.2,5.8,7,10.9c-0.2,5.1-3.7,8.4-7.8,7.5c-4.1-0.9-7.2-5.8-7-10.9
				C2620.3,220,2623.8,216.7,2627.9,217.6z"/>
			<path class="st22" d="M2648,229.3c4.1,0.9,7.2,5.8,7,10.9c-0.2,5.1-3.7,8.4-7.8,7.5c-4.1-0.9-7.2-5.8-7-10.9
				C2640.4,231.7,2643.9,228.4,2648,229.3z"/>
		</g>
		<g>
			<linearGradient id="SVGID_22_" gradientUnits="userSpaceOnUse" x1="2599.0493" y1="293.8753" x2="2607.4072" y2="257.7813">
				<stop  offset="0" style="stop-color:#6D6AFE"/>
				<stop  offset="1" style="stop-color:#3FB0F7"/>
			</linearGradient>
			<path class="st45" d="M2603.6,257.1c9.3,2.1,16.4,13.2,15.9,24.7c-0.5,11.5-8.4,19.1-17.7,17c-9.3-2.1-16.4-13.2-15.9-24.7
				C2586.4,262.6,2594.3,255,2603.6,257.1z"/>
			<polygon class="st22" points="2597.3,263.4 2593.8,289 2615.5,289.6 			"/>
		</g>
	</g>
	<path class="st0" d="M1962.3,1335.6l-177.5-101.1c-19.3-8.8-47-15.9-66.8-5.6c-18,9.3-47.6,28.5-60.6,35.9
		c-9.9,5.7-44.4,26.3-22.9,38c63.2,34.4,125.8,73,189.9,107.9c12.1,6.6,29.9,9,48.5,7.4c18.6-1.5,37.6-6.9,52.6-15.7
		c10.7-6.2,21.2-12.3,31.5-18.3c13.9-8.1,21.3-17.7,22-26.6C1979.7,1349,1974.1,1341,1962.3,1335.6z"/>
	<g>
		<path class="st21" d="M2785.8,489.2c0.5-3.5,9.4-25,9.7-25.2c3.6-2,7.8-3.8,10-4.6c7.6-2.9,16.8-2,26.1,3.4l269.8,157.7
			c21.7,12.6,36.5,44.8,32.9,72l-24.6,174.8c-1.1,8.4-4.2,19.3-11.4,25.5c-5.1,4.4-13.7,9-19.7,9.7c-6.2,0.8-7.8-4.8-14.7-8.8
			l-269.8-157.7c-21.8-12.6-36.5-44.8-32.9-72L2785.8,489.2z"/>
		<linearGradient id="SVGID_23_" gradientUnits="userSpaceOnUse" x1="2879.6973" y1="763.946" x2="3013.5112" y2="585.5278">
			<stop  offset="0" style="stop-color:#1C8EF4"/>
			<stop  offset="1" style="stop-color:#00CFDD"/>
		</linearGradient>
		<path class="st46" d="M2779.9,492c3.6-27.1,24.1-39,45.8-26.4l269.8,157.7c21.7,12.6,36.5,44.8,32.9,72l-24.6,174.8
			c-3.6,27.1-24.1,39-45.8,26.4l-269.8-157.7c-21.8-12.6-36.5-44.8-32.9-72L2779.9,492z"/>
		<g>
			<g>
				<path class="st47" d="M2782.9,697.9c0.2-1.6,1.5-2.3,2.7-1.5L3067,857.7c1.3,0.8,2.1,2.7,1.9,4.3l-0.7,4.9
					c-0.2,1.6-1.5,2.3-2.7,1.5L2784,707.2c-1.3-0.8-2.1-2.7-1.9-4.3L2782.9,697.9z"/>
				<path class="st47" d="M2783.5,698.6c0.2-1.5,1.3-2.1,2.5-1.4l106.8,61.2c1.2,0.7,1.9,2.5,1.7,3.9l-0.7,4.5
					c-0.2,1.5-1.3,2.1-2.5,1.4L2784.6,707c-1.2-0.7-1.9-2.5-1.7-3.9L2783.5,698.6z"/>
			</g>
			<g>
				<polygon class="st47" points="2920.8,631.4 2913.3,685.4 2959,686.6 				"/>
				<path class="st47" d="M2927.4,706.9c-17.9-11-30.6-37.5-28.4-59.3c2.2-21.8,18.5-30.6,36.4-19.6c17.9,11,30.6,37.5,28.4,59.3
					C2961.6,709.1,2945.3,717.9,2927.4,706.9L2927.4,706.9z M2926.5,716.2c22.1,13.5,42.2,2.7,44.9-24.2c2.7-26.9-13-59.7-35.1-73.2
					c-22.1-13.5-42.2-2.7-44.9,24.2C2888.7,669.9,2904.4,702.7,2926.5,716.2z"/>
			</g>
		</g>
	</g>
	<g>
		<linearGradient id="SVGID_24_" gradientUnits="userSpaceOnUse" x1="2313.302" y1="520.4522" x2="2194.8911" y2="-12.4494">
			<stop  offset="0" style="stop-color:#965CF2"/>
			<stop  offset="1" style="stop-color:#FF8ADC"/>
		</linearGradient>
		<path class="st48" d="M2347.7,297.3l44.5,24.7l-16,7.1l-14.1,100.2l-30.9,233.9c-4.2,31.1-27.9,44.5-52.7,29.9l-57.2-33.4
			l36.1-244.3c3.3-22.4,15.5-24.1,33.8-31.2c7.7-2.9,15.9-1.4,22.9,2.6L2347.7,297.3z"/>
		<g>
			<g>
				<path class="st21" d="M2011.5,128.3c0.8-6.2,3.9-22.4,10.2-26.7c5.8-3.9,12.5-7.5,15-8.2c8.2-2.2,17.8-0.8,27.5,5l258.6,149.9
					c24.9,14.6,41.7,51.8,37.4,82.9l-39.2,296.6c-1.5,10.9-5.3,19.6-10.8,25.7c-2.7,3.1-8.4,6.6-13.9,9.9
					c-2.3,1.4-23.3-2.9-28.1-5.7l-258.6-149.9c-24.9-14.7-41.7-51.8-37.4-82.9L2011.5,128.3z"/>
				<g>
					<path class="st49" d="M2005.7,132.1c4.2-31.1,27.8-44.5,52.7-29.9l257.2,150.2c24.9,14.6,41.7,51.8,37.4,82.9L2313.9,632
						c-4.2,31.1-27.9,44.5-52.7,29.9L2004,511.7c-24.9-14.7-41.7-51.8-37.4-82.9L2005.7,132.1z"/>
					<g>
						<linearGradient id="SVGID_25_" gradientUnits="userSpaceOnUse" x1="2179.5708" y1="232.3463" x2="2201.0615" y2="189.9698">
							<stop  offset="0" style="stop-color:#6D6AFE"/>
							<stop  offset="1" style="stop-color:#3FB0F7"/>
						</linearGradient>
						<path class="st50" d="M2005.7,132.1c4.2-31.1,27.8-44.5,52.7-29.9l257.2,150.2c24.9,14.6,41.7,51.8,37.4,82.9l-1,7
							c-2.4-1.9-4.9-3.6-7.5-5.1l-339.8-198.4L2005.7,132.1z"/>
						<g>
							<path class="st22" d="M2048.7,120.4c4.3,1,7.6,6.2,7.4,11.6c-0.3,5.4-4,8.9-8.3,7.9c-4.3-1-7.6-6.2-7.4-11.6
								C2040.6,122.9,2044.4,119.4,2048.7,120.4z"/>
							<path class="st22" d="M2071.8,134.8c4.3,1,7.6,6.2,7.4,11.6c-0.3,5.4-4,8.9-8.3,7.9c-4.3-1-7.6-6.2-7.4-11.6
								C2063.8,137.3,2067.5,133.8,2071.8,134.8z"/>
							<path class="st22" d="M2094.9,149.2c4.3,1,7.6,6.2,7.4,11.6c-0.3,5.4-4,8.9-8.3,7.9c-4.3-1-7.6-6.2-7.4-11.6
								C2086.9,151.7,2090.6,148.2,2094.9,149.2z"/>
						</g>
					</g>
				</g>
			</g>
			<path class="st22" d="M2136.6,298.5c0.4-2.9,1.7-5,3.4-6.1c1.9-1.1,4.2-1.1,6.7,0.3l10.7,6.2c4.1,6.3,9.3,11.7,15.1,15.1
				c5.9,3.4,11.4,4.3,16,2.9l7.6,4.4c4.8,2.8,8,9.9,7.2,15.9l-4.8,35.4c-22.2-13.1-44.4-26.3-66.7-39.4L2136.6,298.5L2136.6,298.5z
				 M2173,307.1c11.3,6.6,21.1,0.9,22-12.6c0.9-13.6-7.6-29.9-18.8-36.5c-11.3-6.6-21.1-0.9-22,12.6
				C2153.3,284.2,2161.8,300.5,2173,307.1z"/>
			<g>
				<path class="st22" d="M2008.1,298.8c1.5-11,9.8-15.6,18.6-10.3l266.8,153.8c8.8,5.3,14.7,18.6,13.2,29.6l-2.9,21.7
					c-1.5,11-9.8,15.6-18.6,10.3l-266.8-153.8c-8.8-5.3-14.7-18.6-13.2-29.6L2008.1,298.8z"/>
				<g>
					<linearGradient id="SVGID_26_" gradientUnits="userSpaceOnUse" x1="2288.2891" y1="472.449" x2="2260.72" y2="460.0408">
						<stop  offset="0" style="stop-color:#6D6AFE"/>
						<stop  offset="1" style="stop-color:#3FB0F7"/>
					</linearGradient>
					<path class="st51" d="M2274.2,486c-7.4-5.2-11.5-17.5-9.1-27.4c2.4-9.9,10.3-13.8,17.7-8.6c7.4,5.2,11.5,17.5,9.1,27.4
						C2289.5,487.4,2281.6,491.2,2274.2,486z"/>
					<polygon class="st22" points="2286.3,461 2288.3,462.2 2272.8,478.3 2267.7,464.4 2270.4,465.6 2273.9,470.3 					"/>
				</g>
				<g>
					<path class="st52" d="M2028.4,310.1c0.2-1,1.1-1.9,2.1-2c1-0.1,1.7,0.6,1.5,1.6l-1.5,8.7l5.8-3.2c1-0.5,2-0.3,2.3,0.5
						c0.3,0.8-0.3,1.9-1.2,2.5l-5.5,3.1l6.3,3.9c0.7,0.5,0.8,1.5,0.1,2.4c-0.7,0.9-1.9,1.2-2.6,0.8l-3.2-2l2.4,6.1
						c0.3,0.8-0.2,1.9-1.1,2.5c-1,0.6-2,0.4-2.3-0.4l-2.5-6.2l-0.7,4.4c-0.2,1-1.1,1.9-2.1,2c-1,0.1-1.7-0.6-1.5-1.6l1.5-8.7l-5,2.8
						c-1,0.5-2,0.3-2.3-0.5c-0.3-0.8,0.3-1.9,1.2-2.5l4.8-2.6l-6.3-3.9c-0.7-0.5-0.8-1.5-0.1-2.4c0.7-0.9,1.9-1.2,2.6-0.8l3.2,2
						l-2.4-6.1c-0.3-0.8,0.2-1.9,1.1-2.5c1-0.6,2-0.4,2.3,0.4l2.5,6.2L2028.4,310.1z"/>
					<path class="st52" d="M2060.7,329.8c0.2-1,1.1-1.9,2.1-2c1-0.1,1.7,0.6,1.5,1.6l-1.5,8.7l5.8-3.2c1-0.5,2-0.3,2.3,0.5
						c0.3,0.8-0.3,1.9-1.2,2.5l-5.5,3.1l6.3,3.9c0.7,0.5,0.8,1.5,0.1,2.4c-0.7,0.9-1.9,1.2-2.6,0.8l-3.2-2l2.4,6.1
						c0.3,0.8-0.2,1.9-1.1,2.5c-1,0.6-2,0.4-2.3-0.4l-2.5-6.2l-0.7,4.4c-0.2,1-1.1,1.9-2.1,2c-1,0.1-1.7-0.6-1.5-1.6l1.5-8.7l-5,2.8
						c-1,0.5-2,0.3-2.3-0.5c-0.3-0.8,0.3-1.9,1.2-2.5l4.8-2.6l-6.3-3.9c-0.7-0.5-0.8-1.5-0.1-2.4c0.7-0.9,1.9-1.2,2.6-0.8l3.2,2
						l-2.4-6.1c-0.3-0.8,0.2-1.9,1.1-2.5c1-0.6,2-0.4,2.3,0.4l2.5,6.2L2060.7,329.8z"/>
					<path class="st52" d="M2092.3,349.1c0.2-1,1.1-1.9,2.1-2c1-0.1,1.7,0.6,1.5,1.6l-1.5,8.7l5.8-3.2c1-0.5,2-0.3,2.3,0.5
						c0.3,0.8-0.3,1.9-1.2,2.5l-5.5,3.1l6.3,3.9c0.7,0.5,0.8,1.5,0.1,2.4c-0.7,0.9-1.9,1.2-2.6,0.8l-3.2-2l2.4,6.1
						c0.3,0.8-0.2,1.9-1.1,2.5c-1,0.6-2,0.4-2.3-0.4l-2.5-6.2l-0.7,4.4c-0.2,1-1.1,1.9-2.1,2c-1,0.1-1.7-0.6-1.5-1.6l1.5-8.7l-5,2.8
						c-1,0.5-2,0.3-2.3-0.5c-0.3-0.8,0.3-1.9,1.2-2.5l4.8-2.6l-6.3-3.9c-0.7-0.5-0.8-1.5-0.1-2.4c0.7-0.9,1.9-1.2,2.6-0.8l3.2,2
						l-2.4-6.1c-0.3-0.8,0.2-1.9,1.1-2.5c1-0.6,2-0.4,2.3,0.4l2.5,6.2L2092.3,349.1z"/>
					<path class="st52" d="M2123.9,368.3c0.2-1,1.1-1.9,2.1-2c1-0.1,1.7,0.6,1.5,1.6l-1.5,8.7l5.8-3.2c1-0.5,2-0.3,2.3,0.5
						c0.3,0.8-0.3,1.9-1.2,2.5l-5.5,3.1l6.3,3.9c0.7,0.5,0.8,1.5,0.1,2.4c-0.7,0.9-1.9,1.2-2.6,0.8l-3.2-2l2.4,6.1
						c0.3,0.8-0.2,1.9-1.1,2.5c-1,0.6-2,0.4-2.3-0.4l-2.5-6.2l-0.7,4.4c-0.2,1-1.1,1.9-2.1,2c-1,0.1-1.7-0.6-1.5-1.6l1.5-8.7l-5,2.8
						c-1,0.5-2,0.3-2.3-0.5c-0.3-0.8,0.3-1.9,1.2-2.5l4.8-2.6l-6.3-3.9c-0.7-0.5-0.8-1.5-0.1-2.4c0.7-0.9,1.9-1.2,2.6-0.8l3.2,2
						l-2.4-6.1c-0.3-0.8,0.2-1.9,1.1-2.5c1-0.6,2-0.4,2.3,0.4l2.5,6.2L2123.9,368.3z"/>
				</g>
			</g>
			<g>
				<path class="st22" d="M1996.9,374.8c1.5-11,9.8-15.6,18.6-10.3l266.8,153.8c8.8,5.3,14.7,18.6,13.2,29.6l-2.9,21.7
					c-1.5,11-9.8,15.6-18.6,10.3l-266.8-153.8c-8.8-5.3-14.7-18.6-13.2-29.6L1996.9,374.8z"/>
				<g>
					<linearGradient id="SVGID_27_" gradientUnits="userSpaceOnUse" x1="2277.114" y1="548.4418" x2="2249.5457" y2="536.0339">
						<stop  offset="0" style="stop-color:#6D6AFE"/>
						<stop  offset="1" style="stop-color:#3FB0F7"/>
					</linearGradient>
					<path class="st53" d="M2263,562c-7.4-5.2-11.5-17.5-9.1-27.4c2.4-9.9,10.3-13.8,17.7-8.6c7.4,5.2,11.5,17.5,9.1,27.4
						C2278.3,563.4,2270.4,567.2,2263,562z"/>
					<polygon class="st22" points="2275.1,537 2277.2,538.1 2261.6,554.3 2256.5,540.4 2259.2,541.6 2262.7,546.3 					"/>
				</g>
				<g>
					<path class="st52" d="M2017.3,386.1c0.2-1,1.1-1.9,2.1-2c1-0.1,1.7,0.6,1.5,1.6l-1.5,8.7l5.8-3.2c1-0.5,2-0.3,2.3,0.5
						c0.3,0.8-0.3,1.9-1.2,2.5l-5.5,3.1l6.3,3.9c0.7,0.5,0.8,1.5,0.1,2.4c-0.7,0.9-1.9,1.2-2.6,0.8l-3.2-2l2.4,6.1
						c0.3,0.8-0.2,1.9-1.1,2.5c-1,0.6-2,0.4-2.3-0.4l-2.5-6.2l-0.7,4.4c-0.2,1-1.1,1.9-2.1,2c-1,0.1-1.7-0.6-1.5-1.6l1.5-8.7l-5,2.8
						c-1,0.5-2,0.3-2.3-0.5c-0.3-0.8,0.3-1.9,1.2-2.5l4.8-2.6l-6.3-3.9c-0.7-0.5-0.8-1.5-0.1-2.4c0.7-0.9,1.9-1.2,2.6-0.8l3.2,2
						l-2.4-6.1c-0.3-0.8,0.2-1.9,1.1-2.5c1-0.6,2-0.4,2.3,0.4l2.5,6.2L2017.3,386.1z"/>
					<path class="st52" d="M2049.5,405.8c0.2-1,1.1-1.9,2.1-2c1-0.1,1.7,0.6,1.5,1.6l-1.5,8.7l5.8-3.2c1-0.5,2-0.3,2.3,0.5
						c0.3,0.8-0.3,1.9-1.2,2.5l-5.5,3.1l6.3,3.9c0.7,0.5,0.8,1.5,0.1,2.4c-0.7,0.9-1.9,1.2-2.6,0.8l-3.2-2l2.4,6.1
						c0.3,0.8-0.2,1.9-1.1,2.5c-1,0.6-2,0.4-2.3-0.4l-2.5-6.2l-0.7,4.4c-0.2,1-1.1,1.9-2.1,2c-1,0.1-1.7-0.6-1.5-1.6l1.5-8.7l-5,2.8
						c-1,0.5-2,0.3-2.3-0.5c-0.3-0.8,0.3-1.9,1.2-2.5l4.8-2.6l-6.3-3.9c-0.7-0.5-0.8-1.5-0.1-2.4c0.7-0.9,1.9-1.2,2.6-0.8l3.2,2
						l-2.4-6.1c-0.3-0.8,0.2-1.9,1.1-2.5c1-0.6,2-0.4,2.3,0.4l2.5,6.2L2049.5,405.8z"/>
					<path class="st52" d="M2081.1,425.1c0.2-1,1.1-1.9,2.1-2c1-0.1,1.7,0.6,1.5,1.6l-1.5,8.7l5.8-3.2c1-0.5,2-0.3,2.3,0.5
						c0.3,0.8-0.3,1.9-1.2,2.5l-5.5,3.1l6.3,3.9c0.7,0.5,0.8,1.5,0.1,2.4c-0.7,0.9-1.9,1.2-2.6,0.8l-3.2-2l2.4,6.1
						c0.3,0.8-0.2,1.9-1.1,2.5c-1,0.6-2,0.4-2.3-0.4l-2.5-6.2l-0.7,4.4c-0.2,1-1.1,1.9-2.1,2c-1,0.1-1.7-0.6-1.5-1.6l1.5-8.7l-5,2.8
						c-1,0.5-2,0.3-2.3-0.5c-0.3-0.8,0.3-1.9,1.2-2.5l4.8-2.6l-6.3-3.9c-0.7-0.5-0.8-1.5-0.1-2.4c0.7-0.9,1.9-1.2,2.6-0.8l3.2,2
						l-2.4-6.1c-0.3-0.8,0.2-1.9,1.1-2.5c1-0.6,2-0.4,2.3,0.4l2.5,6.2L2081.1,425.1z"/>
					<path class="st52" d="M2112.7,444.3c0.2-1,1.1-1.9,2.1-2c1-0.1,1.7,0.6,1.5,1.6l-1.5,8.7l5.8-3.2c1-0.5,2-0.3,2.3,0.5
						c0.3,0.8-0.3,1.9-1.2,2.5l-5.5,3.1l6.3,3.9c0.7,0.5,0.8,1.5,0.1,2.4c-0.7,0.9-1.9,1.2-2.6,0.8l-3.2-2l2.4,6.1
						c0.3,0.8-0.2,1.9-1.1,2.5c-1,0.6-2,0.4-2.3-0.4l-2.5-6.2l-0.7,4.4c-0.2,1-1.1,1.9-2.1,2c-1,0.1-1.7-0.6-1.5-1.6l1.5-8.7l-5,2.8
						c-1,0.5-2,0.3-2.3-0.5c-0.3-0.8,0.3-1.9,1.2-2.5l4.8-2.6l-6.3-3.9c-0.7-0.5-0.8-1.5-0.1-2.4c0.7-0.9,1.9-1.2,2.6-0.8l3.2,2
						l-2.4-6.1c-0.3-0.8,0.2-1.9,1.1-2.5c1-0.6,2-0.4,2.3,0.4l2.5,6.2L2112.7,444.3z"/>
				</g>
			</g>
			<linearGradient id="SVGID_28_" gradientUnits="userSpaceOnUse" x1="2129.1777" y1="555.7558" x2="2140.6951" y2="531.6068">
				<stop  offset="0" style="stop-color:#6D6AFE"/>
				<stop  offset="1" style="stop-color:#3FB0F7"/>
			</linearGradient>
			<path class="st54" d="M2060,489c1.3-9.3,8.3-13.2,15.7-8.7l126.5,72.6c7.4,4.5,12.4,15.7,11.1,25l-2.4,18.4
				c-1.3,9.3-8.3,13.2-15.7,8.7l-126.5-72.6c-7.4-4.5-12.4-15.7-11.1-25L2060,489z"/>
		</g>
	</g>
	<g>
		<g>
			<linearGradient id="SVGID_29_" gradientUnits="userSpaceOnUse" x1="1748.2974" y1="558.3379" x2="1801.8011" y2="661.2012">
				<stop  offset="0" style="stop-color:#5A2D68"/>
				<stop  offset="1" style="stop-color:#22043D"/>
			</linearGradient>
			<path class="st55" d="M1854.2,468.4c14.9-2.3,26.7,7.9,32.6,21.6c7,16,6.6,36.7,3.6,47.6c-9.7,35.3,7.4,50.7,13.7,67.2
				c2.8,7.3,4,16.8,3.6,27.2c-0.4,12.7-7.7,19.2-13.8,30.5c-1.5,11.6-4.4,22.3-8.9,31.3c-16.8,33.5-73.2,49.7-127.3,47.2
				c-43.3-2-85.2-17.3-104.1-34.9c-20.8-19.3-23.5-68.4,11.5-73.4c8.1-1.2,17.6-2.9,24.6-11.4c4.8-5.8,0.2-21.1-1-41.4
				c-1.1-19.7,3.4-40.4,32-47.3c11-2.6,21.6-3.7,30.8-9.7c20-13.1,12.7-37.5,34.3-51.8c13.1-8.7,34.1-10.5,57.1-4.2
				C1846.7,467.5,1850.4,468,1854.2,468.4z"/>
			<path class="st56" d="M1867.2,487c1.2,9.6-2.3,18-8,26c-13.3,18.8-20.3,17.3-27.6,41.3c-12-8-20.2-9.2-23.7-1.4
				c-5.6,12.6-2.1,20.1-3.3,33.2c-2.1,21.2-27.5-7.9-47.4,8.4c-19.6,16-6.1,27.2-13.7,49.9c-2.8,8.5-5,19.6-12.9,23.4
				c-24.6,11.7-34,41,9.8,55.5c27.1,9,66.5,6.8,99.5-4.5c43.5-14.8,70.3-79,59.2-109.4c-4.6-12.6-17-22-17.1-31.9
				C1881.7,543.6,1888.3,521.9,1867.2,487z"/>
		</g>
		<g>
			<g>
				<linearGradient id="SVGID_30_" gradientUnits="userSpaceOnUse" x1="2055.6726" y1="556.76" x2="2075.989" y2="540.7946">
					<stop  offset="0" style="stop-color:#FF8A78"/>
					<stop  offset="1" style="stop-color:#FFA799"/>
				</linearGradient>
				<path class="st57" d="M2058.6,563.4c2.6,0.4,4.1-3,8.8-6.9c3.8-3.2,6.5-7.1,10.3-10.8c3.8-3.8,3.4-2.9,5-7.8
					c1.2-3.8,3.5-7.4,4.4-9.6c-4.2-3.7-9.7,1.3-11.2,7.2c-3.2,0.8-6.1,4.2-7.1,5.8C2054.2,542.6,2038.7,560.8,2058.6,563.4z"/>
				<path class="st58" d="M2084.3,527c-3.6-0.4-7.3,3.7-8.5,8.4c-3,0.8-5.7,3.8-6.9,5.5c1.9-1.5,6.6-4.4,7.9-4.6
					C2078.4,531.9,2080.9,528.6,2084.3,527z"/>
			</g>
			<g>
				<linearGradient id="SVGID_31_" gradientUnits="userSpaceOnUse" x1="2030.308" y1="559.1334" x2="2068.9463" y2="525.5884">
					<stop  offset="0" style="stop-color:#FF8A78"/>
					<stop  offset="1" style="stop-color:#FFA799"/>
				</linearGradient>
				<path class="st59" d="M2082.7,502.1c-1.7,2.3-3.3,4.7-5.1,7l-7.2,9.4c-0.1-5.3-3.9-8-7.5-6.1c-1.1,0.6-2.3,1.6-3.2,2.9
					c-0.2-1.5-3.6-5.4-10.3,1.2c-3.3-1-5.3,0.1-7.2,2.5c-1.1,1.5-2.2,3.2-3.3,5c-1.5,2.5-2.5,4.7-3,7.1c-0.9,5-1.7,10.5-3,16.5
					c-1.4,6.5-8.8,14.3-13.7,18.3l21.2,11.2c4.6-3.9,6.8-6.9,11.2-9.9c4.5-3.1,6.7-2,9.8-5.5c6-6.8,7.4-16.6,10.7-27
					c1-3.1,3.4-6.3,4.7-9.3c3.4-4.1,5.9-7.8,8.2-12.2c1.2-1.9,2.3-3.9,3.6-6c1.8-3.5,0.9-6.4-0.1-7.3
					C2087.8,499.2,2085.4,499,2082.7,502.1z"/>
				<path class="st58" d="M2071.1,517.7l-0.6,0.8c0-1.3-0.3-2.5-0.7-3.4c-0.8,3.5-3.2,5.6-4.9,7
					C2068.2,521.2,2069.8,519.8,2071.1,517.7L2071.1,517.7z M2059.8,515.3c-0.1-0.4-0.4-1-1-1.5c-1.2,3-2.2,4.3-4,6.4
					C2057.3,518.8,2058.7,517.2,2059.8,515.3L2059.8,515.3z M2049.6,516.4l-0.1,0.1c-0.5-0.2-1.1-0.3-1.5-0.3
					c-1.1,3.3-2.2,5.2-4.3,7.2C2046.7,521.4,2048.3,520,2049.6,516.4z"/>
			</g>
		</g>
		<linearGradient id="SVGID_32_" gradientUnits="userSpaceOnUse" x1="2032.2284" y1="616.5603" x2="1900.9404" y2="587.9498">
			<stop  offset="0" style="stop-color:#965CF2"/>
			<stop  offset="1" style="stop-color:#FF8ADC"/>
		</linearGradient>
		<path class="st60" d="M1981.7,662.6c-28.2-2.8-68.5-7.3-90.3-18.5c-14.2-7.3-39.7-38.7-25.3-56.1c3-8.2,30.2,9,43.6,14.1
			c24.2,9.2,40.2,13.5,65.2,19.9c6.8-19.1,26.5-37.1,40.7-54.8c2.3-2.9,6-5.2,9-6.7c1.8-2,3.2-3.5,4.5-5.8c2.4-1,17.7,6.5,21.7,14.1
			c-1.1,1.5-3.5,4.8-4.5,6.4c-1.5,2.3-1,6.2-1.8,9c-3.5,11.5-26.9,48.6-39.9,64.1c-4.9,5.9-12.1,16.3-20.7,14.8
			C1983.1,662.8,1982.4,662.7,1981.7,662.6z"/>
		<path class="st61" d="M1981.7,662.6c-28.2-2.8-68.5-7.2-90.3-18.5c-12.2-6.3-33-30.6-29.1-48.3c5.3-5,8.5-7.6,12.9-7.4
			c5.6,0.2,12.4,6.3,25.4,13c19.6,10.1,38.1,10.7,53.3,28.6c11.2,13.3,29.9,24.7,45.8,24.2c-4.4,5-9.7,9.8-15.7,8.8
			C1983.1,662.8,1982.4,662.7,1981.7,662.6z"/>
		<g>
			<g>
				<g>
					<path class="st43" d="M1765.5,1184.7c1,4.2-1.7,10.3-2.2,11c-10.3,14.9,2,13.7,1.4,35c0,2,8.7,35.7,8.7,35.7s20.5,5,22.1,4.7
						c1.5-0.3,14-5.1,14-5.1c-1.1-1.8-2.4-6.3-3.3-7.9c-5.9-11.5-9-25.5-11.3-39.5c-1.5-9.3-4.3-23.7-2.4-33.4L1765.5,1184.7z"/>
					<path class="st62" d="M1810.1,1265.7c2.8,5.5,4.3,9.2,5.8,13.6c0.7,2.2,0.6,4.2-0.3,5.5c-4.7,6.8-29.7-4.4-38.2-11.4
						c-5.5-4.5-5.8-10.1-7.3-16.8c-2.2-10.1-2.6-11.3-5.4-21.7l-1.8,28.5l-2.3,1.5c-0.9-11.6-2.6-26.9-4.8-36.7
						c-0.8-3.9-2.2-8.4-2.5-10.6c-1.4-12.8,4.7-19.4,10.4-23.2c-1.9,7.9,5.1,20.5,8.2,36.4C1775.9,1250.1,1793,1265.8,1810.1,1265.7
						z"/>
				</g>
				<linearGradient id="SVGID_33_" gradientUnits="userSpaceOnUse" x1="1875.7941" y1="867.9719" x2="1754.9768" y2="1103.632">
					<stop  offset="0" style="stop-color:#3E4795"/>
					<stop  offset="1" style="stop-color:#273088"/>
				</linearGradient>
				<path class="st63" d="M1900.7,791.5c-1.9,8.8,7,39,4.7,50.7c-2.2,38.3-8.9,70.7-34.7,147.4c0,0.9-23.6,47.7-25.2,52.6
					c-16.1,50-36.1,104.3-53.1,154.8c-6.3,4.9-25.4,3.4-27.9-8.5c5.3-50.5-0.5-100.2,8.2-134.7c6.6-26.3,15.2-38.3,29.4-57.8
					c4.3-49.6,7.5-149,18.8-187.2L1900.7,791.5z"/>
				<path class="st64" d="M1900.7,791.5c-1.9,8.8-7.7,25-10,36.6c-7.2,17.6-22.4,41.8-32.6,62.1c-3.1,24.6-2.2,57.3-17.6,102.8
					l-13.9,105.4c-11.4,33-23.4,66.5-34.2,98.5c-6.3,4.9-25.4,3.4-27.9-8.5c5.3-50.5-0.5-100.2,8.2-134.7
					c6.6-26.3,15.2-38.3,29.4-57.8c4.3-49.6,7.5-149,18.8-187.2L1900.7,791.5z"/>
			</g>
			<g>
				<g>
					<path class="st43" d="M1785.8,1235.8c0.5,4.7-1.7,9.4-2.2,14c-0.8,7-1.8,15-1.5,24.8c0.3,12.3,1.5,26.9,5.5,44.6
						c1.4,6.2,4.2,8.9,6,17.4l36.6,6c-3.6-13.8-8.6-41.9-12.3-65.3l-7-43.8L1785.8,1235.8z"/>
					<path class="st62" d="M1783.9,1247.4c-2.1,7.3-4.5,11.3-4.9,21.3c-0.3,10,4.3,25.7,3.9,38.1l-0.6,19.7
						c-0.4,11.5,2.6,19.4,15.6,28.9c11.8,8.6,23.3,12.1,29.6,9.1c4.6-2.2,8.3-10.4,1.2-31.8c-5.9-17.8-7.4-35.3-10.8-54.6
						c1.2,19,1.7,25.4,6.3,44c1.3,5.2,2,13.9-4.1,14.8c-25.6,3.7-26.8-3.2-28.9-11.1C1785.4,1304.6,1781.3,1267.1,1783.9,1247.4z"/>
				</g>
				<linearGradient id="SVGID_34_" gradientUnits="userSpaceOnUse" x1="1901.8057" y1="914.7816" x2="1716.351" y2="1123.241">
					<stop  offset="0" style="stop-color:#3E4795"/>
					<stop  offset="1" style="stop-color:#273088"/>
				</linearGradient>
				<path class="st65" d="M1774.5,821.8c-28.4,35.5-29.1,55.2-23,98c4.1,28.6,12.5,63.2,14.6,113.4c-2.5,25.9-7.1,54.9-3.6,95.1
					c2.6,29.6,10.9,80.4,17.2,116.2c5.9,11.1,33.8,6.3,38.4,0.5c-1.3-51.4-0.5-86.7,2-128.2c2.4-40.4,7.2-77.9,10.2-117.7
					c2.5-33,12.5-77.8,13.8-113.4c5.3-16.8,55.6-72.4,45.1-71.7L1774.5,821.8z"/>
			</g>
		</g>
		<g>
			<linearGradient id="SVGID_35_" gradientUnits="userSpaceOnUse" x1="1851.1464" y1="792.4626" x2="1824.8107" y2="636.3806">
				<stop  offset="0" style="stop-color:#965CF2"/>
				<stop  offset="1" style="stop-color:#FF8ADC"/>
			</linearGradient>
			<path class="st66" d="M1777.9,741.8c12.7,29.5-8.9,45.8-1.1,66.2l-2.4,13.8c23.3,16.7,106.5,18,127.4-15.2l0.4-16.5
				c3.6-7.9,1.2-27.9,0.2-33.2c-3.3-16.8-1.8-25.7-3.6-45.1c-0.5-4.9-1.4-8-1.8-13c18.5-13.8,17.4-40.6,6.4-56.7
				c-6.9-10.1-11-17.4-14.4-25.4c-1.1-6.2-2.1-11.2-3.2-14.6c-0.7-2.9-2.2-5.6-3.9-8c-5.3-7.6-13.8-8.5-31.3-4.4
				c-34.6,7.9-70.3,25.9-86.2,42.9c-11.6,12.3-11.1,26-4.5,55.6C1764.1,707.1,1771.5,726.8,1777.9,741.8z"/>
			<path class="st61" d="M1777.7,741.6c12.8,29.5-8.4,46.4-0.6,66.7l-2.4,13.6c23.3,18.1,106.5,17.3,127.4-15.9l-0.4-14.4
				c0-0.6-40.9,36.2-87.4,15.8c-10.1-4.4-19.3-26.6-6.2-68.8c1.2-4,16.1-4.3,37.1-19.8c-15.5,6.6-44.7,15.6-46.2-23.9
				c-0.6-17.6-3.2-30.9-12.3-43.1c-4.4-5.9-30,25.2-26.1,40.2C1765.5,711.1,1772.9,730.5,1777.7,741.6z"/>
		</g>
		<g>
			<linearGradient id="SVGID_36_" gradientUnits="userSpaceOnUse" x1="1783.6676" y1="839.2361" x2="1785.8239" y2="835.3317">
				<stop  offset="0" style="stop-color:#FF8A78"/>
				<stop  offset="1" style="stop-color:#FFA799"/>
			</linearGradient>
			<path class="st67" d="M1766.6,807c4.2,2.6,11.9,5.1,15,6.9c1.6,1,13.1,8.1,19.6,12.5c6.9,4.7,8.9,11.4,13,18.8
				c3,6.1,4.2,10.5,4.7,13.5c0.4,3.1-7.5,9.2-10.9,8.4c-7.7-1.7-15.6-11.2-17.6-12.2c-17.3-9-25.5-9.8-31.8-17
				c-2.7-3-4.3-11.9-9.8-19.9l10.6-9.6L1766.6,807z"/>
			<linearGradient id="SVGID_37_" gradientUnits="userSpaceOnUse" x1="1725.0509" y1="773.2388" x2="1756.2926" y2="641.447">
				<stop  offset="0" style="stop-color:#965CF2"/>
				<stop  offset="1" style="stop-color:#FF8ADC"/>
			</linearGradient>
			<path class="st68" d="M1764.5,630.4c-25.6,16.2-54,60.7-79.4,100.4c-5,6.5-3.7,14.9-1.1,19.7c1,2.6,2.7,5.6,5,9
				c12.1,17.7,23.9,33.6,49.6,55.5c1.9,1.6,4.6,2.3,7.5,3.1c1.6,1.3,3.9,3.8,5.6,5.2c-2.1-2.8,10.7-16.6,16.5-15.7
				c-1.5-1.9-3-3.9-4.6-6c-0.2-2.7,0-4.3-1-6.6c-8.4-19.1-19.1-38.3-32.4-52.9c23.1-25,36.4-31.1,57.9-57.3
				C1814.5,652.9,1781.5,619.7,1764.5,630.4z"/>
		</g>
		<g>
			<path class="st43" d="M1818,565.1c2.7,15.2,1.3,29.7-3.5,44.5c12.5,11.6,34.7,6.6,39.8-3.8c-1.1-6.8-2.4-13-3.1-19.9L1818,565.1z
				"/>
			<linearGradient id="SVGID_38_" gradientUnits="userSpaceOnUse" x1="1834.8959" y1="586.2844" x2="1832.366" y2="598.9397">
				<stop  offset="0" style="stop-color:#FF8A78"/>
				<stop  offset="1" style="stop-color:#FFA799"/>
			</linearGradient>
			<path class="st69" d="M1818,565.1c1.3,7.3,1.6,14.4,1.1,21.5c3.7,14.8,31.3,24.8,34.2,13c-0.8-4.5-1.6-9-2.1-13.8L1818,565.1z"/>
			<path class="st43" d="M1869.6,500.6c6.2,9.9,9.5,19.8,8.1,33.9c-0.4,3.6,0.2,5.8,1.2,8.1c5.8,13.1,5.3,17.2,2.4,27.7
				c-2.8,10.2-2.6,15.6-6.1,19.1c-3.6,3.6-8.9,4.4-13.5,4.7c-9.3,0.6-25.3-5.6-34.6-10.6c-6.9-3.8-6.6-6.3-9.5-12.9
				c-9.7-8.5-3.4-14.6-0.2-15.3c9.3-1.8,10.9,9,16.4,11.3C1832.8,547.8,1868.9,515.8,1869.6,500.6z"/>
			<linearGradient id="SVGID_39_" gradientUnits="userSpaceOnUse" x1="1879.9296" y1="536.944" x2="1860.4269" y2="568.5286">
				<stop  offset="0" style="stop-color:#FFB89E"/>
				<stop  offset="1" style="stop-color:#FFA799"/>
			</linearGradient>
			<path class="st70" d="M1873.7,508.2c3.5,7.6,5,15.8,4,26.3c-0.4,3.6,0.2,5.8,1.2,8.1c5.8,13.1,5.3,17.2,2.4,27.7
				c-1.3,4.6-1.9,8.2-2.6,11.1c-2.2,3.3-6.7,5-10.9,3.1c-3.9-1.7-7.7-6.3-8.7-14c-0.7-5.4-11.8-9-14.1-14.6
				c-1.9-4.6,3.2-9.7,6.4-12.4C1862.3,534.4,1869.1,521.8,1873.7,508.2z"/>
			<path class="st71" d="M1869.6,500.6c-5.2,23.2-35.6,40.8-35.8,66C1842,540.5,1871.5,522.5,1869.6,500.6z"/>
		</g>
	</g>
	<g>
		<path class="st22" d="M2459.2,313.8c27.3,17.2,53.6,3.4,58.6-30.9c5-34.3-13.1-76-40.4-93.2c-27.3-17.2-53.6-3.4-58.6,30.9
			C2413.8,254.9,2431.9,296.6,2459.2,313.8z"/>
		<path class="st72" d="M2463.4,301c-22.2-14-36.8-47.8-32.8-75.5c4.1-27.8,25.3-39,47.5-25c22.2,14,36.8,47.8,32.8,75.5
			C2506.8,303.8,2485.5,315,2463.4,301L2463.4,301z M2461.6,312.8c9.9,6.2,15.5,11.2,24.1,9.8c4.8-0.8,13.4-5.5,17.4-8.4
			c8.6-6.3,14.8-17.3,17-32.3c5-34.3-13.1-76-40.4-93.2c-13.3-8.4-26.4-9.4-36.8-4.3c-1.9,0.9-6.6,3.2-8.3,4.6
			c-8.2,6.4-11.3,16.1-13.5,30.6C2416.2,253.8,2434.3,295.6,2461.6,312.8z"/>
		<linearGradient id="SVGID_40_" gradientUnits="userSpaceOnUse" x1="2446.2112" y1="283.8682" x2="2483.2717" y2="229.1403">
			<stop  offset="0" style="stop-color:#6D6AFE"/>
			<stop  offset="1" style="stop-color:#3FB0F7"/>
		</linearGradient>
		<path class="st73" d="M2502.4,272.7l-6-4.3l-0.5,3.5l6.1,3.3c0.1-0.4,0.1-0.8,0.2-1.2C2502.3,273.6,2502.4,273.1,2502.4,272.7
			L2502.4,272.7z M2490.7,237.7l1.6,3.7l4.8-3.2c-0.4-0.9-0.8-1.8-1.2-2.7L2490.7,237.7L2490.7,237.7z M2437.6,216.4l4.9,6.8
			l1.5-2.6l-5.4-6C2438.3,215.2,2437.9,215.8,2437.6,216.4L2437.6,216.4z M2439.4,232.5l-6.1-3.3c-0.1,0.4-0.1,0.9-0.2,1.3
			c-0.1,0.4-0.1,0.8-0.2,1.2l6,4.3L2439.4,232.5L2439.4,232.5z M2433,247.3c0.1,0.9,0.3,1.9,0.4,2.8l6.1,1.2l-0.6-3.9L2433,247.3
			L2433,247.3z M2447.7,282.9c0.6,0.7,1.1,1.4,1.7,2.1l3.7-5.2l-2.4-3L2447.7,282.9L2447.7,282.9z M2472.4,291.9l1.7,8.6
			c0.7,0.1,1.3,0.2,2,0.2l-0.9-8.5L2472.4,291.9L2472.4,291.9z M2483,290.8l3.8,7.9c0.6-0.3,1.1-0.6,1.7-0.9l-3.2-8.3L2483,290.8
			L2483,290.8z M2469,252.7l15.2,36.1l-1,0.5l-14.7-32.1l-0.1,0.9l-2.8-1.8l0.7-4l-2.3-5.1l1.1-0.6l-13.3-31.7l0.3-0.2l13.6,31.5
			l0.6-0.3l0.8,1.8l4.3-24.9l1.2,0.8L2469,252.7L2469,252.7z M2487.6,221.5c-0.6-0.7-1.1-1.4-1.7-2.1l-3.7,5.1l2.4,3L2487.6,221.5
			L2487.6,221.5z M2475,209.5c-0.3-0.2-0.7-0.4-1-0.7c-0.3-0.2-0.7-0.4-1-0.6l-1.5,7.3l2.8,1.8L2475,209.5L2475,209.5z
			 M2462.9,212.4l-1.7-8.5c-0.7-0.1-1.3-0.2-2-0.2l0.9,8.4L2462.9,212.4L2462.9,212.4z M2452.3,213.6l-3.8-7.8
			c-0.6,0.3-1.1,0.6-1.7,0.9l3.1,8.2L2452.3,213.6L2452.3,213.6z M2438.1,266.1c0.4,0.9,0.8,1.8,1.2,2.7l5.3-2.1l-1.6-3.7
			L2438.1,266.1L2438.1,266.1z M2460.3,294.9c0.3,0.2,0.7,0.4,1,0.6c0.3,0.2,0.7,0.4,1,0.6l1.5-7.4l-2.8-1.8L2460.3,294.9
			L2460.3,294.9z M2502.2,257.1c-0.1-0.9-0.3-1.9-0.4-2.8l-6.1-1.2l0.6,3.9L2502.2,257.1L2502.2,257.1z M2491.3,283.7l5.4,6.1
			c0.4-0.6,0.8-1.2,1.1-1.8l-5-6.8L2491.3,283.7z"/>
		<linearGradient id="SVGID_41_" gradientUnits="userSpaceOnUse" x1="2481.2986" y1="228.3063" x2="2438.3586" y2="294.4684">
			<stop  offset="0" style="stop-color:#A77EF7"/>
			<stop  offset="1" style="stop-color:#5E65D6"/>
		</linearGradient>
		<path class="st74" d="M2457.3,304.3c-22.2-14-36.8-47.8-32.8-75.5c4.1-27.8,25.3-39,47.5-25c22.2,14,36.8,47.8,32.8,75.5
			C2500.7,307,2479.4,318.2,2457.3,304.3L2457.3,304.3z M2455.6,316c27.3,17.2,53.6,3.4,58.6-30.9c5-34.3-13.1-76-40.4-93.2
			c-27.3-17.2-53.6-3.4-58.6,30.9C2410.1,257.1,2428.2,298.8,2455.6,316z"/>
	</g>
	<g>
		<linearGradient id="SVGID_42_" gradientUnits="userSpaceOnUse" x1="2546.4592" y1="890.9359" x2="2638.1963" y2="742.1533">
			<stop  offset="0" style="stop-color:#965CF2"/>
			<stop  offset="1" style="stop-color:#FF8ADC"/>
		</linearGradient>
		<path class="st75" d="M2471.7,643.7c5.1,0.1,10.5,1.7,16,4.9l340,199.9c10.6,6.1,18.3,17.1,24.1,29.8l-29.8,200
			c-7.3,2.7-15.8,2-24.7-3.1l-202.3-119c-0.4,1.6-0.8,3.2-1.2,4.8c-1.5,7.1-3.1,14.3-4.4,21.4c-2.6,14.6-7.2,18-22.8,8.9
			l-199.4-115.9c-1.9-1.1-2.9-4-3.2-5.8l-51.5-181l0,0l-9.7-33.9c-0.2-0.9-0.1-1.8,0.1-2.6l0,0l0-0.2l0-0.1l0.1-0.3l0-0.1l0-0.1
			l0-0.1l0-0.1c0.1-0.3,0.2-0.6,0.3-0.8l0,0l0.1-0.2l0-0.1l0.2-0.4l0-0.1c0.3-0.5,0.6-0.9,0.7-1.1c1.1-1.2,2.9-2.7,4.6-1.9
			l60.8,35.8c-0.5-0.2,1,0.6,3.7,2c2.9,2.2,5.8,5,8.8,8.9c6.3,8.4,11.5,17.4,18.2,26.2l20.2-96l0-0.1l0,0l0,0l0-0.1l0,0l0-0.1l0,0
			l0-0.1l0-0.1l0,0l0-0.1v0l0-0.1l0,0l0,0l0-0.1l0,0l0-0.1l0,0l0-0.1l0-0.1l0,0l0-0.1l0,0l0-0.1l0-0.1l0,0l0-0.1h0l0-0.1l0,0l0-0.1
			l0-0.1l0,0l0-0.1l0,0l0-0.1l0-0.1l0,0l0-0.1l0,0l0-0.1l0-0.1l0-0.1l0-0.1l0,0l0-0.1l0,0l0-0.1l0-0.1l0,0l0.1-0.1l0,0l0-0.1l0-0.1
			l0,0l0-0.1h0l0.1-0.1l0,0l0-0.1l0-0.1l0,0l0.1-0.1l0,0l0-0.1l0-0.1l0,0l0.1-0.1l0,0l0.1-0.1l0,0l0,0l0.1-0.1l0,0l0.1-0.1l0,0
			l0-0.1l0.1-0.1l0.1-0.1l0,0l0.1-0.1l0,0l0,0l0.1-0.1l0.1-0.1l0,0l0,0l0.1-0.1l0,0l0.1-0.1l0,0l0.1-0.1l0.1,0l0,0l0.1-0.1l0,0
			l0.1-0.1l0,0l0,0l0.1-0.1l0,0l0.1-0.1l0,0l0.1,0c0.9-0.5,1.9-0.7,3.2-0.2L2471.7,643.7z"/>
		<g>
			<g>
				<g>
					<linearGradient id="SVGID_43_" gradientUnits="userSpaceOnUse" x1="2498.5845" y1="759.5848" x2="2539.9067" y2="687.6847">
						<stop  offset="0" style="stop-color:#965CF2"/>
						<stop  offset="1" style="stop-color:#FF8ADC"/>
					</linearGradient>
					<path class="st76" d="M2573.5,955.8l-215.9-125.5l50.1-237.9l0-0.1l0,0l0,0l0-0.1l0,0l0-0.1l0,0l0-0.1l0-0.1l0,0l0-0.1v0l0-0.1
						l0,0l0,0l0-0.1l0,0l0-0.1l0,0l0-0.1l0-0.1l0,0l0-0.1l0,0l0-0.1l0-0.1l0,0l0-0.1h0l0-0.1l0,0l0-0.1l0-0.1l0,0l0-0.1l0,0l0-0.1
						l0-0.1l0,0l0-0.1l0,0l0-0.1l0,0l0-0.1l0-0.1l0,0l0-0.1l0,0l0-0.1l0-0.1l0,0l0.1-0.1l0,0l0-0.1l0-0.1l0,0l0.1-0.1h0l0.1-0.1l0,0
						l0-0.1l0-0.1l0,0l0.1-0.1l0,0l0-0.1l0-0.1l0,0l0.1-0.1l0,0l0.1-0.1l0,0l0,0l0.1-0.1l0,0l0.1-0.1l0,0l0-0.1l0.1-0.1l0.1-0.1l0,0
						l0.1-0.1l0,0l0,0l0.1-0.1l0.1-0.1l0,0l0,0l0.1-0.1l0,0l0.1-0.1l0,0l0.1-0.1l0.1,0l0,0l0.1-0.1l0,0l0.1-0.1l0,0l0,0l0.1-0.1l0,0
						l0.1-0.1l0,0l0.1,0c0.9-0.5,1.9-0.7,3.2-0.2l215.9,125.5C2623,708.3,2594.3,885.6,2573.5,955.8z"/>
					<path class="st77" d="M2407.7,592.4l164.6,98.6l12.2,214.8c-1.9,18.7-7.6,36.7-9.9,55.2l-217-130.6L2407.7,592.4z"/>
				</g>
				<path class="st78" d="M2517.7,775.9c0.4-0.3,0.7-0.6,1.1-0.8c1.7-1,3.2-0.6,3.7,1.1l51,179.6l50.1-237.9c0.4-2.2,2-4.4,3.7-5.4
					c0.4-0.2,0.7-0.4,1-0.4c2.1-0.5,3.3,1.2,2.7,3.9l-50.4,239.5c-0.9,4.2-1.9,7.3-3.1,9.4c-1.1,2.2-2.5,3.7-4.1,4.6
					c-1.5,0.9-2.9,0.9-4,0.1c-1.1-0.9-2.1-2.7-2.9-5.6l-51.5-181C2514.5,780.8,2515.7,777.7,2517.7,775.9z"/>
			</g>
			<g>
				<path class="st21" d="M2437.1,638.6c1.2-9.1-1.3-14.7,3.2-19.8c2.9-3.3,12-7.5,15.8-9c7.4-2.8,16.2-1.9,25.2,3.3l340,199.9
					c21,12.2,35.3,43.3,31.8,69.6l-17.9,131.7c-1.1,8.1-4.1,18.6-11,24.6c-4.9,4.3-13.2,8.7-19,9.4c-6,0.7-7.5-4.6-14.2-8.5
					l-340-199.9c-21-12.2-35.3-43.3-31.8-69.6L2437.1,638.6z"/>
				<path class="st22" d="M2430,642.8c3.4-26.2,23.3-37.7,44.3-25.5l340,199.9c21,12.2,35.3,43.3,31.8,69.6l-17.9,131.7
					c-3.4,26.2-23.3,37.7-44.3,25.5L2444,844c-21-12.2-35.3-43.3-31.8-69.6L2430,642.8z"/>
				<linearGradient id="SVGID_44_" gradientUnits="userSpaceOnUse" x1="2634.7517" y1="790.1525" x2="2648.5222" y2="682.4765">
					<stop  offset="0" style="stop-color:#6D6AFE"/>
					<stop  offset="1" style="stop-color:#3FB0F7"/>
				</linearGradient>
				<path class="st79" d="M2430,642.8c3.4-26.2,23.3-37.7,44.3-25.5l340,199.9c21,12.2,35.3,43.3,31.8,69.6l-1.7,12.4
					c-2.3-1.7-4.6-3.3-7-4.7l-408.9-240.2L2430,642.8z"/>
				<g>
					<path class="st80" d="M2487.3,716.6c31.7,7.3,56.1,45,54.4,84.4c-1.7,39.3-28.7,65.4-60.5,58.1c-31.7-7.3-56.1-45-54.4-84.4
						C2428.5,735.4,2455.6,709.3,2487.3,716.6z"/>
					<linearGradient id="SVGID_45_" gradientUnits="userSpaceOnUse" x1="2477.4993" y1="817.1448" x2="2492.907" y2="750.6047">
						<stop  offset="0" style="stop-color:#6D6AFE"/>
						<stop  offset="1" style="stop-color:#3FB0F7"/>
					</linearGradient>
					<path class="st81" d="M2485.9,749.4c17.1,3.9,30.2,24.3,29.3,45.5c-0.9,21.2-15.5,35.2-32.6,31.3
						c-17.1-3.9-30.2-24.3-29.3-45.5C2454.2,759.5,2468.8,745.5,2485.9,749.4L2485.9,749.4z M2485.1,767.4
						c-9.1-2.1-16.8,5.4-17.3,16.6c-0.5,11.3,6.5,22.1,15.6,24.2c9.1,2.1,16.8-5.4,17.3-16.6
						C2501.2,780.3,2494.2,769.5,2485.1,767.4z"/>
					<path class="st80" d="M2560.8,792.3c1.1-8.4,7.4-11.9,14.1-7.9l203.4,115.3c6.7,4,11.2,14,10.1,22.4l-2.1,16.5
						c-1.1,8.4-7.4,11.9-14.1,7.9l-203.4-115.3c-6.7-4-11.2-14-10.1-22.4L2560.8,792.3z"/>
					<path class="st80" d="M2552.9,853.2c0.6-4.9,4.4-7,8.3-4.7l120.1,68.1c3.9,2.4,6.6,8.3,6,13.2l-1.3,9.8c-0.6,4.9-4.4,7-8.3,4.7
						l-120.1-68.1c-3.9-2.4-6.6-8.3-6-13.2L2552.9,853.2z"/>
				</g>
				<g>
					<path class="st22" d="M2458.5,631.2c5.8,1.3,10.2,8.2,9.9,15.4c-0.3,7.2-5.2,11.9-11,10.6c-5.8-1.3-10.2-8.2-9.9-15.4
						C2447.7,634.6,2452.7,629.9,2458.5,631.2z"/>
					<path class="st22" d="M2484.8,646.3c5.8,1.3,10.2,8.2,9.9,15.4c-0.3,7.2-5.2,11.9-11,10.6c-5.8-1.3-10.2-8.2-9.9-15.4
						C2474.1,649.8,2479,645,2484.8,646.3z"/>
					<path class="st22" d="M2513.3,663c5.8,1.3,10.2,8.2,9.9,15.4c-0.3,7.2-5.2,11.9-11,10.6c-5.8-1.3-10.2-8.2-9.9-15.4
						C2502.6,666.4,2507.5,661.6,2513.3,663z"/>
				</g>
			</g>
			<g>
				<linearGradient id="SVGID_46_" gradientUnits="userSpaceOnUse" x1="2536.125" y1="873.8801" x2="2325.4128" y2="731.8449">
					<stop  offset="0" style="stop-color:#965CF2"/>
					<stop  offset="1" style="stop-color:#FF8ADC"/>
				</linearGradient>
				<path class="st82" d="M2516.4,780.2l52.2,173.9l0,0c0.7,1.9,0.2,14.5,1.2,15.6l-215.9-125.5c-1.9-1.1-2.9-4-3.2-5.8l-51.5-181
					l0,0l-9.7-33.9c-0.5-2.6,1.3-5.6,1.9-6.1c9,8.2,56.8,37.5,65.7,42.7c14.8,11.6,15.3,23.5,37.7,47.3c4.3,4.5,5.8,5.7,11.1,8.9
					L2516.4,780.2z"/>
				<path class="st78" d="M2517.7,775.9c0.4-0.3,0.7-0.6,1.1-0.8c1.7-1,3.2-0.6,3.7,1.1l51,179.6l4,9c-1.1,2.2-2.5,3.7-4.1,4.6
					c-1.5,0.9-2.9,0.9-4,0.1c-1.1-0.9-2.1-2.7-2.9-5.6l-51.5-181C2514.5,780.8,2515.7,777.7,2517.7,775.9z"/>
				<path class="st83" d="M2412.6,711.6l108.9,63.3c-2.8-1.4-7.2,5-6.4,8l-110-63.9c-3.7-2.1-5.9-3.4-9.2-5.9
					c-15.6-12.3-23-29.3-33.2-43c-2.9-3.9-5.8-6.6-8.8-8.9c-2.7-1.5-4.2-2.3-3.7-2l-60.7-35.7c-0.5-2.6,1.4-5.5,1.9-6.1
					c1.1-1.2,2.9-2.7,4.6-1.9l60.8,35.8c-0.5-0.2,1,0.6,3.7,2c2.9,2.2,5.8,5,8.8,8.9c10.8,14.5,18.5,30.8,36.1,44.6
					C2407.8,708.7,2409.9,710,2412.6,711.6z"/>
			</g>
		</g>
	</g>
	<g>
		<path class="st21" d="M3039.9,387.9l-22.3,137.6l3.5,0.4l9.5-3.7c10.4-4.1,15.9-14.9,17.4-25.5l16.5-118.5c0,0,0-0.1,0-0.1
			c2.2-15.4-2.4-31.4-10.9-44.2c-4.5-6.9-10.5-13.3-17.9-17.2l-145.7-80c-7.2-4.1-15.7-5.6-23.7-2.6l-8.4,3.3
			c-4.2,1.6-5.5,2.8-5.5,3.1C2856.4,277.3,3045.4,350.1,3039.9,387.9z"/>
		<linearGradient id="SVGID_47_" gradientUnits="userSpaceOnUse" x1="2925.0112" y1="432.8786" x2="2959.3389" y2="306.7845">
			<stop  offset="0" style="stop-color:#6D6AFE"/>
			<stop  offset="1" style="stop-color:#3FB0F7"/>
		</linearGradient>
		<path class="st84" d="M3026.1,320.5l-145.7-80c-8.5-4.7-16.7-5.3-23.6-2.6c-8.9,3.5-15.5,12.4-17.4,25.5l-16.5,118.5
			c-3.4,23.3,9.4,50.8,28.7,61.5l145.7,80c19.3,10.7,37.7,0.5,41.1-22.8l16.5-118.5C3058.3,358.8,3045.4,331.2,3026.1,320.5z"/>
		<path class="st22" d="M2964.5,369.3l-3.4,22.9l10.3,5.7c6.2,3.5,10,5.4,11.6,5.9c2.7,1.2,5,1.2,6.8,0.1c1.9-1.1,3-3.3,3.5-6.4
			c0.5-3.1,0.2-5.9-0.8-8.6c-1-2.7-2.9-5-5.4-6.7c-1.5-1-6-3.7-13.5-7.8L2964.5,369.3L2964.5,369.3z M2883.5,371.3l21.4,11.9
			l-5.5-42.8L2883.5,371.3L2883.5,371.3z M2894.6,312.5l16.8,9.3l16.5,116.8l-17-9.4l-3.5-26.4l-31.4-17.4l-9.8,19.1l-16.8-9.3
			L2894.6,312.5L2894.6,312.5z M2986.7,448.2c1.7-1.4,2.9-3.7,3.4-7.3c0.4-3,0.3-5.7-0.5-8.5c-0.8-2.8-2.3-5.2-4.2-7.3
			c-2.1-2.2-6.6-5.3-13.9-9.3l-12.8-7.1l-4,26.8l14.7,8.2c5.7,3.2,9.3,5,11,5.4C2982.8,449.7,2984.9,449.5,2986.7,448.2
			L2986.7,448.2z M3004.7,433.9c1.8,5.6,2.4,11.3,1.5,17c-0.7,4.6-2.1,8.6-4.4,11.9c-2.3,3.3-5,5.6-8.2,6.4c-3.3,1-7.1,0.7-11.4-1.2
			c-2.6-1.1-9-4.3-19.1-9.9l-26.7-14.8l14.8-99.4l31.3,17.4c6.2,3.5,10.8,6.4,13.7,8.7c3,2.4,5.5,5.2,7.7,8.7
			c2,3.4,3.6,7.4,4.7,11.7c1.2,4.4,1.4,8.6,0.8,12.8c-0.7,4.8-2.4,8.4-4.9,11.1c-2.5,2.8-5.7,4.3-9.3,4.3
			C2999.6,423,3002.8,428.2,3004.7,433.9z"/>
	</g>
</g>
</svg>
