<svg id="Capa_1" enable-background="new 0 0 512 512" height="512" viewBox="0 0 512 512" width="512" xmlns="http://www.w3.org/2000/svg"><path d="m8 366h496v138h-496z" fill="#f6cc90"/><path d="m65.027 366c-8.081-12.765-12.759-27.898-12.759-44.123 0-45.622 36.984-82.607 82.607-82.607s82.607 36.984 82.607 82.607c0 16.225-4.678 31.358-12.759 44.123z" fill="#f7b30c"/><path d="m134.875 239.27c-5.651 0-11.168.571-16.5 1.652 37.716 7.646 66.107 40.983 66.107 80.955 0 16.225-4.678 31.358-12.759 44.123h33c8.081-12.765 12.759-27.898 12.759-44.123 0-45.623-36.985-82.607-82.607-82.607z" fill="#e8a500"/><path d="m265 99c.513 1.992.951 8.947.951 11.1 0 13.769-11.162 24.931-24.931 24.931h-136.16c-13.769 0-24.931-11.162-24.931-24.931 0-13.769 11.162-24.931 24.931-24.931h67.601" fill="#c5e866"/><path d="m420.33 54.485h-33.563c9.972-2.903 17.262-12.104 17.262-23.013 0-13.239-10.733-23.972-23.972-23.972h-100.682c-13.239 0-23.972 10.733-23.972 23.972 0 10.909 7.29 20.11 17.262 23.013h-75.753c-13.239 0-23.972 10.733-23.972 23.972s10.733 23.972 23.972 23.972h223.418c13.239 0 23.972-10.733 23.972-23.972s-10.733-23.972-23.972-23.972z" fill="#9cc042"/><path d="m420.33 54.485h-33c13.239 0 23.972 10.733 23.972 23.972s-10.733 23.972-23.972 23.972h33c13.239 0 23.972-10.733 23.972-23.972s-10.733-23.972-23.972-23.972z" fill="#85aa18"/><path d="m371.029 31.472c0 10.909-7.29 20.11-17.262 23.013h33c9.972-2.903 17.262-12.104 17.262-23.013 0-13.24-10.733-23.972-23.972-23.972h-33c13.24 0 23.972 10.732 23.972 23.972z" fill="#85aa18"/><path d="m469.503 180.098h-104.099c-12.031 0-21.784-9.753-21.784-21.784v-6.294c0-12.031 9.753-21.784 21.784-21.784h104.099c12.031 0 21.784 9.753 21.784 21.784v6.294c0 12.031-9.753 21.784-21.784 21.784z" fill="#9cc042"/><path d="m469.503 130.236h-33c12.031 0 21.784 9.753 21.784 21.784v6.294c0 12.031-9.753 21.784-21.784 21.784h33c12.031 0 21.784-9.753 21.784-21.784v-6.294c0-12.031-9.753-21.784-21.784-21.784z" fill="#85aa18"/><g fill="#060606"><path d="m512 366c0-4.142-3.357-7.5-7.5-7.5h-31.734c2.938-4.777 4.637-10.395 4.637-16.403v-17.074c0-9.674-15-9.674-15 0v17.074c0 6.46-3.763 12.044-9.204 14.717v-43.199c0-9.674-15-9.674-15 0v42.909c-5.119-2.779-8.603-8.203-8.603-14.426v-17.074c0-9.674-15-9.674-15 0v17.074c0 6.008 1.699 11.626 4.637 16.403h-102.153v-124.877h73.954c19.496 0 35.357-15.861 35.357-35.357v-10.668h43.111c38.973 0 38.994-64.862 0-64.862h-104.098c-38.972 0-38.994 64.862 0 64.862h45.987v10.668c0 11.225-9.132 20.357-20.357 20.357h-73.954v-108.695h36.92c9.674 0 9.674-15 0-15h-157.088c-9.082 0-16.472-7.39-16.472-16.472s7.39-16.472 16.472-16.472h75.753c8.435 0 10.196-12.343 2.097-14.701-6.982-2.032-11.858-8.535-11.858-15.812 0-9.083 7.389-16.472 16.472-16.472h100.683c9.083 0 16.472 7.389 16.472 16.472 0 7.277-4.876 13.78-11.858 15.812-8.099 2.358-6.339 14.701 2.097 14.701h33.563c21.195 0 21.234 32.944 0 32.944h-19.333c-9.674 0-9.674 15 0 15h19.33c40.567 0 40.572-62.944 0-62.944h-12.93c2.64-4.634 4.129-9.955 4.129-15.513 0-17.354-14.118-31.472-31.471-31.472h-100.683c-17.354 0-31.472 14.118-31.472 31.472 0 5.558 1.489 10.879 4.129 15.513h-55.12c-17.089 0-31.031 13.694-31.452 30.684h-60.6c-41.803 0-41.808 64.861 0 64.861h53.868v13.936c0 20.338 16.546 36.885 36.884 36.885h106.468v165.149h-84.863c5.102-11.463 7.765-23.916 7.765-36.623 0-5.072-.426-10.161-1.265-15.127-1.613-9.539-16.404-7.039-14.791 2.5.7 4.142 1.056 8.391 1.056 12.627 0 12.895-3.279 25.472-9.518 36.623h-131.178c-6.238-11.151-9.518-23.729-9.518-36.623 0-41.414 33.692-75.107 75.106-75.107 22.801 0 44.107 10.185 58.455 27.943 6.08 7.525 17.747-1.901 11.668-9.427-17.21-21.3-42.769-33.517-70.123-33.517-49.685 0-90.106 40.422-90.106 90.107 0 12.707 2.663 25.16 7.765 36.623h-45.033c-9.675 0-9.675 15 0 15h57.527 139.695 299.778c4.143.001 7.5-3.357 7.5-7.499zm-160.88-207.686c0-9.542 2.093-20.578 14.284-20.578h104.099c19.451 0 19.421 34.862 0 34.862h-104.099c-7.876 0-14.284-6.408-14.284-14.284zm-263.69-48.214c0-9.611 7.819-17.431 17.431-17.431h63.986c5.202 10.23 15.825 17.26 28.066 17.26h61.534c.001.057.005.114.005.171 0 9.611-7.819 17.431-17.431 17.431h-136.161c-9.611-.001-17.43-7.82-17.43-17.431zm108.182 68.251c-12.066 0-21.884-9.817-21.884-21.885v-13.936h67.292c17.883 0 32.431-14.548 32.431-32.431 0-.057-.005-.114-.005-.171h28.634v68.422h-106.468z"/><path d="m239.097 412.523c-4.143 0-7.5 3.358-7.5 7.5v17.074c0 17.316 14.088 31.403 31.403 31.403s31.403-14.087 31.403-31.403v-17.074c0-4.142-3.357-7.5-7.5-7.5s-7.5 3.358-7.5 7.5v17.074c0 6.46-3.763 12.044-9.204 14.717v-43.199c0-4.142-3.357-7.5-7.5-7.5s-7.5 3.358-7.5 7.5v42.909c-5.119-2.779-8.603-8.203-8.603-14.426v-17.074c.001-4.143-3.357-7.501-7.499-7.501z"/><path d="m55.307 456.023c-4.143 0-7.5 3.358-7.5 7.5v17.074c0 6.46-3.763 12.044-9.204 14.717v-43.199c0-4.142-3.357-7.5-7.5-7.5s-7.5 3.358-7.5 7.5v42.909c-5.12-2.78-8.603-8.204-8.603-14.427v-17.074c0-4.142-3.357-7.5-7.5-7.5s-7.5 3.358-7.5 7.5v17.074c0 17.316 14.088 31.403 31.403 31.403s31.403-14.087 31.403-31.403v-17.074c.001-4.142-3.357-7.5-7.499-7.5z"/><path d="m193 437.5c0-4.142-3.357-7.5-7.5-7.5h-85c-4.143 0-7.5 3.358-7.5 7.5s3.357 7.5 7.5 7.5h85c4.143 0 7.5-3.358 7.5-7.5z"/><path d="m393.5 430h-41c-4.143 0-7.5 3.358-7.5 7.5s3.357 7.5 7.5 7.5h41c4.143 0 7.5-3.358 7.5-7.5s-3.357-7.5-7.5-7.5z"/><path d="m504.5 497h-41c-4.143 0-7.5 3.358-7.5 7.5s3.357 7.5 7.5 7.5h41c4.143 0 7.5-3.358 7.5-7.5s-3.357-7.5-7.5-7.5z"/><path d="m377.5 497h-228c-4.143 0-7.5 3.358-7.5 7.5s3.357 7.5 7.5 7.5h228c4.143 0 7.5-3.358 7.5-7.5s-3.357-7.5-7.5-7.5z"/></g></svg>