<svg id="Capa_2" xmlns="http://www.w3.org/2000/svg" x="0px" y="0px"
     height="512" viewBox="0 0 511.999 511.999" width="512" style="enable-background:new 0 0 512 512;" xml:space="preserve">
<style type="text/css">
	.st0{fill:#BDADA7;}
	.st1{fill:#5E453C;}
	.st2{fill:#39BBD8;}
	.st3{fill:#FFFFFF;}
	.st4{fill:#0093BB;}
	.st5{fill:#E7453F;}
	.st6{fill:#2B1A17;}
</style>
<g>
	<path class="st0" d="M432.4,495.9c0,4.8-3.5,8.7-7.9,8.7H82.3c-4.4,0-7.9-3.9-7.9-8.7V355.6c0-4.8,3.5-8.7,7.9-8.7h342.2
		c4.4,0,7.9,3.9,7.9,8.7V495.9z"/>
	<g>
		<path class="st1" d="M109.6,394h23.6c0.8,0,1.4-0.7,1.4-1.6v-23.6c0-0.9-0.6-1.6-1.4-1.6h-23.6c-0.8,0-1.4,0.7-1.4,1.6v23.6
			C108.3,393.3,108.9,394,109.6,394z"/>
		<path class="st1" d="M162.4,394h23.6c0.8,0,1.4-0.7,1.4-1.6v-23.6c0-0.9-0.6-1.6-1.4-1.6h-23.6c-0.8,0-1.4,0.7-1.4,1.6v23.6
			C161,393.3,161.6,394,162.4,394z"/>
		<path class="st1" d="M215.1,394h23.6c0.8,0,1.4-0.7,1.4-1.6v-23.6c0-0.9-0.6-1.6-1.4-1.6h-23.6c-0.8,0-1.4,0.7-1.4,1.6v23.6
			C213.7,393.3,214.3,394,215.1,394z"/>
		<path class="st1" d="M267.8,394h23.6c0.8,0,1.4-0.7,1.4-1.6v-23.6c0-0.9-0.6-1.6-1.4-1.6h-23.6c-0.8,0-1.4,0.7-1.4,1.6v23.6
			C266.4,393.3,267,394,267.8,394z"/>
		<path class="st1" d="M344.1,367.2h-23.6c-0.8,0-1.4,0.7-1.4,1.6v23.6c0,0.9,0.6,1.6,1.4,1.6h23.6c0.8,0,1.4-0.7,1.4-1.6v-23.6
			C345.4,367.9,344.9,367.2,344.1,367.2z"/>
		<path class="st1" d="M396.8,367.2h-23.6c-0.8,0-1.4,0.7-1.4,1.6v23.6c0,0.9,0.6,1.6,1.4,1.6h23.6c0.8,0,1.4-0.7,1.4-1.6v-23.6
			C398.2,367.9,397.6,367.2,396.8,367.2z"/>
		<path class="st1" d="M133.2,439.1c0.8,0,1.4-0.7,1.4-1.6v-23.6c0-0.9-0.6-1.6-1.4-1.6h-23.6c-0.8,0-1.4,0.7-1.4,1.6v23.6
			c0,0.9,0.6,1.6,1.4,1.6H133.2z"/>
		<path class="st1" d="M162.4,439.1h23.6c0.8,0,1.4-0.7,1.4-1.6v-23.6c0-0.9-0.6-1.6-1.4-1.6h-23.6c-0.8,0-1.4,0.7-1.4,1.6v23.6
			C161,438.4,161.6,439.1,162.4,439.1z"/>
		<path class="st1" d="M215.1,439.1h23.6c0.8,0,1.4-0.7,1.4-1.6v-23.6c0-0.9-0.6-1.6-1.4-1.6h-23.6c-0.8,0-1.4,0.7-1.4,1.6v23.6
			C213.7,438.4,214.3,439.1,215.1,439.1z"/>
		<path class="st1" d="M267.8,439.1h23.6c0.8,0,1.4-0.7,1.4-1.6v-23.6c0-0.9-0.6-1.6-1.4-1.6h-23.6c-0.8,0-1.4,0.7-1.4,1.6v23.6
			C266.4,438.4,267,439.1,267.8,439.1z"/>
		<path class="st1" d="M344.1,412.3h-23.6c-0.8,0-1.4,0.7-1.4,1.6v23.6c0,0.9,0.6,1.6,1.4,1.6h23.6c0.8,0,1.4-0.7,1.4-1.6v-23.6
			C345.4,413,344.9,412.3,344.1,412.3z"/>
		<path class="st1" d="M396.8,412.3h-23.6c-0.8,0-1.4,0.7-1.4,1.6v23.6c0,0.9,0.6,1.6,1.4,1.6h23.6c0.8,0,1.4-0.7,1.4-1.6v-23.6
			C398.2,413,397.6,412.3,396.8,412.3z"/>
		<path class="st1" d="M396.8,456.1h-23.6c-0.8,0-1.4,0.7-1.4,1.6v23.6c0,0.9,0.6,1.6,1.4,1.6h23.6c0.8,0,1.4-0.7,1.4-1.6v-23.6
			C398.2,456.8,397.6,456.1,396.8,456.1z"/>
		<path class="st1" d="M134.5,456.1h-23.6c-0.8,0-1.4,0.7-1.4,1.6v23.6c0,0.9,0.6,1.6,1.4,1.6h23.6c0.8,0,1.4-0.7,1.4-1.6v-23.6
			C135.8,456.8,135.2,456.1,134.5,456.1z"/>
		<path class="st1" d="M342.3,457.8H164c-1.7,0-3,1.4-3,3.2v16.9c0,1.7,1.4,3.2,3,3.2h178.3c1.7,0,3-1.4,3-3.2V461
			C345.4,459.2,344.1,457.8,342.3,457.8z"/>
	</g>
	<path class="st2" d="M351.4,242.6c0,5.5-4.2,9.9-9.5,9.9h-169c-5.2,0-9.5-4.4-9.5-9.9V15.9c0-5.5,4.2-9.9,9.5-9.9h169
		c5.2,0,9.5,4.4,9.5,9.9L351.4,242.6L351.4,242.6z"/>
	<path class="st3" d="M322.1,234.8H192.8c-6.4,0-11.6-5.7-11.6-12.6V36.4c0-7,5.2-12.6,11.6-12.6h129.3c6.4,0,11.6,5.7,11.6,12.6
		v185.8C333.6,229.1,328.3,234.8,322.1,234.8z M192.8,32.8c-1.6,0-2.9,1.6-2.9,3.6v185.8c0,2,1.4,3.6,2.9,3.6h129.3
		c1.6,0,2.9-1.6,2.9-3.6V36.4c0-2-1.4-3.6-2.9-3.6C322.1,32.8,192.8,32.8,192.8,32.8z"/>
	<path class="st4" d="M196.6,6.1h-23.6c-5.2,0-9.5,4.4-9.5,9.9v226.6c0,5.5,4.2,9.9,9.5,9.9h23.6V6.1z"/>
	<polygon class="st5" points="276.7,252.5 276.7,304.6 301.6,286.2 326.6,304.6 326.6,252.5 	"/>
	<g>
		<path class="st6" d="M424.5,340.8H272.1v-13.4c0-4.2-3.3-7.6-7.2-7.6H259v-61.3h11.9v46.1c0,2.3,1.3,4.3,3.1,5.4
			c1.9,1,4.2,0.9,6-0.4l21.5-16l21.5,16c0.9,0.7,2.2,1.1,3.4,1.1c0.9,0,1.9-0.2,2.7-0.7c1.9-1,3.1-3.1,3.1-5.4v-46.1h9.5
			c8.4,0,15.2-7.2,15.2-15.9V15.9C356.9,7.1,350,0,341.7,0H196.5h-23.6c-8.4,0-15.2,7.2-15.2,15.9v226.6c0,8.8,6.9,15.9,15.2,15.9
			h23.6h50.8v61.3h-6c-4,0-7.2,3.4-7.2,7.6v13.4H82.3c-7.6,0-13.7,6.6-13.7,14.8v140.3c0,8.1,6.2,14.8,13.7,14.8h342.2
			c7.6,0,13.7-6.6,13.7-14.8V355.6C438.2,347.5,432,340.8,424.5,340.8z M190.7,246.4h-17.9c-2,0-3.6-1.7-3.6-3.8V15.9
			c0-2.1,1.6-3.8,3.6-3.8h17.9V246.4z M320.8,292.9L305,281.2c-0.9-0.7-2.2-1.1-3.4-1.1c-1.2,0-2.4,0.4-3.4,1.1l-15.8,11.7v-34.4
			h38.3L320.8,292.9L320.8,292.9z M202.4,12.1h139.4c2,0,3.6,1.7,3.6,3.8v226.6c0,2.1-1.6,3.8-3.6,3.8h-15.2h-49.9h-74.3V12.1
			L202.4,12.1z M426.6,495.9c0,1.4-0.9,2.6-2.1,2.6H82.3c-1.2,0-2.1-1.2-2.1-2.6V355.6c0-1.4,0.9-2.6,2.1-2.6h342.2
			c1.2,0,2.1,1.2,2.1,2.6V495.9z"/>
		<path class="st6" d="M109.6,400.1h23.6c4,0,7.2-3.4,7.2-7.6v-23.6c0-4.2-3.3-7.6-7.2-7.6h-23.6c-4,0-7.2,3.4-7.2,7.6v23.6
			C102.5,396.7,105.7,400.1,109.6,400.1z M114,373.3h14.7V388H114V373.3z"/>
		<path class="st6" d="M162.4,400.1h23.6c4,0,7.2-3.4,7.2-7.6v-23.6c0-4.2-3.3-7.6-7.2-7.6h-23.6c-4,0-7.2,3.4-7.2,7.6v23.6
			C155.2,396.7,158.4,400.1,162.4,400.1z M166.7,373.3h14.7V388h-14.7V373.3z"/>
		<path class="st6" d="M215.1,400.1h23.6c4,0,7.2-3.4,7.2-7.6v-23.6c0-4.2-3.3-7.6-7.2-7.6h-23.6c-4,0-7.2,3.4-7.2,7.6v23.6
			C207.9,396.7,211.2,400.1,215.1,400.1z M219.4,373.3h14.7V388h-14.7V373.3z"/>
		<path class="st6" d="M267.8,400.1h23.6c4,0,7.2-3.4,7.2-7.6v-23.6c0-4.2-3.3-7.6-7.2-7.6h-23.6c-4,0-7.2,3.4-7.2,7.6v23.6
			C260.6,396.7,263.9,400.1,267.8,400.1z M272.2,373.3h14.7V388h-14.7V373.3z"/>
		<path class="st6" d="M344.1,361.2h-23.6c-4,0-7.2,3.4-7.2,7.6v23.6c0,4.2,3.3,7.6,7.2,7.6h23.6c4,0,7.2-3.4,7.2-7.6v-23.6
			C351.3,364.6,348,361.2,344.1,361.2z M339.6,388h-14.8v-14.7h14.7L339.6,388L339.6,388z"/>
		<path class="st6" d="M396.8,361.2h-23.6c-4,0-7.2,3.4-7.2,7.6v23.6c0,4.2,3.3,7.6,7.2,7.6h23.6c4,0,7.2-3.4,7.2-7.6v-23.6
			C404,364.6,400.7,361.2,396.8,361.2z M392.4,388h-14.8v-14.7h14.7L392.4,388L392.4,388z"/>
		<path class="st6" d="M109.6,445.2h23.6c4,0,7.2-3.4,7.2-7.6V414c0-4.2-3.3-7.6-7.2-7.6h-23.6c-4,0-7.2,3.4-7.2,7.6v23.6
			C102.5,441.7,105.7,445.2,109.6,445.2z M114,418.4h14.7v14.7H114V418.4z"/>
		<path class="st6" d="M162.4,445.2h23.6c4,0,7.2-3.4,7.2-7.6V414c0-4.2-3.3-7.6-7.2-7.6h-23.6c-4,0-7.2,3.4-7.2,7.6v23.6
			C155.2,441.7,158.4,445.2,162.4,445.2z M166.7,418.4h14.7v14.7h-14.7V418.4z"/>
		<path class="st6" d="M215.1,445.2h23.6c4,0,7.2-3.4,7.2-7.6V414c0-4.2-3.3-7.6-7.2-7.6h-23.6c-4,0-7.2,3.4-7.2,7.6v23.6
			C207.9,441.7,211.2,445.2,215.1,445.2z M219.4,418.4h14.7v14.7h-14.7V418.4z"/>
		<path class="st6" d="M267.8,445.2h23.6c4,0,7.2-3.4,7.2-7.6V414c0-4.2-3.3-7.6-7.2-7.6h-23.6c-4,0-7.2,3.4-7.2,7.6v23.6
			C260.6,441.7,263.9,445.2,267.8,445.2z M272.2,418.4h14.7v14.7h-14.7V418.4z"/>
		<path class="st6" d="M344.1,406.3h-23.6c-4,0-7.2,3.4-7.2,7.6v23.6c0,4.2,3.3,7.6,7.2,7.6h23.6c4,0,7.2-3.4,7.2-7.6v-23.6
			C351.3,409.7,348,406.3,344.1,406.3z M339.6,433.1h-14.8v-14.7h14.7L339.6,433.1L339.6,433.1z"/>
		<path class="st6" d="M396.8,406.3h-23.6c-4,0-7.2,3.4-7.2,7.6v23.6c0,4.2,3.3,7.6,7.2,7.6h23.6c4,0,7.2-3.4,7.2-7.6v-23.6
			C404,409.7,400.7,406.3,396.8,406.3z M392.4,433.1h-14.8v-14.7h14.7L392.4,433.1L392.4,433.1z"/>
		<path class="st6" d="M396.8,450h-23.6c-4,0-7.2,3.4-7.2,7.6v23.6c0,4.2,3.3,7.6,7.2,7.6h23.6c4,0,7.2-3.4,7.2-7.6v-23.6
			C404,453.4,400.7,450,396.8,450z M392.4,476.8h-14.8v-14.7h14.7L392.4,476.8L392.4,476.8z"/>
		<path class="st6" d="M134.5,450h-23.6c-4,0-7.2,3.4-7.2,7.6v23.6c0,4.2,3.3,7.6,7.2,7.6h23.6c4,0,7.2-3.4,7.2-7.6v-23.6
			C141.7,453.4,138.4,450,134.5,450z M129.9,476.8h-14.6v-14.7H130L129.9,476.8L129.9,476.8z"/>
		<path class="st6" d="M342.3,451.8H164c-4.9,0-9,4.1-9,9.2v16.9c0,5.1,4.1,9.2,9,9.2h178.3c4.9,0,9-4.1,9-9.2V461
			C351.3,455.9,347.2,451.8,342.3,451.8z M339.6,475H166.7v-11.1h172.8L339.6,475L339.6,475z"/>
	</g>
	<path class="st3" d="M92,479.5c-2.4,0-4.3-2-4.3-4.5v-98.9c0-2.5,1.9-4.5,4.3-4.5s4.3,2,4.3,4.5V475
		C96.4,477.5,94.4,479.5,92,479.5z"/>
	<path class="st3" d="M416,480.5c-2.4,0-4.3-2-4.3-4.5v-97.9c0-2.5,1.9-4.5,4.3-4.5c2.4,0,4.3,2,4.3,4.5V476
		C420.4,478.5,418.4,480.5,416,480.5z"/>
</g>
</svg>
