<svg id="Layer_1" height="512" viewBox="0 0 128 128" width="512" xmlns="http://www.w3.org/2000/svg" xmlns:xlink="http://www.w3.org/1999/xlink" data-name="Layer 1"><linearGradient id="linear-gradient" gradientUnits="userSpaceOnUse" x1="13.596" x2="114.4" y1="64" y2="64"><stop offset="0" stop-color="#e97b83"/><stop offset="1" stop-color="#23ceb0"/></linearGradient><path d="m114.4 6.5v97.31a1.75 1.75 0 0 1 -1.75 1.75h-13.216v15.94a1.75 1.75 0 0 1 -1.75 1.75h-82.338a1.75 1.75 0 0 1 -1.75-1.75v-97.308a1.751 1.751 0 0 1 1.75-1.75h13.224v-15.942a1.75 1.75 0 0 1 1.75-1.75h42.3a1.75 1.75 0 0 1 0 3.5h-40.55v14.192h65.614a1.751 1.751 0 0 1 1.75 1.75v32.621a1.75 1.75 0 1 1 -3.5 0v-30.871h-78.834v93.808h78.834v-15.9c0-.013 0-.025 0-.038s0-.026 0-.039v-28.273a1.75 1.75 0 0 1 3.5 0v26.56h11.466v-93.81h-29.733a1.75 1.75 0 0 1 0-3.5h31.483a1.749 1.749 0 0 1 1.75 1.75zm-16.716 55.75a1.749 1.749 0 0 0 -1.75 1.75v4.625a1.75 1.75 0 0 0 3.5 0v-4.625a1.75 1.75 0 0 0 -1.75-1.75zm-12.419-27.15h-21.265a1.75 1.75 0 0 0 0 3.5h21.265a1.75 1.75 0 0 0 0-3.5zm0 18h-57.5a1.75 1.75 0 1 0 0 3.5h57.5a1.75 1.75 0 0 0 0-3.5zm0 9h-57.5a1.75 1.75 0 1 0 0 3.5h57.5a1.75 1.75 0 0 0 0-3.5zm0 9h-57.5a1.75 1.75 0 0 0 0 3.5h57.5a1.75 1.75 0 0 0 0-3.5zm0 9h-57.5a1.75 1.75 0 0 0 0 3.5h57.5a1.75 1.75 0 0 0 0-3.5zm0 9h-57.5a1.75 1.75 0 0 0 0 3.5h57.5a1.75 1.75 0 0 0 0-3.5zm1.75 10.75a1.75 1.75 0 0 0 -1.75-1.75h-57.5a1.75 1.75 0 0 0 0 3.5h57.5a1.75 1.75 0 0 0 1.75-1.754zm-48.485 7.25a1.75 1.75 0 0 0 0 3.5h35.97a1.75 1.75 0 0 0 0-3.5z" fill="url(#linear-gradient)"/></svg>