<svg id="_x33_0" enable-background="new 0 0 62 62" height="512" viewBox="0 0 62 62" width="512" xmlns="http://www.w3.org/2000/svg"><g><g><g><circle cx="16" cy="26" fill="#b4dd7f" r="15"/></g><g><circle cx="46" cy="26" fill="#b4dd7f" r="15"/></g><g><path d="m25.26 35.79.53 1.57c-2.62 2.27-6.05 3.64-9.79 3.64s-7.17-1.37-9.79-3.64l.53-1.57c.38-1.13 1.09-2.08 2.02-2.74.43-.31.91-.57 1.42-.74l2.82 4.69 3-2 3 2 2.82-4.69c.51.17.99.43 1.42.74.93.66 1.64 1.61 2.02 2.74z" fill="#fcd770"/></g><g><path d="m20 32c.64 0 1.25.11 1.82.31l-2.82 4.69-3-2-3 2-2.82-4.69c.57-.2 1.18-.31 1.82-.31l4 2z" fill="#ffc729"/></g><g><path d="m29 12v5h-2v-1.22c0-1.57-1.21-2.87-2.77-2.99l-3.85-.3c-2.8-.22-5.51-.99-7.97-2.28v.01l-5.46 2.05c-1.17.44-1.95 1.56-1.95 2.81v1.92h-2v-5c0-6.08 4.92-11 11-11h4c6.08 0 11 4.92 11 11z" fill="#b27946"/></g><g><path d="m35 20c0 4.95 3.26 9.13 7.75 10.51l-.75 1.49c-1.2 0-2.32.38-3.24 1.05-.27.19-.53.41-.75.66l-.01-.01c-3.84-1.38-6.56-4.86-6.95-8.93-.03-.34-.05-.68-.05-1.02v-4.75-3c0-8.28 6.72-15 15-15 4.14 0 7.89 1.68 10.6 4.4 2.72 2.71 4.4 6.46 4.4 10.6v7.75c0 .34-.02.68-.05 1.02-.39 4.07-3.11 7.55-6.96 8.93-.23-.24-.48-.46-.75-.65-.92-.67-2.04-1.05-3.24-1.05l-.75-1.49c1.73-.53 3.28-1.48 4.53-2.73 1.99-1.99 3.22-4.74 3.22-7.78v-4.15c0-1.13-.64-2.17-1.66-2.68l-1.54-.77c-.5.37-1.12.6-1.8.6h-6.61c-1.84 0-3.58-.63-4.95-1.72l-3.78 1.89c-1.02.51-1.66 1.55-1.66 2.68z" fill="#656d78"/></g><g><path d="m55.26 35.79.53 1.57c-2.62 2.27-6.05 3.64-9.79 3.64s-7.17-1.37-9.79-3.64l.53-1.57c.27-.8.7-1.51 1.27-2.08.22-.25.48-.47.75-.66.92-.67 2.04-1.05 3.24-1.05l4 5 4-5c1.2 0 2.32.38 3.24 1.05.27.19.52.41.75.65.56.58 1 1.29 1.27 2.09z" fill="#ff826e"/></g><g><path d="m50 32-4 5-4-5 .75-1.49c1.02.32 2.12.49 3.25.49l3.25-.49z" fill="#f0d0b4"/></g><g><path d="m57 15.85v4.15c0 3.04-1.23 5.79-3.22 7.78-1.25 1.25-2.8 2.2-4.53 2.73l-3.25.49c-1.13 0-2.23-.17-3.25-.49-4.49-1.38-7.75-5.56-7.75-10.51v-4.15c0-1.13.64-2.17 1.66-2.68l3.78-1.89c1.37 1.09 3.11 1.72 4.95 1.72h6.61c.68 0 1.3-.23 1.8-.6l1.54.77c1.02.51 1.66 1.55 1.66 2.68z" fill="#f0d0b4"/></g><g><path d="m16 31 3.26-.49.74 1.49-4 2-4-2 .74-1.49c1.03.32 2.12.49 3.26.49z" fill="#f0d0b4"/></g><g><path d="m29 17c1.1 0 2 .9 2 2 0 .55-.22 1.05-.59 1.41-.11.11-.24.21-.37.29v.01c-.3.18-.66.29-1.04.29h-2.05c.03-.33.05-.66.05-1v-3z" fill="#f0d0b4"/></g><g><path d="m27 17v3c0 .34-.02.67-.05 1-.23 2.64-1.4 5.01-3.17 6.78-1.25 1.25-2.79 2.19-4.52 2.73l-3.26.49c-1.14 0-2.23-.17-3.26-.49-4.18-1.3-7.29-5.01-7.69-9.51-.03-.33-.05-.66-.05-1v-3-1.92c0-1.25.78-2.37 1.95-2.81l5.46-2.05v-.01c2.46 1.29 5.17 2.06 7.97 2.28l3.85.3c1.56.12 2.77 1.42 2.77 2.99z" fill="#f0d0b4"/></g><g><path d="m5 20c0 .34.02.67.05 1h-.01-2.04c-.38 0-.74-.11-1.04-.29-.13-.09-.26-.19-.37-.3-.37-.36-.59-.86-.59-1.41 0-1.1.9-2 2-2h2z" fill="#f0d0b4"/></g><g><circle cx="21" cy="19" fill="#d3a06c" r="2"/></g><g><circle cx="11" cy="19" fill="#d3a06c" r="2"/></g><g><path d="m39 53c.55 0 1 .45 1 1 0 1.94-.78 3.68-2.05 4.95s-3.01 2.05-4.95 2.05c-3.04 0-5.79-1.23-7.78-3.22s-3.22-4.74-3.22-7.78c0-3.87 3.13-7 7-7 .55 0 1 .45 1 1v3.38c0 .38-.21.73-.55.9l-1.45.72c0 3.02 1.84 5.74 4.64 6.86l.36.14.77-2.32c.14-.4.52-.68.95-.68z" fill="#aab2bd"/></g></g><g><path d="m11 16c-1.654 0-3 1.346-3 3s1.346 3 3 3 3-1.346 3-3-1.346-3-3-3zm0 4c-.551 0-1-.449-1-1s.449-1 1-1 1 .449 1 1-.449 1-1 1z"/><path d="m24 19c0-1.654-1.346-3-3-3s-3 1.346-3 3 1.346 3 3 3 3-1.346 3-3zm-3 1c-.551 0-1-.449-1-1s.449-1 1-1 1 .449 1 1-.449 1-1 1z"/><path d="m16.586 24h-2.586v2h2.586c1.179 0 2.288-.459 3.121-1.293l-1.414-1.414c-.449.449-1.072.707-1.707.707z"/><path d="m44 26h2.586c1.179 0 2.288-.459 3.121-1.293l-1.414-1.414c-.449.449-1.072.707-1.707.707h-2.586z"/><path d="m40 19c0-.551.449-1 1-1s1 .449 1 1v1h2v-1c0-1.654-1.346-3-3-3s-3 1.346-3 3v1h2z"/><path d="m50 19c0-.551.449-1 1-1s1 .449 1 1v1h2v-1c0-1.654-1.346-3-3-3s-3 1.346-3 3v1h2z"/><path d="m62 16c0-8.822-7.178-16-16-16s-16 7.178-16 16v-4c0-6.617-5.383-12-12-12h-4c-6.617 0-12 5.383-12 12v4.184c-1.161.414-2 1.514-2 2.816 0 .785.31 1.494.805 2.029-.524 1.602-.805 3.268-.805 4.971 0 8.822 7.178 16 16 16 6.882 0 12.746-4.376 15-10.485 2.254 6.109 8.118 10.485 15 10.485 8.822 0 16-7.178 16-16 0-.412-.019-.82-.049-1.223.03-.339.049-.679.049-1.023zm-30 0c0-7.72 6.28-14 14-14s14 6.28 14 14v7.754c0 3.834-2.307 7.29-5.796 8.784-.981-.823-2.192-1.357-3.507-1.497 4.289-1.831 7.303-6.09 7.303-11.041v-4.146c0-1.524-.847-2.896-2.211-3.578l-.39-.195c.374-.608.601-1.316.601-2.081 0-2.206-1.794-4-4-4h-.146c-1.524 0-2.896.847-3.578 2.211l-.171.342 1.789.895.171-.342c.341-.682 1.027-1.106 1.789-1.106h.146c1.103 0 2 .897 2 2s-.897 2-2 2h-6.615c-2.86 0-5.395-1.716-6.457-4.372l-1.857.743c.399.998.975 1.877 1.661 2.644l-2.521 1.261c-1.364.682-2.211 2.054-2.211 3.578v4.146c0 4.951 3.014 9.21 7.304 11.041-1.315.14-2.527.674-3.507 1.497-3.489-1.494-5.797-4.95-5.797-8.784zm8.337-3.55c1.452.99 3.196 1.55 5.048 1.55h6.615c.664 0 1.281-.178 1.833-.466l1.062.531c.681.341 1.105 1.027 1.105 1.789v4.146c0 5.514-4.486 10-10 10s-10-4.486-10-10v-4.146c0-.762.424-1.448 1.105-1.789zm2.943 19.227c.875.204 1.783.323 2.72.323s1.845-.119 2.72-.323l.099.198-2.819 3.524-2.819-3.524zm-15.28-13.677h1c.551 0 1 .449 1 1s-.449 1-1 1h-1zm-24-6c0-5.514 4.486-10 10-10h4c5.514 0 10 4.486 10 10v3.778c0-2.077-1.623-3.829-3.693-3.988l-3.846-.296c-3.976-.306-7.723-1.784-10.836-4.275l-1.25 1.562c.554.443 1.126.857 1.715 1.242l-3.495 1.311c-1.552.582-2.595 2.087-2.595 3.745zm9.82 19.792c.708.13 1.435.208 2.18.208s1.472-.078 2.18-.208l-2.18 1.09zm-2.024 1.224 3.073 1.536-1.551 1.034-1.541-2.569c.006 0 .012-.001.019-.001zm8.408 0c.007 0 .013.001.019.002l-1.541 2.569-1.551-1.034zm-4.204-3.016c-5.514 0-10-4.486-10-10v-4.921c0-.829.521-1.582 1.298-1.873l5.052-1.895c2.473 1.221 5.164 1.961 7.958 2.177l3.846.296c1.035.08 1.846.956 1.846 1.994v4.222c0 5.514-4.486 10-10 10zm-13-12h1v2h-1c-.551 0-1-.449-1-1s.449-1 1-1zm-1 8c0-1.381.209-2.735.602-4.04.132.017.262.04.398.04h1.181c.688 4.075 3.425 7.462 7.123 9.041-2.531.269-4.698 1.982-5.517 4.438l-.017.048c-2.331-2.502-3.77-5.846-3.77-9.527zm5.384 11.011.3-.9c.368-1.104 1.134-1.985 2.102-2.526l2.897 4.828 3.317-2.211 3.318 2.212 2.897-4.828c.967.541 1.733 1.421 2.102 2.525l.3.901c-2.379 1.865-5.367 2.988-8.617 2.988s-6.238-1.123-8.616-2.989zm18.846-1.485-.016-.048c-.819-2.456-2.987-4.168-5.517-4.438 3.698-1.579 6.435-4.966 7.123-9.041h1.18c.136 0 .266-.023.398-.04.393 1.306.602 2.659.602 4.041 0 3.681-1.439 7.025-3.77 9.526zm7.05-3.713c.904.931 1.972 1.71 3.164 2.299-.263.426-.494.876-.657 1.367l-.016.048c-1.018-1.092-1.862-2.342-2.491-3.714zm4.104 5.198.3-.9c.572-1.716 2.094-2.899 3.865-3.076l4.451 5.566 4.452-5.565c1.771.176 3.293 1.36 3.865 3.076l.3.9c-2.379 1.865-5.367 2.988-8.617 2.988s-6.238-1.123-8.616-2.989zm18.846-1.485-.016-.048c-.164-.49-.394-.941-.657-1.367 1.192-.589 2.259-1.368 3.163-2.299-.63 1.373-1.473 2.623-2.49 3.714z"/><path d="m39 52h-4.279c-.862 0-1.625.549-1.897 1.367l-.425 1.277c-1.908-1.005-3.17-2.89-3.37-5.04l.867-.433c.68-.341 1.104-1.026 1.104-1.789v-3.382c0-1.103-.897-2-2-2-4.411 0-8 3.589-8 8 0 6.617 5.383 12 12 12 4.411 0 8-3.589 8-8 0-1.103-.897-2-2-2zm-6 8c-5.514 0-10-4.486-10-10 0-3.309 2.691-6 6-6v3.382l-2 1v.618c0 3.449 2.069 6.505 5.271 7.785l1.342.538 1.108-3.323h4.279c0 3.309-2.691 6-6 6z"/><path d="m44 48h2v6h-2z"/><path d="m50 46h2v10h-2z"/><path d="m56 44h2v14h-2z"/><path d="m16 48h2v6h-2z"/><path d="m10 46h2v10h-2z"/><path d="m4 44h2v14h-2z"/></g></g></svg>